<?xml version="1.0" encoding="UTF-8"?><svg id="Layer_1" xmlns="http://www.w3.org/2000/svg" viewBox="0 0 128.83 128.83"><defs><style>.cls-1{fill:none;stroke:#000;stroke-linecap:round;stroke-linejoin:round;stroke-width:2.93px;}</style></defs><path class="cls-1" d="M82.26,96.48v14.68h-10.63v-2.15c0-1.91,1.55-3.45,3.45-3.45h1.66v-7.97"/><path class="cls-1" d="M65.18,99.19v11.97h-10.63v-2.15c0-1.91,1.55-3.45,3.45-3.45h1.66v-11.01"/><path class="cls-1" d="M29.96,62.35c1.61,2.73,3.48,5.17,5.17,5.46,2.78,.47,8.19-4.9,10.65-7.55"/><path class="cls-1" d="M24.13,61.16c-.71-3.01-.89-5.2-.89-5.2-.22-2.61,1.86-3.25,2.87-1.58,0,0,.68,1.72,1.74,3.94"/><path class="cls-1" d="M54.24,73.59c-4.12,3.09-10.68,6.6-17.5,4.6-6.27-1.83-9.67-7.85-11.5-13.15"/><path class="cls-1" d="M70.62,39.23h0l18.32-10.42c2.77-1.8,4.36-4.61,4.36-7.23,0-1.12-.29-2.2-.91-3.14-2.05-3.16-6.93-3.63-10.89-1.06l-27.23,20.78"/><path class="cls-1" d="M46.89,52.73l-16.92,9.62-4.72,2.69-4.3,2.45c-2.07,1.18-3.62-1.13-1.72-2.58l4.91-3.75,3.72-2.83,17.32-13.21"/><path class="cls-1" d="M52.34,66.88c1.04,1.35,1.69,3.29,1.89,6.71h0c.06,.84,.08,1.75,.08,2.77l.13,23.21,4.78-4.99,.27-.28,5.26,5.21,.06,.06,4.99-5.27,5,5.27,1.91-1.97,3.19-3.3,2.34,2.18,3.3,3.09V58.39c0-9.25-6.35-17.01-14.93-19.17h0c-1.55-.39-3.16-.6-4.83-.6h-10.2"/><path class="cls-1" d="M85.64,73.08h-.08c-.54,0-3.75-.09-8.51-1.01"/><path class="cls-1" d="M55.88,64.26c4.42,2.51,8.72,4.3,12.62,5.59"/><path class="cls-1" d="M67.81,86.68c.5-7.73,1.04-15.96,1.05-16.04,0,0,0,0,0,0-.66-1.4-1.12-2.89-1.5-4.4-.65-2.62-1.03-5.29-1.25-7.98-.36-4.5-.85-11.8,5.75-11.49,2.86,.13,5.19,2.72,5.19,5.57v20.1l-5.51,15.02c-.77,2.09-3.87,1.43-3.73-.79Z"/><path class="cls-1" d="M58.29,40.53c1.52,1.54,2.38,3.6,2.64,5.73,.75,6.25-.41,12.59-4.59,17.48-1.82,2.13-4.92,4.47-7.9,3.4-2.5-.89-3.39-3.58-2.85-6.02l1.15-5.11,.17-3.74h-3.2l1.74-8.61c.42-2.08,1.68-3.94,3.55-4.95,3.24-1.74,6.9-.6,9.29,1.82Z"/><path class="cls-1" d="M46.74,55.98c7.21,3,12.71-9.24,12.71-13.95"/><line class="cls-1" x1="49.35" y1="47.03" x2="52.75" y2="47.03"/></svg>