<?xml version="1.0" encoding="UTF-8"?><svg id="Layer_1" xmlns="http://www.w3.org/2000/svg" viewBox="0 0 128.83 128.83"><defs><style>.cls-1{fill:none;stroke:#000;stroke-linecap:round;stroke-linejoin:round;stroke-width:2.66px;}</style></defs><g><path class="cls-1" d="M42.7,60.12c-1.79-2.29-5.6-2.2-7.14,.65-1.47,2.73,.22,6.19,3.62,8.09,3.13,1.75,9.12,4.35,9.12,4.35,0,0,2.25-6.13,3.15-9.61,.97-3.77-.36-7.38-3.35-8.2-3.13-.85-5.82,1.84-5.4,4.72Z"/><g><path class="cls-1" d="M27,50.41c-.76-.96-2.36-.93-3.01,.27-.62,1.15,.09,2.61,1.53,3.41,1.32,.74,3.84,1.83,3.84,1.83,0,0,.95-2.58,1.33-4.05,.41-1.59-.15-3.11-1.41-3.45-1.32-.36-2.45,.77-2.28,1.99Z"/><path class="cls-1" d="M60.95,75.68c-.76-.96-2.36-.93-3.01,.27-.62,1.15,.09,2.61,1.53,3.41,1.32,.74,3.84,1.83,3.84,1.83,0,0,.95-2.58,1.33-4.05,.41-1.59-.15-3.11-1.41-3.45-1.32-.36-2.45,.77-2.28,1.99Z"/></g><rect class="cls-1" x="26.33" y="38.59" width="37.16" height="53.18" rx="5.2" ry="5.2" transform="translate(-22.45 23.62) rotate(-23.76)"/></g><path class="cls-1" d="M52.22,36.57l14.33-2.98c2.85-.59,5.63,1.24,6.23,4.08l8.67,41.76c.59,2.85-1.24,5.63-4.08,6.23l-24.63,5.11"/><path class="cls-1" d="M72,35.82l14.64,.04c2.91,0,5.26,2.37,5.25,5.28l-.11,42.65c0,2.91-2.37,5.26-5.28,5.25l-25.15-.06"/><path class="cls-1" d="M91.5,39.15l14.32,3.05c2.84,.61,4.66,3.4,4.05,6.25l-8.88,41.72c-.61,2.84-3.4,4.66-6.25,4.05l-24.6-5.24"/><path class="cls-1" d="M64.42,39.2l-.06,.12c-.23,1.25-1.92,4.48-2.61,5.22l-.03,.06,.04,.05c.87,.52,3.4,3.14,3.98,4.27l.09,.1,.06-.12c.23-1.25,1.92-4.48,2.61-5.22l.03-.06-.05-.05c-.87-.51-3.4-3.14-3.98-4.27l-.1-.09Z"/></svg>