<?xml version="1.0" encoding="UTF-8"?><svg id="Layer_1" xmlns="http://www.w3.org/2000/svg" viewBox="0 0 128.83 128.83"><defs><style>.cls-1{fill:none;stroke:#000;stroke-linecap:round;stroke-linejoin:round;stroke-width:2.93px;}</style></defs><path class="cls-1" d="M77.13,37.47c0,9.76-5.66,17.8-12.54,17.8s-12.48-7.95-12.54-17.66"/><line class="cls-1" x1="113.64" y1="89.23" x2="15.64" y2="89.23"/><line class="cls-1" x1="28.06" y1="97.43" x2="101.22" y2="97.43"/><g><rect class="cls-1" x="25.75" y="53.65" width="6.2" height="19.31" rx="1.59" ry="1.59" transform="translate(53.22 -1.86) rotate(45)"/><line class="cls-1" x1="26.98" y1="61.43" x2="31.05" y2="65.5"/><line class="cls-1" x1="22.03" y1="70.14" x2="15.99" y2="76.17"/></g><line class="cls-1" x1="24.56" y1="71.37" x2="24.56" y2="89.23"/><line class="cls-1" x1="71.24" y1="52.88" x2="71.24" y2="62.53"/><g><rect class="cls-1" x="97.63" y="53.65" width="6.2" height="19.31" rx="1.59" ry="1.59" transform="translate(216.72 36.85) rotate(135)"/><line class="cls-1" x1="102.61" y1="61.43" x2="98.54" y2="65.5"/><line class="cls-1" x1="107.56" y1="70.14" x2="113.59" y2="76.17"/></g><line class="cls-1" x1="105.02" y1="71.37" x2="105.02" y2="89.23"/><path class="cls-1" d="M98.2,89.04v-11.13c0-2.91-2.05-5.56-5.28-6.84l-21.68-8.55"/><path class="cls-1" d="M81.98,33.68c0-9.85-7.83-17.96-17.34-17.96s-17.27,8.02-17.34,17.82"/><line class="cls-1" x1="58.34" y1="52.88" x2="58.34" y2="62.53"/><path class="cls-1" d="M31.39,89.04v-11.13c0-2.91,2.05-5.56,5.28-6.84l21.68-8.55"/><g><path class="cls-1" d="M73.07,63.31c-7.14,12.26-8.62,25.73-8.62,25.73"/><path class="cls-1" d="M56.22,63.31c7.14,12.26,8.23,25.73,8.23,25.73"/></g><path class="cls-1" d="M47.26,33.54s1.15,11.74-4.76,23.48"/><path class="cls-1" d="M58.3,62.81c-4.61-.66-10.89-2.2-15.8-5.78"/><path class="cls-1" d="M81.98,33.54s-1.15,11.74,4.76,23.48"/><path class="cls-1" d="M71.19,63.12c4.61-.66,10.89-2.2,15.8-5.78"/><path class="cls-1" d="M64.64,22.16c-2.14,12.23-12.59,15.45-12.59,15.45"/><path class="cls-1" d="M64.64,22.16c2.14,12.23,12.59,15.45,12.59,15.45"/></svg>