<?xml version="1.0" encoding="UTF-8"?><svg id="Layer_1" xmlns="http://www.w3.org/2000/svg" viewBox="0 0 128.83 128.83"><defs><style>.cls-1{fill:none;stroke:#000;stroke-linecap:round;stroke-linejoin:round;stroke-width:2.93px;}</style></defs><line class="cls-1" x1="57.19" y1="14.7" x2="55.77" y2="21.51"/><path class="cls-1" d="M59.76,46.25l4.79-2.76c1.61-.93,2.16-2.98,1.24-4.59l-10.02-17.4"/><line class="cls-1" x1="62.28" y1="52.67" x2="59.76" y2="46.25"/><path class="cls-1" d="M52.83,54.78c5.64,0,9.46-2.1,9.46-2.1"/><line class="cls-1" x1="59.76" y1="59.19" x2="56.72" y2="54.44"/><line class="cls-1" x1="55.7" y1="64.02" x2="59.76" y2="59.19"/><path class="cls-1" d="M16.06,64.21l32.07,11.25c2.75,.57,5.45-1.2,6.02-3.95l1.56-7.48"/><g><path class="cls-1" d="M77.98,75.37v-23.6c0-2.03-1.65-3.68-3.68-3.68h0c-2.03,0-3.68,1.65-3.68,3.68v30.49"/><path class="cls-1" d="M84.45,76.52v-7.35c0-2.03-1.45-3.68-3.24-3.68h0c-1.79,0-3.24,1.65-3.24,3.68"/><path class="cls-1" d="M90.92,79.26v-7.35c0-2.03-1.45-3.68-3.24-3.68h0c-1.79,0-3.24,1.65-3.24,3.68"/><path class="cls-1" d="M97.4,92.15v-17.51c0-2.03-1.45-3.68-3.24-3.68h0c-1.79,0-3.24,1.65-3.24,3.68"/><line class="cls-1" x1="70.62" y1="101.81" x2="70.62" y2="105.83"/><path class="cls-1" d="M63.25,92.15c0,9.07,7.36,9.66,7.36,9.66"/><line class="cls-1" x1="90.92" y1="101.81" x2="90.92" y2="105.83"/><path class="cls-1" d="M97.4,92.15c0,9.07-6.47,9.66-6.47,9.66"/><path class="cls-1" d="M70.62,84.43v-6.24c0-2.84-2.31-5.15-5.15-5.15h-2.21v19.11"/></g></svg>