<?xml version="1.0" encoding="UTF-8"?><svg id="Layer_1" xmlns="http://www.w3.org/2000/svg" viewBox="0 0 128.83 128.83"><defs><style>.cls-1{fill:none;stroke:#000;stroke-linecap:round;stroke-linejoin:round;stroke-width:2.93px;}</style></defs><line class="cls-1" x1="71.52" y1="103.43" x2="54.95" y2="103.43"/><path class="cls-1" d="M55.24,34.05v-11.85l8.58,4.77"/><path class="cls-1" d="M65.6,54.08s-18.8-1.09-10.35-20.02v-11.85"/><path class="cls-1" d="M88.45,34.05v-11.85l-8.58,4.77s-8.69-3.59-16.04,0"/><path class="cls-1" d="M78.1,54.08s18.8-1.09,10.35-20.02v-11.85"/><path class="cls-1" d="M36.67,88.45h18.88c2.68,0,4.86,2.18,4.86,4.86s-2.18,4.86-4.86,4.86h-19.7c-5.37,0-9.72-3.16-9.72-8.53,0,0-.45-5.46,5.54-7.64-4.02-24.93,20.33-29.02,21.51-41.09"/><path class="cls-1" d="M44.28,67.56c24.52-1.91,15.26,20.84,15.26,20.84"/><path class="cls-1" d="M80.31,83.82h6.83c4.85,0,8.79,3.94,8.79,8.79v10.83h-24.4v-10.83c0-4.85,3.94-8.79,8.79-8.79Z"/><path class="cls-1" d="M90.35,84.47c1.08-.42,2.25-.64,3.47-.64h4.22c5.57,0,10.09,4.84,10.09,10.84v8.77h-24.4"/><path class="cls-1" d="M87.53,50.4c2.41,10.08-.25,26.6-1.55,33.42"/><path class="cls-1" d="M59.87,63.89l4.9,29.42c.92,3.27,5.48,5.23,6.74,5.32"/><line class="cls-1" x1="76.34" y1="84.37" x2="76.21" y2="74.01"/><line class="cls-1" x1="62.42" y1="39.69" x2="68.14" y2="40.78"/><line class="cls-1" x1="82.87" y1="39.69" x2="77.14" y2="40.78"/><line class="cls-1" x1="72.41" y1="45.95" x2="73.09" y2="45.95"/></svg>