<?xml version="1.0" encoding="UTF-8"?><svg id="Layer_1" xmlns="http://www.w3.org/2000/svg" viewBox="0 0 128.83 128.83"><defs><style>.cls-1{fill:none;stroke:#000;stroke-linecap:round;stroke-linejoin:round;stroke-width:2.93px;}</style></defs><path class="cls-1" d="M70.22,83.43h.01c11.26-.45,20.82-7.44,25.01-17.28-4.13,3.38-9.4,5.41-15.16,5.41-13.21,0-23.91-10.71-23.91-23.92,0-9.09,5.07-17,12.55-21.05-15.54,.18-28.09,12.84-28.09,28.43,0,3.9,.79,7.62,2.21,11.01"/><polygon class="cls-1" points="19.9 46.78 21.75 51.57 26.87 51.84 22.89 55.08 24.21 60.04 19.9 57.25 15.59 60.04 16.91 55.08 12.93 51.84 18.05 51.57 19.9 46.78"/><polygon class="cls-1" points="95.24 90.71 97.08 95.5 102.21 95.78 98.23 99.01 99.55 103.97 95.24 101.18 90.93 103.97 92.25 99.01 88.27 95.78 93.39 95.5 95.24 90.71"/><path class="cls-1" d="M106.91,41.63c-1.13,0-2.21,.25-3.18,.68-.16-4.95-4.22-8.92-9.22-8.92s-9.23,4.13-9.23,9.23c0,1.14,.22,2.23,.6,3.24-1.06-.79-2.37-1.26-3.79-1.26-3.51,0-6.36,2.85-6.36,6.36s2.85,6.36,6.36,6.36h24.83c4.33,0,7.84-3.51,7.84-7.84s-3.51-7.84-7.84-7.84Z"/><path class="cls-1" d="M30.4,76.34c1.52,0,2.95,.33,4.26,.91,.22-6.63,5.66-11.95,12.34-11.95s12.36,5.54,12.36,12.36c0,1.53-.29,2.99-.8,4.34,1.42-1.06,3.17-1.69,5.08-1.69,4.7,0,8.51,3.81,8.51,8.51s-3.81,8.51-8.51,8.51H30.4c-5.8,0-10.5-4.7-10.5-10.5,0-5.8,4.7-10.5,10.5-10.5Z"/></svg>