<?xml version="1.0" encoding="UTF-8"?><svg id="Layer_1" xmlns="http://www.w3.org/2000/svg" viewBox="0 0 128.83 128.83"><defs><style>.cls-1{fill:none;stroke:#000;stroke-linecap:round;stroke-linejoin:round;stroke-width:2.93px;}</style></defs><path class="cls-1" d="M51.47,87.06s1.67-53.3,19.06-54.57c4.22-.31,6.71,3.23,7.88,6.83,2.25,6.91,1.53,14.66,2.25,21.83,.35,3.47,.74,6.94,1.31,10.38,.38,2.3,1.49,6.29,2.55,8.4,2.27,4.51,6.26,7.26,11.56,6.96,6.36-.36,10.09-5.95,10.06-11.94-.01-3.01-.96-6.12-3.12-8.2-2.1-2.02-5.13-2.85-8.03-2.78-7.35,.19-11.93,5.33-15.01,11.44-3.59,7.11-6.36,14.93-12.98,19.89-5.87,4.4-12.39,4.81-19.58,3.73"/><path class="cls-1" d="M53.14,68.36c0-7.83-.62-33.58-10.54-34.54-4.53-.44-9.55,2.39-13.55,8.87"/></svg>