<?xml version="1.0" encoding="UTF-8"?><svg id="Layer_1" xmlns="http://www.w3.org/2000/svg" viewBox="0 0 128.83 128.83"><defs><style>.cls-1{fill:none;stroke:#000;stroke-linecap:round;stroke-linejoin:round;stroke-width:2.93px;}</style></defs><path class="cls-1" d="M63.35,77.29c-.1-6.32-5.25-11.42-11.6-11.42s-11.6,5.19-11.6,11.6,5.19,11.6,11.6,11.6c5.06,0,9.65-3.41,11.11-8.26,.69-2.31,1.38-4.84,1.39-7.29,.07-14.01-9.16-13.22-11.23-27.43-1.32-9.09,3.04-20.75,13.73-20.87,9.49-.11,15.08,9.29,16,17.74,.79,7.18-1.66,14.03-4.62,20.45-3.16,6.83-6.38,13.32-8.27,20.66-.92,3.58-1.36,7.39-.42,10.96,1.62,6.17,8.12,10.62,14.37,7.65,5.28-2.51,5.83-10.66,3.68-15.41"/></svg>