<?xml version="1.0" encoding="UTF-8"?><svg id="Layer_1" xmlns="http://www.w3.org/2000/svg" viewBox="0 0 128.83 128.83"><defs><style>.cls-1{fill:none;stroke:#000;stroke-linecap:round;stroke-linejoin:round;stroke-width:2.93px;}</style></defs><g><line class="cls-1" x1="82.18" y1="89.01" x2="94.08" y2="105.01"/><line class="cls-1" x1="84.13" y1="102.28" x2="87.06" y2="95.84"/><line class="cls-1" x1="90.76" y1="110.87" x2="84.13" y2="102.28"/><line class="cls-1" x1="94.08" y1="105.01" x2="90.76" y2="110.87"/><line class="cls-1" x1="94.28" y1="94.47" x2="87.06" y2="95.84"/><line class="cls-1" x1="100.72" y1="103.06" x2="94.28" y2="94.47"/><line class="cls-1" x1="94.28" y1="104.82" x2="100.72" y2="103.06"/></g><g><line class="cls-1" x1="77.49" y1="50.75" x2="99.94" y2="29.08"/><line class="cls-1" x1="98.38" y1="39.23" x2="91.55" y2="37.09"/><line class="cls-1" x1="105.99" y1="31.62" x2="98.38" y2="39.23"/><line class="cls-1" x1="99.94" y1="29.08" x2="105.99" y2="31.62"/><line class="cls-1" x1="89.4" y1="30.25" x2="91.55" y2="37.09"/><line class="cls-1" x1="97.21" y1="22.64" x2="89.4" y2="30.25"/><line class="cls-1" x1="99.74" y1="28.89" x2="97.21" y2="22.64"/></g><g><line class="cls-1" x1="57.19" y1="61.68" x2="17.18" y2="45.09"/><line class="cls-1" x1="27.33" y1="42.36" x2="27.91" y2="49.58"/><line class="cls-1" x1="17.37" y1="38.45" x2="27.33" y2="42.36"/><line class="cls-1" x1="17.18" y1="45.09" x2="17.37" y2="38.45"/><line class="cls-1" x1="22.45" y1="54.26" x2="27.91" y2="49.58"/><line class="cls-1" x1="12.49" y1="49.97" x2="22.45" y2="54.26"/><line class="cls-1" x1="17.18" y1="45.28" x2="12.49" y2="49.97"/></g><circle class="cls-1" cx="64.02" cy="64.61" r="7.42"/><path class="cls-1" d="M44.89,60.9c-.2,1.17-.39,2.54-.39,3.71,0,10.74,8.78,19.32,19.32,19.32s19.32-8.78,19.32-19.32-8.78-19.32-19.32-19.32c-6.44,0-12.49,3.12-16.01,8.39"/><path class="cls-1" d="M33.96,58.75c-.39,1.95-.59,3.9-.59,5.86,0,16.79,13.86,30.45,30.45,30.45s30.45-13.86,30.45-30.45c0-6.05-1.76-12.1-5.27-17.18"/><path class="cls-1" d="M80.22,38.84c-4.88-3.12-10.54-4.68-16.2-4.68-10.15,0-20.1,5.27-25.57,13.86"/></svg>