<svg viewBox="0 0 98 82" fill="none" xmlns="http://www.w3.org/2000/svg">
<path d="M77.3294 1.46484H92.01V35.7345H77.3294V28.7408H71.2657V23.1457H56.9043V14.0537H71.2657V8.45861H77.3294V1.46484Z" stroke="black" stroke-width="2.93" stroke-linecap="round" stroke-linejoin="round"/>
<path d="M83.7129 18.2617H90.5576" stroke="black" stroke-width="2.93" stroke-linecap="round" stroke-linejoin="round"/>
<path d="M83.7129 23.1367H90.5576" stroke="black" stroke-width="2.93" stroke-linecap="round" stroke-linejoin="round"/>
<path d="M83.7129 28.0127H90.5576" stroke="black" stroke-width="2.93" stroke-linecap="round" stroke-linejoin="round"/>
<path d="M83.7129 13.3857H90.5576" stroke="black" stroke-width="2.93" stroke-linecap="round" stroke-linejoin="round"/>
<path d="M83.7129 8.50977H90.5576" stroke="black" stroke-width="2.93" stroke-linecap="round" stroke-linejoin="round"/>
<path d="M77.8002 1.46484H59.6504L46.0381 5.39157V31.4509L59.6504 35.7346H77.8002" stroke="black" stroke-width="2.93" stroke-linecap="round" stroke-linejoin="round"/>
<path d="M37.1855 12.7462L46.1158 10.7617V26.6377L37.1855 24.6532V12.7462Z" stroke="black" stroke-width="2.93" stroke-linecap="round" stroke-linejoin="round"/>
<path d="M88.0851 62.955C88.0851 57.9996 84.0626 53.9594 79.1686 53.9594H18.0247C8.87892 53.9594 1.46484 46.5453 1.46484 37.3995V31.6126C1.46484 22.4668 8.87892 15.0527 18.0247 15.0527H37.0185V22.6957H18.0247C13.1 22.6957 9.10783 26.6879 9.10783 31.6126V37.3995C9.10783 42.3242 13.1 46.3164 18.0247 46.3164H79.1686C88.3451 46.3164 95.7284 53.84 95.7284 62.955C95.7284 72.07 88.3451 79.5933 79.1686 79.5933H5.28639V71.9506H79.1686C84.0626 71.9506 88.0851 67.9103 88.0851 62.955Z" stroke="black" stroke-width="2.93" stroke-linecap="round" stroke-linejoin="round"/>
</svg>
