<svg viewBox="0 0 94 98" fill="none" xmlns="http://www.w3.org/2000/svg">
<path d="M43.054 35.0557H10.3372C5.43721 35.0557 1.46484 39.0279 1.46484 43.928V75.3408C1.46484 80.241 5.43721 84.2131 10.3372 84.2131H14.573L31.7784 95.6835V84.2131H41.75C46.6501 84.2131 50.6224 80.241 50.6224 75.3408V50.6173" stroke="black" stroke-width="2.93" stroke-linecap="round" stroke-linejoin="round"/>
<path d="M52.1204 1.46484C47.2203 1.46484 43.248 5.43711 43.248 10.3372V41.75C43.248 46.6501 47.2203 50.6224 52.1204 50.6224H62.092V62.093L79.2974 50.6224H83.5331C88.4328 50.6224 92.4058 46.6501 92.4058 41.75V10.3372C92.4058 5.43711 88.4328 1.46484 83.5331 1.46484H52.1204Z" stroke="black" stroke-width="2.93" stroke-linecap="round" stroke-linejoin="round"/>
<path fill-rule="evenodd" clip-rule="evenodd" d="M22.679 46.2684C23.3496 44.8292 25.0619 43.9984 26.7979 44.1494C28.5886 44.0054 30.3295 44.905 30.9431 46.4049L40.7627 70.4204C41.4817 72.1796 40.3769 74.0982 38.2947 74.7059C36.2122 75.3137 33.9407 74.3802 33.2212 72.6208L31.5646 68.5697L20.8665 68.569L18.9175 72.7541C18.1108 74.4862 15.7949 75.338 13.7447 74.6566C11.6946 73.9749 10.6862 72.0184 11.4929 70.2863L22.679 46.2684ZM24.0055 61.828L28.8082 61.8288L26.5632 56.337L24.0055 61.828Z" stroke="black" stroke-width="2.93" stroke-linecap="round" stroke-linejoin="round"/>
<path fill-rule="evenodd" clip-rule="evenodd" d="M68.0074 9.0293C69.881 9.0293 71.3997 10.5741 71.3997 12.4797V15.9301H79.0326C80.9061 15.9301 82.425 17.4749 82.425 19.3804C82.425 21.286 80.9061 22.8309 79.0326 22.8309H77.9816C77.9703 22.9045 77.9601 22.9799 77.9477 23.0557C77.6682 24.7565 77.0797 27.0668 75.8249 29.4544C75.3075 30.4389 74.6835 31.4158 73.9432 32.3589C75.2457 32.757 76.7408 33.0502 78.4611 33.1937C80.3281 33.3495 81.718 35.0148 81.5653 36.9137C81.4121 38.8126 79.7749 40.2263 77.9079 40.0709C73.8868 39.7354 70.6308 38.7308 68.0074 37.3223C65.3839 38.7308 62.128 39.7354 58.1069 40.0709C56.2398 40.2263 54.6026 38.8127 54.4495 36.9137C54.2967 35.0149 55.686 33.3497 57.5528 33.1937C59.2729 33.0502 60.7683 32.7569 62.0707 32.3589C61.3305 31.4159 60.7071 30.4388 60.1899 29.4544C58.9351 27.0668 58.3465 24.7565 58.0672 23.0557C58.0547 22.9799 58.0444 22.9045 58.0331 22.8309H56.9821C55.1086 22.8309 53.5898 21.286 53.5898 19.3804C53.5898 17.4749 55.1086 15.9301 56.9821 15.9301H64.615V12.4797C64.615 10.5741 66.1338 9.0293 68.0074 9.0293ZM64.9389 22.8309C65.1709 23.841 65.5518 25.0177 66.1737 26.2011C66.6207 27.0518 67.2116 27.9443 68.0074 28.799C68.8032 27.9443 69.394 27.0518 69.8411 26.2011C70.4629 25.0177 70.8439 23.8409 71.0759 22.8309H64.9389Z" stroke="black" stroke-width="2.93" stroke-linecap="round" stroke-linejoin="round"/>
</svg>