<?xml version="1.0" encoding="UTF-8"?><svg id="Layer_1" xmlns="http://www.w3.org/2000/svg" viewBox="0 0 128.83 128.83"><defs><style>.cls-1{fill:none;stroke:#000;stroke-linecap:round;stroke-linejoin:round;stroke-width:2.93px;}</style></defs><path class="cls-1" d="M27.1,34.19c10.23,2.5,23.21,4,37.35,4s27.12-1.5,37.35-4"/><path class="cls-1" d="M29.13,60.51c9.77,1.19,22.01,1.9,35.32,1.9s25.56-.71,35.33-1.9"/><g><line class="cls-1" x1="26.71" y1="29.29" x2="32.25" y2="100.94"/><line class="cls-1" x1="102.18" y1="29.29" x2="96.64" y2="100.94"/></g><g><line class="cls-1" x1="36.21" y1="56.72" x2="36.21" y2="43.28"/><line class="cls-1" x1="46.92" y1="56.72" x2="46.92" y2="43.28"/><line class="cls-1" x1="52.78" y1="56.72" x2="52.78" y2="43.28"/><line class="cls-1" x1="60.18" y1="56.72" x2="60.18" y2="43.28"/><line class="cls-1" x1="65.9" y1="56.72" x2="65.9" y2="43.28"/><line class="cls-1" x1="84.7" y1="56.72" x2="84.7" y2="43.28"/><line class="cls-1" x1="92.69" y1="56.72" x2="92.69" y2="43.28"/><line class="cls-1" x1="36.21" y1="50" x2="39.66" y2="50"/><line class="cls-1" x1="36.21" y1="43.28" x2="41.56" y2="43.28"/><line class="cls-1" x1="52.78" y1="43.28" x2="60.18" y2="56.72"/><line class="cls-1" x1="84.7" y1="50" x2="92.69" y2="50"/><path class="cls-1" d="M77.98,46.64c0-1.76-1.42-3.18-3.18-3.18s-3.18,1.42-3.18,3.18,1.42,3.18,3.18,3.18"/><path class="cls-1" d="M71.62,53.17c0,1.76,1.42,3.18,3.18,3.18s3.18-1.42,3.18-3.18-1.42-3.18-3.18-3.18"/></g></svg>