<?xml version="1.0" encoding="UTF-8"?><svg id="Layer_1" xmlns="http://www.w3.org/2000/svg" viewBox="0 0 128.83 128.83"><defs><style>.cls-1{fill:none;stroke:#000;stroke-linecap:round;stroke-linejoin:round;stroke-width:2.93px;}</style></defs><circle class="cls-1" cx="52.64" cy="75.33" r="8.04"/><path class="cls-1" d="M63.85,56.83c-3.36-2.06-7.29-3.18-11.21-3.18-11.77,0-21.49,9.72-21.49,21.49s9.72,21.49,21.49,21.49,21.49-9.72,21.49-21.49c0-3.92-1.12-7.85-3.18-11.21"/><path class="cls-1" d="M69.83,46.74c-5.23-3.18-11.21-4.86-17.19-4.86-18.31,0-33.45,15.14-33.45,33.45s15.14,33.45,33.45,33.45,33.45-15.14,33.45-33.45c0-6.17-1.68-12.33-5.05-17.57"/><line class="cls-1" x1="52.64" y1="75.33" x2="97.11" y2="30.29"/><line class="cls-1" x1="76.74" y1="32.91" x2="81.04" y2="46.55"/><line class="cls-1" x1="92.07" y1="18.15" x2="76.74" y2="32.91"/><line class="cls-1" x1="97.11" y1="30.29" x2="92.07" y2="18.15"/><line class="cls-1" x1="94.68" y1="50.85" x2="81.04" y2="46.55"/><line class="cls-1" x1="109.45" y1="35.71" x2="94.68" y2="50.85"/><line class="cls-1" x1="97.3" y1="30.48" x2="109.45" y2="35.71"/></svg>