<?xml version="1.0" encoding="UTF-8"?><svg id="Layer_1" xmlns="http://www.w3.org/2000/svg" viewBox="0 0 128.83 128.83"><defs><style>.cls-1{fill:none;stroke:#000;stroke-linecap:round;stroke-linejoin:round;stroke-width:2.93px;}</style></defs><path class="cls-1" d="M77.3,92.13L37.09,50.36c-2.73-2.73-2.54-7.03,.2-9.76l.39-.39c2.73-2.73,7.03-2.54,9.76,.2l40.21,41.77c2.73,2.73,2.54,7.03-.2,9.76l-.39,.39c-2.73,2.73-7.03,2.54-9.76-.2Z"/><path class="cls-1" d="M95.06,32.79c-5.86-4.29-11.71,.59-11.71,.59"/><path class="cls-1" d="M100.52,53.68c7.42-7.03,7.03-19.13-.98-25.96-6.05-5.08-15.03-5.27-21.28-.59-5.08,3.71-7.42,9.56-7.03,15.23,.2,3.9-1.37,7.61-4.1,10.35l-4.1,3.9,9.17,9.56,4.1-4.1c2.93-2.73,6.83-3.9,10.74-3.71,4.88,.39,9.76-1.17,13.47-4.68Z"/><path class="cls-1" d="M61.88,76.13l-9.17-9.56-6.05,5.66c-2.54,2.34-2.54,6.44-.2,8.98l.39,.39c2.34,2.54,6.44,2.54,8.98,.2l6.05-5.66Z"/><path class="cls-1" d="M58.75,79.05c2.93,7.03,1.37,15.42-4.29,20.69-7.42,7.03-19.32,6.83-26.35-.39-7.03-7.22-6.83-19.32,.39-26.35,5.47-5.27,13.86-6.83,20.89-3.51"/><path class="cls-1" d="M53.29,83.15c1.17,4.29,0,8.98-3.32,12.3-4.88,4.68-12.69,4.49-17.57-.39-4.88-4.88-4.49-12.69,.39-17.57,3.12-3.12,7.81-4.1,12.1-2.93"/></svg>