<?xml version="1.0" encoding="UTF-8"?><svg id="Layer_1" xmlns="http://www.w3.org/2000/svg" viewBox="0 0 128.83 128.83"><defs><style>.cls-1{fill:none;stroke:#000;stroke-linecap:round;stroke-linejoin:round;stroke-width:2.93px;}</style></defs><circle class="cls-1" cx="95.07" cy="39.45" r="6.26"/><path class="cls-1" d="M109.69,59.76h-10.25s-7.02-12.72-9.3-14.05c-.95-.57-2.09-.95-3.23-.76h-17.27l-7.4,11.77c-.76,1.33-.76,3.04,.38,4.18,1.52,1.71,3.99,1.33,5.12-.57l5.5-8.73h6.64l-7.4,11.96h0l-5.12,7.97h-15.18c-1.52,0-2.85,.95-3.23,2.47-.57,2.09,1.14,4.18,3.23,4.18h16.7c1.33,0,2.47-.76,3.23-1.9l5.69-9.11,1.71,13.1-11.77,9.49c-1.14,.95-1.71,2.66-.95,3.99,.95,2.09,3.42,2.47,5.12,1.14l12.91-10.63c.95-.76,1.52-2.09,1.33-3.42l-2.09-15.56,5.31-8.54,6.07,9.68h14.05c2.09,0,3.8-1.9,3.23-4.18-.19-1.52-1.52-2.47-3.04-2.47Z"/><line class="cls-1" x1="73.25" y1="33.18" x2="33.58" y2="33.18"/><line class="cls-1" x1="55.4" y1="43.81" x2="26.74" y2="43.81"/><line class="cls-1" x1="48.76" y1="54.63" x2="20.48" y2="54.63"/><polyline class="cls-1" points="20.48 85.38 48.76 85.38 48.76 95.44 20.48 95.44"/></svg>