<?xml version="1.0" encoding="UTF-8"?><svg id="Layer_1" xmlns="http://www.w3.org/2000/svg" viewBox="0 0 128.83 128.83"><defs><style>.cls-1{fill:none;stroke:#000;stroke-linecap:round;stroke-linejoin:round;stroke-width:2.93px;}</style></defs><path class="cls-1" d="M61.88,71.25c-3.71-6.83-10.93-11.13-18.54-11.13-11.52,0-21.08,9.56-21.08,21.08s9.56,21.08,21.08,21.08c6.64,0,13.08-3.12,16.98-8.59"/><path class="cls-1" d="M80.22,67.73c-1.95-.78-4.29-1.37-6.64-1.37-4.49,0-8.59,1.76-11.71,4.88"/><path class="cls-1" d="M60.7,93.5c3.12,3.9,8,6.25,12.88,6.25s9.37-2.15,12.3-5.47"/><path class="cls-1" d="M85.88,44.31c0,6.83-6.83,12.3-5.66,23.42"/><path class="cls-1" d="M54.85,78.08c-2.34,9.17-14.44,12.49-21.47,9.17"/><path class="cls-1" d="M67.93,81.59c1.56-3.9,5.86-5.47,9.56-4.68"/><path class="cls-1" d="M96.43,43.14c0,10.74,10.15,22.64,4.68,42.94"/><path class="cls-1" d="M86.08,94.28c1.37,3.32,4.49,5.27,8,5.27,4.68,0,8.59-3.9,8.59-8.59,0-1.76-.59-3.51-1.56-4.88"/><path class="cls-1" d="M75.34,35.72c-.59,.59-.59,1.56-.39,2.34s2.93,5.27,4.49,5.86c1.95,.78,4.49-.39,6.44,.59"/><path class="cls-1" d="M96.43,42.75c1.56-6.05,1.95-8.98,1.37-16.2-4.49-3.32-9.37-4.88-14.44-5.86-3.9,2.54-7.03,5.66-10.74,11.13,1.56,1.76,3.51,3.51,5.47,4.88,.78,.39,1.37,.98,2.34,.98,.78,0,1.76-.39,2.34-.78s1.17-1.17,1.56-1.95c.59-.98,.98-2.15,.39-3.12-.39-.78-1.37-.98-2.34-.78s-1.56,.59-2.34,1.17"/></svg>