<svg viewBox="0 0 65 77" fill="none" xmlns="http://www.w3.org/2000/svg">
<path d="M9.40259 1.46484H55.046L59.015 11.3873H5.43359L9.40259 1.46484Z" stroke="black" stroke-width="2.93" stroke-linecap="round" stroke-linejoin="round"/>
<path d="M5.43359 21.3096H59.015L52.0693 74.891H12.3793L5.43359 21.3096Z" stroke="black" stroke-width="2.93" stroke-linecap="round" stroke-linejoin="round"/>
<path d="M62.9842 11.3867H1.46484V21.3092H62.9842V11.3867Z" stroke="black" stroke-width="2.93" stroke-linecap="round" stroke-linejoin="round"/>
<path d="M7.87988 31.7627H56.5695" stroke="black" stroke-width="2.93" stroke-linecap="round" stroke-linejoin="round"/>
<path d="M11.8486 63.5146H52.6003" stroke="black" stroke-width="2.93" stroke-linecap="round" stroke-linejoin="round"/>
<path d="M23.8637 53.8067C26.3702 57.0639 32.0989 56.8597 36.659 53.3505C41.2192 49.8414 42.8839 44.3561 40.3774 41.0989C37.8708 37.8417 32.1422 38.0459 27.582 41.5551C23.0219 45.0642 21.3571 50.5495 23.8637 53.8067Z" stroke="black" stroke-width="2.93" stroke-linecap="round" stroke-linejoin="round"/>
<path d="M22.8584 49.3258C33.0178 44.5539 33.239 50.6149 41.3281 45.3213" stroke="black" stroke-width="2.93" stroke-linecap="round" stroke-linejoin="round"/>
</svg>