<?xml version="1.0" encoding="UTF-8"?><svg id="Layer_1" xmlns="http://www.w3.org/2000/svg" viewBox="0 0 128.83 128.83"><defs><style>.cls-1{fill:none;stroke:#000;stroke-linecap:round;stroke-linejoin:round;stroke-width:2.93px;}</style></defs><circle class="cls-1" cx="88.18" cy="59" r="15.1"/><polyline class="cls-1" points="81.25 60.18 86.59 64.88 95.1 55.2"/><g><rect class="cls-1" x="18.66" y="91.77" width="63.89" height="10.78"/><path class="cls-1" d="M34.96,80.99h31.29c5.95,0,10.78,4.83,10.78,10.78H24.18c0-5.95,4.83-10.78,10.78-10.78Z"/><path class="cls-1" d="M64.41,40.09c0-7.84-6.54-14.15-14.46-13.79-7.03,.32-12.82,6.12-13.14,13.15-.17,3.66,1.1,7.02,3.27,9.58,2.61,3.07,3.89,7.06,3.89,11.09v20.87h13.25v-20.87c0-4.12,1.46-8.1,4.07-11.29,1.95-2.38,3.11-5.42,3.11-8.73Z"/><line class="cls-1" x1="43.98" y1="53.8" x2="57.23" y2="53.8"/></g><path class="cls-1" d="M90.53,38.23l.95,1.34c.8,1.14,2.3,1.54,3.56,.95l1.49-.69c1.81-.84,3.89,.37,4.07,2.35l.15,1.64c.13,1.38,1.22,2.48,2.61,2.61l1.64,.15c1.98,.18,3.19,2.27,2.35,4.07l-.69,1.49c-.58,1.26-.18,2.76,.95,3.56l1.34,.95c1.63,1.15,1.63,3.56,0,4.7l-1.34,.95c-1.14,.8-1.54,2.3-.95,3.56l.69,1.49c.84,1.81-.37,3.89-2.35,4.07l-1.64,.15c-1.38,.13-2.48,1.22-2.61,2.61l-.15,1.64c-.18,1.98-2.27,3.19-4.07,2.35l-1.49-.69c-1.26-.58-2.76-.18-3.56,.95l-.95,1.34c-1.15,1.63-3.56,1.63-4.7,0l-.95-1.34c-.8-1.14-2.3-1.54-3.56-.95l-1.49,.69c-1.81,.84-3.89-.37-4.07-2.35l-.15-1.64c-.13-1.38-1.22-2.48-2.61-2.61l-1.64-.15c-1.98-.18-3.19-2.27-2.35-4.07l.69-1.49c.58-1.26,.18-2.76-.95-3.56l-1.34-.95c-1.63-1.15-1.63-3.56,0-4.7l1.34-.95c1.14-.8,1.54-2.3,.95-3.56l-.69-1.49c-.84-1.81,.37-3.89,2.35-4.07l1.64-.15c1.38-.13,2.48-1.22,2.61-2.61l.15-1.64c.18-1.98,2.27-3.19,4.07-2.35l1.49,.69c1.26,.58,2.76,.18,3.56-.95l.95-1.34c1.15-1.63,3.56-1.63,4.7,0Z"/></svg>