<?xml version="1.0" encoding="UTF-8"?><svg id="Layer_1" xmlns="http://www.w3.org/2000/svg" viewBox="0 0 128.83 128.83"><defs><style>.cls-1{fill:none;stroke:#000;stroke-linecap:round;stroke-linejoin:round;stroke-width:2.93px;}</style></defs><path class="cls-1" d="M50.09,54.69l11.61,4.87c-1.8,1.42-4.66,2.69-7.49,1.32-2.06-.99-3.79-3.93-4.12-6.2Z"/><path class="cls-1" d="M64.13,76.38c-7.21,1.19-16.85,24.21-8.81,27.32,2.94,.29,3.95-1.33,3.49-8.77,3.23,3.47,4.36,10.4-.77,13.21-6.89,3.78-11.35-3.6-10.82-10.41,.47-6.03,5.03-11.7,2.15-12.94-2.34,7.02-16.96,5.97-11.03,18.63-13.66-8.55,1.54-16.49,4.97-21.35-6.11,3.25-18.72-4.68-16.05,8.69-8.12-8.52-3.57-14.13,3.73-12.9,6.21,1.05,15.31-1.41,15.67-4.68-10.89,4.44-11.18-11.71-21.97-6.02-5.73-12.94,6.52-17.79,13.56-27.89,6.8-9.75,9.8-18.46,23.31-19.87,0,0-5.66,15.37,3.15,17.82"/><path class="cls-1" d="M64.42,46.67c-12.47-.64-19.63,5.45-19.63,5.45,1.07,5.97-4.94,5.97-4.37,13.61,.22,2.95,3.86,5.68,6.23,7.45"/><path class="cls-1" d="M78.74,54.69l-11.61,4.87c1.8,1.42,4.66,2.69,7.49,1.32,2.06-.99,3.79-3.93,4.12-6.2Z"/><path class="cls-1" d="M64.13,76.38c6.69,.29,17.42,24.21,9.39,27.32-2.94,.29-3.95-1.33-3.49-8.77-3.23,3.47-4.36,10.4,.77,13.21,6.89,3.78,11.35-3.6,10.82-10.41-.47-6.03-5.03-11.7-2.15-12.94,2.34,7.02,16.96,5.97,11.03,18.63,13.66-8.55-1.54-16.49-4.97-21.35,6.11,3.25,18.72-4.68,16.05,8.69,8.12-8.52,3.57-14.13-3.73-12.9-6.21,1.05-15.31-1.41-15.67-4.68,10.89,4.44,11.18-11.71,21.97-6.02,5.73-12.94-6.52-17.79-13.56-27.89s-9.8-18.46-23.31-19.87c0,0,5.66,13.66-2.58,17.82"/><path class="cls-1" d="M64.42,46.67c12.47-.64,19.63,5.45,19.63,5.45-1.07,5.97,4.94,5.97,4.37,13.61-.22,2.95-3.86,5.68-6.23,7.45"/><path class="cls-1" d="M55.96,84.88s6.5,6.11,16.57,0"/></svg>