<svg viewBox="0 0 113 94" fill="none" xmlns="http://www.w3.org/2000/svg">
<path d="M83.8209 58.4632L86.7728 50.1594C86.974 49.5934 87.2253 49.0407 87.605 48.5751C89.5289 46.2166 92.5427 45.4238 95.198 46.6679L109.45 53.3471C110.269 53.7303 110.981 52.5833 110.4 51.8159L97.3254 34.5474C96.3539 33.2009 94.9251 31.6812 93.1252 30.8372C90.3439 29.7408 87.7358 29.7304 84.3343 32.2123L74.8906 39.1325" stroke="black" stroke-width="2.93" stroke-linecap="round"/>
<path d="M67.4492 18.7738C64.4725 17.7815 62.488 17.2854 59.0275 20.0593L55.8393 23.1855C52.3178 26.6385 50.3791 32.8866 54.0539 36.6344C57.7288 40.3821 57.5267 43.5801 56.5345 46.0608M72.3026 25.8029C69.9298 35.146 81.8368 53.0063 81.8368 53.0063" stroke="black" stroke-width="2.93" stroke-linecap="round"/>
<path d="M45.6543 91.7383V77.7773" stroke="black" stroke-width="2.93" stroke-linecap="round" stroke-linejoin="round"/>
<path d="M59.5459 91.7383V77.7773" stroke="black" stroke-width="2.93" stroke-linecap="round" stroke-linejoin="round"/>
<path d="M60.0068 85.2608C60.0068 85.2608 69.4332 84.7647 69.9293 92.1996H60.0068" stroke="black" stroke-width="2.93" stroke-linecap="round" stroke-linejoin="round"/>
<path d="M46.1152 85.2608C46.1152 85.2608 55.5416 84.7647 56.0377 92.1996H46.1152" stroke="black" stroke-width="2.93" stroke-linecap="round" stroke-linejoin="round"/>
<path d="M81.8367 53.0059C88.2863 66.4012 75.2673 76.2462 65.5586 76.2462C65.5334 76.2462 65.5082 76.2453 65.4831 76.2452H15.7515C13.4642 76.2452 12.5899 73.2622 14.5151 72.0272L35.6971 57.9671" stroke="black" stroke-width="2.93" stroke-linecap="round" stroke-linejoin="round"/>
<path d="M75.0031 8.92069L76.4397 9.14236L76.6615 7.70558L75.2246 7.48402L75.0031 8.92069ZM73.3151 19.8596L71.8784 19.638L71.5413 21.8233L73.6812 21.2664L73.3151 19.8596ZM81.1426 22.7676L81.5092 24.1743L82.916 23.8077L82.5493 22.4009L81.1426 22.7676ZM70.4876 25.5437V26.9974H70.6738L70.8541 26.9504L70.4876 25.5437ZM67.5283 24.3858L66.4091 25.3133L66.4524 25.3657L66.5005 25.4138L67.5283 24.3858ZM68.2115 13.8965L69.6481 14.1183C70.0272 11.6627 72.3256 9.97873 74.7816 10.3574L75.0031 8.92069L75.2246 7.48402C71.1823 6.86079 67.3989 9.63223 66.7748 13.6747L68.2115 13.8965ZM75.0031 8.92069L73.5664 8.69903L71.8784 19.638L73.3151 19.8596L74.7518 20.0813L76.4397 9.14236L75.0031 8.92069ZM73.3151 19.8596L73.6812 21.2664L75.6696 20.749L75.3035 19.3422L74.9374 17.9355L72.9491 18.4528L73.3151 19.8596ZM75.3035 19.3422L75.6696 20.749C77.4505 20.285 79.2716 21.3529 79.736 23.1343L81.1426 22.7676L82.5493 22.4009C81.68 19.0665 78.2725 17.0665 74.9374 17.9355L75.3035 19.3422ZM81.1426 22.7676L80.7761 21.3609L70.1211 24.1371L70.4876 25.5437L70.8541 26.9504L81.5092 24.1743L81.1426 22.7676ZM70.4876 25.5437V24.0901C69.9634 24.0901 69.6654 24.0497 69.4261 23.9655C69.2056 23.888 68.9358 23.7375 68.5561 23.3578L67.5283 24.3858L66.5005 25.4138C67.1129 26.026 67.7409 26.4545 68.4611 26.7079C69.1625 26.9548 69.8482 26.9974 70.4876 26.9974V25.5437ZM67.5283 24.3858L68.6476 23.4583C68.6031 23.4046 68.5071 23.2325 68.4491 22.9034C68.3942 22.5908 68.394 22.2481 68.4378 21.9639L67.0011 21.7424L65.5646 21.5208C65.4734 22.1123 65.4747 22.7753 65.5859 23.4073C65.6942 24.0228 65.9292 24.7344 66.4091 25.3133L67.5283 24.3858ZM67.0011 21.7424L68.4378 21.9639L69.6481 14.1183L68.2115 13.8965L66.7748 13.6747L65.5646 21.5208L67.0011 21.7424Z" fill="black"/>
<path d="M61.4954 34.65C63.9614 34.65 65.9605 32.6509 65.9605 30.1848C65.9605 27.7188 63.9614 25.7197 61.4954 25.7197C59.0294 25.7197 57.0303 27.7188 57.0303 30.1848C57.0303 32.6509 59.0294 34.65 61.4954 34.65Z" stroke="black" stroke-width="2.93" stroke-linecap="round" stroke-linejoin="round"/>
<path d="M83.2695 5.25265L85.4075 1.46484" stroke="black" stroke-width="2.93" stroke-linecap="round" stroke-linejoin="round"/>
<path d="M87.7812 16.1344L92.8695 16.0391" stroke="black" stroke-width="2.93" stroke-linecap="round" stroke-linejoin="round"/>
<path d="M61.4609 30.2197H61.5309" stroke="black" stroke-width="2.93" stroke-linecap="round" stroke-linejoin="round"/>
<path d="M84.4883 11.3392L91.798 7.11523" stroke="black" stroke-width="2.93" stroke-linecap="round" stroke-linejoin="round"/>
<path d="M23.3134 27.5449C26.7876 26.2559 30.0461 26.2438 34.2957 29.1617L47.2268 38.6314L53.8912 44.0873L55.6683 45.5754C55.671 45.5785 55.7104 45.6224 55.7733 45.6946C58.9208 47.9983 60.9997 51.9719 60.9997 56.4875C60.9996 63.6096 55.8278 69.3834 49.4483 69.3835C45.4255 69.3835 41.883 67.0877 39.8145 63.6059C39.7654 63.5554 39.7184 63.4976 39.6739 63.4315L29.7365 47.8558C28.0775 45.2557 25.0443 44.2533 22.3849 45.4262L2.9161 54.0123C1.89331 54.4629 1.00428 53.1146 1.72899 52.2124L18.0653 31.9072C19.2792 30.3241 21.0637 28.5372 23.3134 27.5449Z" stroke="black" stroke-width="2.93" stroke-linecap="round" stroke-linejoin="round"/>
<path d="M13.1494 40.0059L16.9906 46.4398" stroke="black" stroke-width="2.93" stroke-linecap="round" stroke-linejoin="round"/>
<path d="M101.773 41.4199L98.075 47.8318" stroke="black" stroke-width="2.93" stroke-linecap="round" stroke-linejoin="round"/>
</svg>