<?xml version="1.0" encoding="UTF-8"?><svg id="Layer_1" xmlns="http://www.w3.org/2000/svg" viewBox="0 0 128.83 128.83"><defs><style>.cls-1{fill:none;stroke:#000;stroke-linecap:round;stroke-linejoin:round;stroke-width:2.93px;}</style></defs><path class="cls-1" d="M87.76,83.68h-31.24c-1.42,0-2.58-1.16-2.58-2.59V25.78c0-1.43,1.16-2.58,2.58-2.58h28.66c1.43,0,2.58,1.15,2.58,2.58v57.78"/><rect class="cls-1" x="58.21" y="28.27" width="25.29" height="11.07"/><circle class="cls-1" cx="70.59" cy="55.52" r="10.36"/><line class="cls-1" x1="75.97" y1="46.65" x2="65.21" y2="64.38"/><rect class="cls-1" x="41.78" y="36.29" width="4.56" height="47.27"/><rect class="cls-1" x="31.52" y="36.29" width="4.56" height="47.27"/><line class="cls-1" x1="44.05" y1="36.18" x2="44.05" y2="26.49"/><line class="cls-1" x1="33.8" y1="36.18" x2="33.8" y2="26.49"/><path class="cls-1" d="M33.8,83.67c4.27,14.03,19.96,20.91,33.52,21.85,9.18,.64,20.36-1.54,26.11-9.38,3.76-5.11,5.05-11.97,2.65-17.88s-7.13-9.98-12.6-12.41"/><path class="cls-1" d="M43.94,83.67c6.29,19.8,55.84,17.23,41.44-8.77"/></svg>