<?xml version="1.0" encoding="UTF-8"?><svg id="Layer_1" xmlns="http://www.w3.org/2000/svg" viewBox="0 0 128.83 128.83"><defs><style>.cls-1{fill:none;stroke:#000;stroke-linecap:round;stroke-linejoin:round;stroke-width:2.93px;}</style></defs><ellipse class="cls-1" cx="62.85" cy="47.24" rx="24.2" ry="27.91"/><path class="cls-1" d="M48.99,45.48c0-6.64,3.9-15.03,12.1-17.18"/><polygon class="cls-1" points="63.63 75.15 57.97 83.15 69.1 83.15 63.63 75.15"/><path class="cls-1" d="M52.12,72.61c-3.32,2.34-7.03,3.71-10.93,3.71-11.13,0-20.3-10.54-20.3-23.42s9.17-23.42,20.3-23.42c.78,0,1.56,0,2.34,.2"/><polygon class="cls-1" points="41.77 76.32 37.28 82.96 46.46 82.96 41.77 76.32"/><path class="cls-1" d="M85.49,37.09c1.56-.39,2.93-.78,4.49-.78,9.76,0,17.76,9.17,17.76,20.5s-8,20.5-17.76,20.5c-5.08,0-10.15-2.54-13.47-7.03"/><polygon class="cls-1" points="90.57 77.3 86.47 83.15 94.67 83.15 90.57 77.3"/><path class="cls-1" d="M41.77,82.96c-5.86,10.54,5.27,11.91,0,24.01"/><path class="cls-1" d="M63.63,83.15c-5.86,12.69,5.27,14.44,0,28.69"/><path class="cls-1" d="M90.57,83.74c-5.86,10.54,5.27,11.91,0,24.01"/></svg>