<?xml version="1.0" encoding="UTF-8"?><svg id="Layer_1" xmlns="http://www.w3.org/2000/svg" viewBox="0 0 128.83 128.83"><defs><style>.cls-1{fill:none;stroke:#000;stroke-linecap:round;stroke-linejoin:round;stroke-width:2.93px;}</style></defs><path class="cls-1" d="M76.94,97.96h21.46c2.15,0,3.9-1.76,3.9-3.9V40.53"/><path class="cls-1" d="M80.44,20.86H36.33c-2.15,0-3.9,1.76-3.9,3.9v47.37"/><polyline class="cls-1" points="92.74 51.45 42.96 51.45 42.96 60.27 92.74 60.27 92.74 51.45"/><line class="cls-1" x1="80.44" y1="20.86" x2="102.3" y2="40.53"/><line class="cls-1" x1="32.42" y1="72.13" x2="42.96" y2="72.13"/><line class="cls-1" x1="47.05" y1="80.74" x2="42.96" y2="72.13"/><line class="cls-1" x1="47.05" y1="80.74" x2="57.91" y2="80.74"/><line class="cls-1" x1="62" y1="89.35" x2="57.91" y2="80.74"/><line class="cls-1" x1="62" y1="89.35" x2="72.85" y2="89.35"/><line class="cls-1" x1="76.94" y1="97.96" x2="72.85" y2="89.35"/><g><path class="cls-1" d="M26.53,82.13v21.93c0,2.15,1.76,3.9,3.9,3.9h40.61"/><line class="cls-1" x1="26.53" y1="82.13" x2="37.07" y2="82.13"/><line class="cls-1" x1="41.16" y1="90.74" x2="37.07" y2="82.13"/><line class="cls-1" x1="41.16" y1="90.74" x2="52.01" y2="90.74"/><line class="cls-1" x1="56.1" y1="99.35" x2="52.01" y2="90.74"/><line class="cls-1" x1="56.1" y1="99.35" x2="66.95" y2="99.35"/><line class="cls-1" x1="71.05" y1="107.96" x2="66.95" y2="99.35"/></g><path class="cls-1" d="M102.3,40.53h-18.75c-1.72,0-3.11-1.39-3.11-3.11V20.86"/><g><polyline class="cls-1" points="70.29 34.14 42.96 34.14 42.96 42.95 70.29 42.95"/><line class="cls-1" x1="70.29" y1="34.14" x2="70.29" y2="42.95"/></g><g><polyline class="cls-1" points="92.74 68.76 65.41 68.76 65.41 77.58 92.74 77.58"/><line class="cls-1" x1="92.74" y1="68.76" x2="92.74" y2="77.58"/></g></svg>