<?xml version="1.0" encoding="UTF-8"?><svg id="Layer_1" xmlns="http://www.w3.org/2000/svg" viewBox="0 0 128.83 128.83"><defs><style>.cls-1{fill:none;stroke:#000;stroke-linecap:round;stroke-linejoin:round;stroke-width:2.93px;}</style></defs><g><circle class="cls-1" cx="31.04" cy="59.14" r="7.22"/><g><line class="cls-1" x1="31.04" y1="47.63" x2="31.04" y2="44.5"/><line class="cls-1" x1="31.04" y1="73.59" x2="31.04" y2="70.46"/></g><g><line class="cls-1" x1="42.55" y1="59.14" x2="45.68" y2="59.14"/><line class="cls-1" x1="16.59" y1="59.14" x2="19.71" y2="59.14"/></g><g><line class="cls-1" x1="39.23" y1="67.15" x2="41.38" y2="69.29"/><line class="cls-1" x1="20.89" y1="48.8" x2="23.03" y2="50.95"/></g><g><line class="cls-1" x1="39.23" y1="50.95" x2="41.38" y2="48.8"/><line class="cls-1" x1="20.89" y1="69.29" x2="23.03" y2="67.15"/></g></g><path class="cls-1" d="M16.59,88.42c3.12,2.34,7.81,2.34,11.13,0l2.34-1.56c3.12-2.34,7.81-2.34,11.13,0l2.34,1.56c3.12,2.34,7.81,2.34,11.13,0l2.34-1.56c3.12-2.34,7.81-2.34,11.13,0l2.34,1.56c3.12,2.34,7.81,2.34,11.13,0l2.34-1.56c3.12-2.34,7.81-2.34,11.13,0l2.34,1.56c3.12,2.34,7.81,2.34,11.13,0"/><path class="cls-1" d="M21.67,98.77c2.15,0,4.1-.59,5.86-1.76l2.34-1.56c3.12-2.34,7.81-2.34,11.13,0l2.34,1.56c3.12,2.34,7.81,2.34,11.13,0l2.34-1.56c3.12-2.34,7.81-2.34,11.13,0l2.34,1.56c3.12,2.34,7.81,2.34,11.13,0l2.34-1.56c3.12-2.34,7.81-2.34,11.13,0l2.34,1.56c1.56,1.17,3.51,1.76,5.47,1.76"/><path class="cls-1" d="M27.52,105.99l2.34-1.56c3.12-2.34,7.81-2.34,11.13,0l2.34,1.56c3.12,2.34,7.81,2.34,11.13,0l2.34-1.56c3.12-2.34,7.81-2.34,11.13,0l2.34,1.56c3.12,2.34,7.81,2.34,11.13,0l2.34-1.56c3.12-2.34,7.81-2.34,11.13,0l2.34,1.56"/><path class="cls-1" d="M61.1,84.91c13.08-19.13,32.21-20.5,51.14-16.2"/><path class="cls-1" d="M84.52,67.93s2.93-19.98-7.61-32.67"/><path class="cls-1" d="M92.13,66.76s-.59-26.12-13.48-33.06"/><path class="cls-1" d="M89.2,32.99l-11.71,.78h0c-.2-2.34,4.49-6.83,10.93-7.22s12.1,3.12,12.3,5.47l-11.52,.98Z"/><path class="cls-1" d="M77.49,33.77h0c-1.95-1.37-2.15-7.81,1.76-13.08,3.9-5.08,10.35-7.22,12.3-5.66l-7.03,9.37-3.51,4.68"/><path class="cls-1" d="M73.2,44.7l4.29-10.93h0c-2.15-.98-7.81,2.34-10.15,8.2-2.34,5.86-.59,12.49,1.56,13.47l4.29-10.74Z"/><path class="cls-1" d="M77.49,33.77h0c-.78-2.34-6.83-4.49-12.88-2.34-6.05,2.15-9.95,7.61-9.17,9.95l11.13-3.71,5.19-1.79"/></svg>