<?xml version="1.0" encoding="UTF-8"?><svg id="Layer_1" xmlns="http://www.w3.org/2000/svg" viewBox="0 0 128.83 128.83"><defs><style>.cls-1{fill:none;stroke:#000;stroke-linecap:round;stroke-linejoin:round;stroke-width:2.93px;}</style></defs><path class="cls-1" d="M87.06,72.61c0-18.74-15.23-34.16-34.16-34.16-15.03,0-27.33,12.3-27.33,27.33,0,12.1,9.76,21.86,21.86,21.86,9.56,0,17.37-7.81,17.37-17.37,0-7.61-6.25-13.86-13.86-13.86-6.25,0-11.13,5.08-11.13,11.13,0,4.88,3.9,8.98,8.98,8.98,3.9,0,7.22-3.12,7.22-7.22,0-3.12-2.54-5.66-5.66-5.66"/><path class="cls-1" d="M32.99,82.57l-7.61,10.15c-1.56,2.15,0,5.27,2.73,5.27h58.75c8.59,0,15.62-7.03,15.62-15.62h0v-22.25c0-4.88-4.29-8.59-9.37-7.61-3.71,.78-6.25,4.1-6.25,8v16.01c0,3.32-2.73,5.86-5.86,5.86h-21.28"/><line class="cls-1" x1="89.2" y1="54.85" x2="89.2" y2="36.7"/><circle class="cls-1" cx="89.2" cy="33.77" r="2.93"/><line class="cls-1" x1="100.91" y1="54.85" x2="100.91" y2="36.7"/><circle class="cls-1" cx="100.91" cy="33.77" r="2.93"/></svg>