<?xml version="1.0" encoding="UTF-8"?><svg xmlns="http://www.w3.org/2000/svg" viewBox="0 0 128.83 118.83"><defs><style>.cls-1{fill:none;stroke:#000;stroke-linecap:round;stroke-linejoin:round;stroke-width:2.93px;}</style></defs><polyline class="cls-1" points="62.85 58.77 59.86 70.4 63.77 72.25"/><path class="cls-1" d="M41.23,62.48h18.73c-.67-2.27-4.12-7.1-10.09-7.2-6.71-.12-9.44,6.61-8.65,7.2Z"/><path class="cls-1" d="M43.14,66.59s5.56,3.29,13.59-.1"/><line class="cls-1" x1="42.26" y1="72.67" x2="45.35" y2="76.89"/><path class="cls-1" d="M51.63,85.02s-.93-9.47,8.23-14.62"/><path class="cls-1" d="M54.2,62.48s0,.08,0,.12c.56,3.59-2.03,5.44-4.53,5.44s-4.73-2.16-4.53-5.44c0-.04,0-.08,0-.12"/><line class="cls-1" x1="51.94" y1="80.86" x2="76.23" y2="80.86"/><path class="cls-1" d="M36.6,51.39c2.99-10.53,11.74-12.85,14-15.47,3.33-3.85,8.3-4.94,13.69-4.94"/><path class="cls-1" d="M35.57,61.03c0,6.18-.31,12.97,4.94,17.7,5.6,5.05,10.7,17.5,23.78,15.95"/><path class="cls-1" d="M29.28,66c2.12,1.19,4.36,2.17,6.42,2.01"/><path class="cls-1" d="M52.04,50.13c-.41-5.76-5.76-11.12-5.76-11.12"/><path class="cls-1" d="M59.86,49.82c-.21-7-7-15.75-7-15.75"/><polyline class="cls-1" points="65.74 58.77 68.72 70.4 64.81 72.25"/><path class="cls-1" d="M87.35,62.48h-18.73c.67-2.27,4.12-7.1,10.09-7.2,6.71-.12,9.44,6.61,8.65,7.2Z"/><path class="cls-1" d="M85.03,66.59s-5.56,3.29-13.59-.1"/><line class="cls-1" x1="86.32" y1="72.67" x2="83.23" y2="76.89"/><path class="cls-1" d="M76.95,85.02s.93-9.47-8.23-14.62"/><path class="cls-1" d="M83.43,62.48s0,.08,0,.12c.21,3.28-2.02,5.44-4.53,5.44-2.5,0-5.1-1.85-4.53-5.44,0-.04,0-.08,0-.12"/><path class="cls-1" d="M64.29,30.98c5.39,0,10.36,1.1,13.69,4.94,2.26,2.61,11.01,4.93,14,15.47"/><path class="cls-1" d="M86.59,52.08c3.64-1.38,10.58-.31,17.61-.1,7.71,.23,9.62-4.32,17.51-.31-6.54,6.79-18.96,22.33-29.64,21.1"/><path class="cls-1" d="M121.81,51.67c-9.53-.21-13.76,12.76-28.67,9.37"/><path class="cls-1" d="M41.99,52.08c-3.64-1.38-10.58-.31-17.61-.1-7.71,.23-9.62-4.32-17.51-.31,6.54,6.79,18.96,22.33,29.64,21.1"/><path class="cls-1" d="M6.77,51.67c9.53-.21,13.76,12.76,28.67,9.37"/><path class="cls-1" d="M93.01,61.03c0,6.18,.31,12.97-4.94,17.7-5.6,5.05-10.7,17.5-23.78,15.95"/><path class="cls-1" d="M99.3,66c-2.12,1.19-4.36,2.17-6.42,2.01"/><path class="cls-1" d="M76.54,50.13c.41-5.76,5.76-11.12,5.76-11.12"/><path class="cls-1" d="M68.72,49.82c.21-7,7-15.75,7-15.75"/></svg>