<?xml version="1.0" encoding="UTF-8"?><svg id="Layer_1" xmlns="http://www.w3.org/2000/svg" viewBox="0 0 128.83 128.83"><defs><style>.cls-1{fill:none;stroke:#000;stroke-linecap:round;stroke-linejoin:round;stroke-width:2.93px;}</style></defs><line class="cls-1" x1="84.97" y1="58.68" x2="84.97" y2="24.47"/><line class="cls-1" x1="43.92" y1="58.68" x2="43.92" y2="34.88"/><line class="cls-1" x1="54.97" y1="24.47" x2="84.97" y2="24.47"/><line class="cls-1" x1="54.6" y1="38.3" x2="74.28" y2="38.3"/><line class="cls-1" x1="54.6" y1="46.78" x2="74.28" y2="46.78"/><line class="cls-1" x1="54.6" y1="55.26" x2="74.28" y2="55.26"/><line class="cls-1" x1="54.97" y1="24.47" x2="43.92" y2="34.88"/><line class="cls-1" x1="35.29" y1="64.88" x2="48.76" y2="64.88"/><line class="cls-1" x1="80.12" y1="64.88" x2="93.6" y2="64.88"/><line class="cls-1" x1="63.23" y1="80.85" x2="65.66" y2="80.85"/><line class="cls-1" x1="73.07" y1="80.85" x2="75.5" y2="80.85"/><line class="cls-1" x1="82.9" y1="80.85" x2="85.33" y2="80.85"/><line class="cls-1" x1="43.56" y1="80.85" x2="45.99" y2="80.85"/><line class="cls-1" x1="53.39" y1="80.85" x2="55.83" y2="80.85"/><line class="cls-1" x1="58.31" y1="86.2" x2="60.74" y2="86.2"/><line class="cls-1" x1="68.14" y1="86.2" x2="70.58" y2="86.2"/><line class="cls-1" x1="77.98" y1="86.2" x2="80.41" y2="86.2"/><line class="cls-1" x1="87.82" y1="86.2" x2="90.25" y2="86.2"/><line class="cls-1" x1="38.64" y1="86.2" x2="41.07" y2="86.2"/><line class="cls-1" x1="48.47" y1="86.2" x2="50.9" y2="86.2"/><path class="cls-1" d="M80.12,64.88c0,3.37-7.08,6.15-15.68,6.15s-15.4-2.65-15.67-5.95"/><line class="cls-1" x1="43.92" y1="55.26" x2="35.29" y2="55.26"/><line class="cls-1" x1="93.6" y1="55.26" x2="84.97" y2="55.26"/><line class="cls-1" x1="35.29" y1="75.94" x2="35.29" y2="55.26"/><line class="cls-1" x1="28.37" y1="71.03" x2="28.37" y2="60.69"/><line class="cls-1" x1="93.6" y1="75.94" x2="93.6" y2="55.26"/><rect class="cls-1" x="93.6" y="60.1" width="6.62" height="10.93"/><line class="cls-1" x1="35.29" y1="75.94" x2="93.6" y2="75.94"/><rect class="cls-1" x="24.62" y="91.55" width="79.65" height="11.16"/><line class="cls-1" x1="35.29" y1="75.94" x2="24.62" y2="91.55"/><line class="cls-1" x1="28.37" y1="71.03" x2="23.04" y2="78.84"/><line class="cls-1" x1="93.6" y1="75.94" x2="104.27" y2="91.55"/><line class="cls-1" x1="35.29" y1="60.1" x2="28.37" y2="60.1"/></svg>