<?xml version="1.0" encoding="UTF-8"?><svg id="Layer_1" xmlns="http://www.w3.org/2000/svg" viewBox="0 0 128.83 128.83"><defs><style>.cls-1{fill:none;stroke:#000;stroke-linecap:round;stroke-linejoin:round;stroke-width:2.93px;}</style></defs><path class="cls-1" d="M58.25,65.63h0c-3.9,0-7.06-3.16-7.06-7.06v-9.93l-4.58-6.32c-.8-1.1-.59-2.63,.47-3.48h0c1.11-.89,2.74-.7,3.61,.42l6.14,7.84"/><path class="cls-1" d="M58.86,46.34l-.79-6.74-5.51-6.25c-.85-.96-.74-2.43,.25-3.26h0c.96-.8,2.39-.68,3.2,.27l6.16,7.24,1.91,7.09"/><path class="cls-1" d="M72.91,45.13l4.71-7.32-1.44-8.81c-.22-1.36,.72-2.63,2.08-2.82h0c1.33-.18,2.56,.74,2.75,2.07l1.47,10.08-3.05,8.88"/><path class="cls-1" d="M66.45,44.52l1.03-7.79-4.81-8.25c-.71-1.22-.31-2.78,.91-3.51h0c1.24-.74,2.85-.31,3.56,.95l5.23,9.34,.53,9.86"/><path class="cls-1" d="M54.53,48.47s9.25-6.2,20.5-2.77"/><path class="cls-1" d="M71.89,65.54h4.58c2.01,0,2.82-.5,4.26-1.91l5.11-5.63c1.65-1.6,1.76-4.21,.25-5.94l-3.39-3.91c-1.04-1.2-2.87-1.31-4.05-.24h0c-1.15,1.05-1.24,2.83-.2,3.99l2.54,2.83-3.69,.17c-2.18,.1-4.25,1.02-5.78,2.58l-2.1,2.15"/><line class="cls-1" x1="56" y1="65.47" x2="56" y2="82.56"/><line class="cls-1" x1="66.93" y1="70.3" x2="66.93" y2="80.03"/><line class="cls-1" x1="75.96" y1="65.98" x2="75.96" y2="81.37"/><path class="cls-1" d="M83.14,76.65l4.5-2.67c1.39-.83,3.46-.41,4.12,.82l2.25,4.23c.82,1.55-1.12,3.12-3.25,2.63l-6.74-1.56c-2.04-.47-2.53-2.46-.86-3.45Z"/><path class="cls-1" d="M66.56,101.43h-12.47c-1.81,0-2.72-2.14-1.44-3.4l3.34-3.27c3.21-3.15,8.57-2.58,11.02,1.17l1.41,2.16c.94,1.44-.12,3.34-1.87,3.34Z"/><path class="cls-1" d="M72.13,89.67h8.86c1.29,0,1.93-1.56,1.02-2.47l-2.37-2.37c-2.28-2.28-6.09-1.87-7.83,.85l-1,1.57c-.67,1.05,.08,2.42,1.33,2.42Z"/><path class="cls-1" d="M52.89,96.45h-6.66c-1.61,0-2.4-1.96-1.24-3.08l1.62-1.56c.86-.82,2.13-1.04,3.21-.54l5.17,2.41"/><path class="cls-1" d="M77.03,98.73l.18-1.6c.17-1.48,1.43-2.38,3.12-2.22l4.08,.4c1.41,.14,2.79,1.29,3.16,2.63h0c.39,1.43-.28,2.64-1.64,2.91-1.5,.3-3.5,.71-5.27,1.06s-3.83-1.47-3.64-3.17Z"/><path class="cls-1" d="M43.12,82.19l1.18-1.64c1.09-1.52,3.05-2.14,4.82-1.53l4.28,1.47c1.48,.51,2.3,2.07,1.89,3.58h0c-.44,1.61-1.93,2.71-3.6,2.65-1.85-.07-4.76,.06-6.93-.03-2.15-.08-2.9-2.74-1.64-4.49Z"/><line class="cls-1" x1="100.35" y1="72.84" x2="105.31" y2="72.84"/><line class="cls-1" x1="91.57" y1="93.45" x2="99.77" y2="98.41"/><line class="cls-1" x1="39.87" y1="89.37" x2="30.06" y2="93.91"/><path class="cls-1" d="M55.14,86.37c-.41,2.32,1.56,3,2.88,2.45s2.9-1.84,4.27-1.42c.55,.17,.91,1.19,1.48,1.32,2.18,.49,4.3-2.1,6.4-1.34"/><line class="cls-1" x1="47.31" y1="71.2" x2="39.87" y2="68.48"/></svg>