<?xml version="1.0" encoding="UTF-8"?><svg id="Layer_1" xmlns="http://www.w3.org/2000/svg" viewBox="0 0 128.83 128.83"><defs><style>.cls-1{fill:none;stroke:#000;stroke-linecap:round;stroke-linejoin:round;stroke-width:2.93px;}</style></defs><path class="cls-1" d="M88.58,48.48l13.3-13.16c1.96-1.94,1.97-5.09,.04-7.05h0c-1.94-1.96-5.09-1.97-7.05-.04l-13.3,13.16"/><line class="cls-1" x1="52.43" y1="34.26" x2="81.57" y2="41.39"/><line class="cls-1" x1="70.41" y1="52.44" x2="49.36" y2="37.3"/><line class="cls-1" x1="52.43" y1="34.26" x2="49.36" y2="37.3"/><line class="cls-1" x1="49.26" y1="63.96" x2="60.64" y2="64.08"/><line class="cls-1" x1="70.41" y1="52.44" x2="60.64" y2="64.08"/><line class="cls-1" x1="65.67" y1="80.54" x2="65.67" y2="69.17"/><line class="cls-1" x1="77.42" y1="59.52" x2="65.67" y2="69.17"/><line class="cls-1" x1="95.4" y1="77.69" x2="88.58" y2="48.48"/><line class="cls-1" x1="77.42" y1="59.52" x2="92.33" y2="80.73"/><line class="cls-1" x1="95.4" y1="77.69" x2="92.33" y2="80.73"/><line class="cls-1" x1="49.26" y1="63.96" x2="46.76" y2="66.44"/><line class="cls-1" x1="65.67" y1="80.54" x2="63.17" y2="83.03"/><line class="cls-1" x1="57.47" y1="72.25" x2="46.76" y2="66.44"/><line class="cls-1" x1="57.47" y1="72.25" x2="63.17" y2="83.03"/><line class="cls-1" x1="47.06" y1="82.55" x2="25.99" y2="103.41"/><line class="cls-1" x1="48.36" y1="49" x2="25.31" y2="71.81"/><line class="cls-1" x1="80.89" y1="81.87" x2="57.84" y2="104.68"/><line class="cls-1" x1="59.2" y1="88.28" x2="45.09" y2="102.24"/><line class="cls-1" x1="41.46" y1="70.35" x2="27.35" y2="84.32"/></svg>