<?xml version="1.0" encoding="UTF-8"?><svg id="Layer_1" xmlns="http://www.w3.org/2000/svg" viewBox="0 0 128.83 128.83"><defs><style>.cls-1{fill:none;stroke:#000;stroke-linecap:round;stroke-linejoin:round;stroke-width:2.93px;}</style></defs><path class="cls-1" d="M55.48,54.49c2.06,3.28,3.22,7.09,3.22,11.15s-1.17,7.87-3.22,11.15c-1.55,2.54-3.65,4.74-6.13,6.52-4.14,3.01-9.37,4.8-15.06,4.8-13.49,0-24.41-10.05-24.41-22.47s10.92-22.47,24.41-22.47c5.68,0,10.92,1.8,15.06,4.8"/><path class="cls-1" d="M49.36,65.63c0,4.57-2.42,8.63-6.13,11.15-2.5,1.7-5.58,2.71-8.93,2.71-8.31,0-15.06-6.21-15.06-13.86s6.74-13.86,15.06-13.86c3.35,0,6.43,1.02,8.93,2.71"/><path class="cls-1" d="M49.36,83.3c4.14,3.01,9.37,4.8,15.06,4.8s10.92-1.8,15.06-4.8c2.48-1.78,4.58-3.98,6.13-6.52v-.02c2.06-3.28,3.22-7.09,3.22-11.13s-1.17-7.85-3.22-11.13v-.02"/><path class="cls-1" d="M79.47,47.97c-4.14-3.01-9.37-4.8-15.06-4.8s-10.92,1.8-15.06,4.8c-2.48,1.78-4.58,3.98-6.13,6.52-2.06,3.28-3.22,7.09-3.22,11.15s1.17,7.87,3.22,11.15"/><path class="cls-1" d="M49.36,65.63c0-4.57,2.42-8.63,6.13-11.13v-.02c2.5-1.7,5.58-2.71,8.93-2.71s6.43,1.02,8.93,2.71v.02"/><path class="cls-1" d="M79.47,65.63c0,4.57-2.42,8.63-6.13,11.13v.02c-2.5,1.7-5.58,2.71-8.93,2.71s-6.43-1.02-8.93-2.71v-.02"/><path class="cls-1" d="M73.34,76.78c-2.06-3.28-3.22-7.09-3.22-11.15s1.17-7.87,3.22-11.15c1.55-2.54,3.65-4.74,6.13-6.52,4.14-3.01,9.37-4.8,15.06-4.8,13.49,0,24.41,10.05,24.41,22.47s-10.92,22.47-24.41,22.47c-5.68,0-10.92-1.8-15.06-4.8"/><path class="cls-1" d="M85.6,76.76v.02c2.5,1.7,5.58,2.71,8.93,2.71,8.31,0,15.06-6.21,15.06-13.86s-6.74-13.86-15.06-13.86c-3.35,0-6.43,1.02-8.93,2.71v.02c-3.71,2.5-6.13,6.56-6.13,11.13"/></svg>