<?xml version="1.0" encoding="UTF-8"?><svg id="Layer_1" xmlns="http://www.w3.org/2000/svg" viewBox="0 0 128.83 128.83"><defs><style>.cls-1{fill:none;stroke:#000;stroke-linecap:round;stroke-linejoin:round;stroke-width:2.93px;}</style></defs><path class="cls-1" d="M19.46,69.78c-4.88,2.14-9.76,0-9.76,0"/><path class="cls-1" d="M29.21,69.78c-4.88,2.14-9.76,0-9.76,0"/><line class="cls-1" x1="12.14" y1="59.05" x2="19.46" y2="69.78"/><path class="cls-1" d="M38.97,69.78c-4.88,2.14-9.76,0-9.76,0"/><path class="cls-1" d="M12.14,59.05c4.88-2.14,9.76,0,9.76,0"/><line class="cls-1" x1="21.9" y1="59.05" x2="29.21" y2="69.78"/><path class="cls-1" d="M48.72,69.78c-4.88,2.14-9.76,0-9.76,0"/><path class="cls-1" d="M21.9,59.05c4.88-2.14,9.76,0,9.76,0"/><line class="cls-1" x1="31.65" y1="59.05" x2="38.97" y2="69.78"/><path class="cls-1" d="M31.65,59.05c4.88-2.14,9.76,0,9.76,0"/><line class="cls-1" x1="41.41" y1="59.05" x2="48.72" y2="69.78"/><path class="cls-1" d="M109.37,59.05c4.88-2.14,9.76,0,9.76,0"/><path class="cls-1" d="M99.61,59.05c4.88-2.14,9.76,0,9.76,0"/><line class="cls-1" x1="116.69" y1="69.78" x2="109.37" y2="59.05"/><path class="cls-1" d="M89.86,59.05c4.88-2.14,9.76,0,9.76,0"/><path class="cls-1" d="M116.69,69.78c-4.88,2.14-9.76,0-9.76,0"/><line class="cls-1" x1="106.93" y1="69.78" x2="99.61" y2="59.05"/><path class="cls-1" d="M80.1,59.05c4.88-2.14,9.76,0,9.76,0"/><path class="cls-1" d="M106.93,69.78c-4.88,2.14-9.76,0-9.76,0"/><line class="cls-1" x1="97.18" y1="69.78" x2="89.86" y2="59.05"/><path class="cls-1" d="M97.18,69.78c-4.88,2.14-9.76,0-9.76,0"/><line class="cls-1" x1="87.42" y1="69.78" x2="80.1" y2="59.05"/><line class="cls-1" x1="41.73" y1="58.65" x2="87.42" y2="69.78"/><path class="cls-1" d="M41.41,59.05c0-10.63,12.19-9.41,11.46-16.41"/><path class="cls-1" d="M49.21,60.47s9.15,6.84,12.43,17.4"/><path class="cls-1" d="M79.61,67.88s-9.15-6.84-12.43-17.4"/><path class="cls-1" d="M55.56,53.05c-8.4-1.22-14.15,6-14.15,6"/><path class="cls-1" d="M87.42,69.78c0,10.63-12.19,9.41-11.46,16.41"/><path class="cls-1" d="M73.27,75.78c8.4,1.22,14.15-6,14.15-6"/></svg>