<?xml version="1.0" encoding="UTF-8"?><svg id="Layer_1" xmlns="http://www.w3.org/2000/svg" viewBox="0 0 128.83 128.83"><defs><style>.cls-1{fill:none;stroke:#000;stroke-linecap:round;stroke-linejoin:round;stroke-width:2.93px;}</style></defs><rect class="cls-1" x="31.04" y="22.25" width="66.76" height="8.2"/><rect class="cls-1" x="30.85" y="98.35" width="66.76" height="8.2"/><path class="cls-1" d="M76.71,73.59c-3.12-1.56-5.07-4.88-5.07-8.39v-1.56c0-3.51,1.95-6.64,5.07-8.2,8.98-4.49,15.42-14.05,15.42-24.79H36.7c0,10.74,6.25,20.1,15.42,24.59,3.12,1.56,5.07,4.88,5.07,8.39v1.56c0,3.51-1.95,6.64-5.07,8.2-8.98,4.49-15.42,14.05-15.42,24.79h55.43c-.2-10.74-6.44-20.1-15.42-24.59Z"/><path class="cls-1" d="M67.34,85.69V51.73c5.66-1.37,9.95-6.44,9.95-12.49h-25.77c0,6.05,4.29,11.13,9.95,12.49v33.96c-5.66,1.37-9.95,6.44-9.95,12.49h25.77c0-5.86-4.29-11.13-9.95-12.49Z"/></svg>