<?xml version="1.0" encoding="UTF-8"?><svg id="Layer_1" xmlns="http://www.w3.org/2000/svg" viewBox="0 0 128.83 128.83"><defs><style>.cls-1{fill:none;stroke:#000;stroke-linecap:round;stroke-linejoin:round;stroke-width:2.93px;}</style></defs><line class="cls-1" x1="63.03" y1="22.12" x2="65.8" y2="22.12"/><g><line class="cls-1" x1="56.91" y1="32.09" x2="59.68" y2="32.09"/><line class="cls-1" x1="69.15" y1="32.09" x2="71.92" y2="32.09"/></g><g><line class="cls-1" x1="50.79" y1="42.06" x2="53.56" y2="42.06"/><line class="cls-1" x1="63.03" y1="42.06" x2="65.8" y2="42.06"/></g><line class="cls-1" x1="75.27" y1="42.06" x2="78.04" y2="42.06"/><g><g><line class="cls-1" x1="44.67" y1="52.02" x2="47.44" y2="52.02"/><line class="cls-1" x1="56.91" y1="52.02" x2="59.68" y2="52.02"/></g><line class="cls-1" x1="69.15" y1="52.02" x2="71.92" y2="52.02"/><g><line class="cls-1" x1="69.15" y1="52.02" x2="71.92" y2="52.02"/><line class="cls-1" x1="81.39" y1="52.02" x2="84.16" y2="52.02"/></g><g><line class="cls-1" x1="38.55" y1="61.99" x2="41.32" y2="61.99"/><line class="cls-1" x1="50.79" y1="61.99" x2="53.56" y2="61.99"/></g><line class="cls-1" x1="63.03" y1="61.99" x2="65.8" y2="61.99"/><g><line class="cls-1" x1="63.03" y1="61.99" x2="65.8" y2="61.99"/><line class="cls-1" x1="75.27" y1="61.99" x2="78.04" y2="61.99"/></g><line class="cls-1" x1="87.51" y1="61.99" x2="90.28" y2="61.99"/></g><g><g><line class="cls-1" x1="32.43" y1="71.96" x2="35.2" y2="71.96"/><line class="cls-1" x1="44.67" y1="71.96" x2="47.44" y2="71.96"/></g><line class="cls-1" x1="56.91" y1="71.96" x2="59.68" y2="71.96"/><g><line class="cls-1" x1="56.91" y1="71.96" x2="59.68" y2="71.96"/><line class="cls-1" x1="69.15" y1="71.96" x2="71.92" y2="71.96"/></g><g><line class="cls-1" x1="81.39" y1="71.96" x2="84.16" y2="71.96"/><line class="cls-1" x1="93.63" y1="71.96" x2="96.4" y2="71.96"/></g></g><g><g><line class="cls-1" x1="26.31" y1="81.82" x2="29.09" y2="81.82"/><line class="cls-1" x1="38.55" y1="81.82" x2="41.32" y2="81.82"/></g><line class="cls-1" x1="50.79" y1="81.82" x2="53.56" y2="81.82"/><g><line class="cls-1" x1="50.79" y1="81.82" x2="53.56" y2="81.82"/><line class="cls-1" x1="63.03" y1="81.82" x2="65.8" y2="81.82"/></g><g><line class="cls-1" x1="75.27" y1="81.82" x2="78.04" y2="81.82"/><line class="cls-1" x1="87.51" y1="81.82" x2="90.28" y2="81.82"/></g><g><line class="cls-1" x1="87.51" y1="81.82" x2="90.28" y2="81.82"/><line class="cls-1" x1="99.74" y1="81.82" x2="102.52" y2="81.82"/></g></g><g><g><line class="cls-1" x1="20.19" y1="91.67" x2="22.97" y2="91.67"/><line class="cls-1" x1="32.43" y1="91.67" x2="35.2" y2="91.67"/></g><line class="cls-1" x1="44.67" y1="91.67" x2="47.44" y2="91.67"/><g><line class="cls-1" x1="44.67" y1="91.67" x2="47.44" y2="91.67"/><line class="cls-1" x1="56.91" y1="91.67" x2="59.68" y2="91.67"/></g><g><line class="cls-1" x1="69.15" y1="91.67" x2="71.92" y2="91.67"/><line class="cls-1" x1="81.39" y1="91.67" x2="84.16" y2="91.67"/></g><g><line class="cls-1" x1="81.39" y1="91.67" x2="84.16" y2="91.67"/><line class="cls-1" x1="93.63" y1="91.67" x2="96.4" y2="91.67"/></g><g><line class="cls-1" x1="81.39" y1="91.67" x2="84.16" y2="91.67"/><line class="cls-1" x1="93.63" y1="91.67" x2="96.4" y2="91.67"/></g><g><line class="cls-1" x1="93.63" y1="91.67" x2="96.4" y2="91.67"/><line class="cls-1" x1="105.86" y1="91.67" x2="108.64" y2="91.67"/></g></g></svg>