<svg viewBox="0 0 93 103" fill="none" xmlns="http://www.w3.org/2000/svg">
<path d="M27.9962 74.6171C17.6814 80.9262 17.5459 101.217 17.5459 101.217H52.6968L51.7467 84.1174M36.5464 56.0916C44.1466 55.6166 50.9939 63.9806 51.2775 70.4259" stroke="black" stroke-width="2.93" stroke-linecap="round" stroke-linejoin="round"/>
<path d="M24.1966 15.7158C18.9497 15.7158 14.6963 19.9692 14.6963 25.2161V40.7753C14.6963 48.4474 20.9157 54.6668 28.5878 54.6668H38.8058C46.4779 54.6668 52.6973 48.4474 52.6973 40.7753V22.8411" stroke="black" stroke-width="2.93" stroke-linecap="round" stroke-linejoin="round"/>
<path d="M9.94629 24.265V23.9061C9.94629 16.2341 16.1657 10.0146 23.8378 10.0146H43.556C51.2281 10.0146 57.4475 16.2341 57.4475 23.9061V24.265" stroke="black" stroke-width="2.93" stroke-linecap="round" stroke-linejoin="round"/>
<path d="M63.4119 50.0851C61.9868 53.8852 54.5977 61.7915 47.9476 61.3164M7.57151 12.8652L1.81875 40.3016C1.53784 41.6409 1.34793 43.0135 1.54747 44.3673C2.95259 53.8963 13.8677 61.3164 22.2969 61.3164" stroke="black" stroke-width="2.93" stroke-linecap="round" stroke-linejoin="round"/>
<path d="M26.5247 74.2889C25.3993 75.9037 18.8451 73.2808 16.6928 71.7808C14.5405 70.2808 13.7081 67.7558 14.8335 66.1409C15.959 64.5261 18.6161 64.4331 20.7684 65.933C22.9207 67.433 27.6501 72.6741 26.5247 74.2889Z" stroke="black" stroke-width="2.93" stroke-linecap="round" stroke-linejoin="round"/>
<path d="M24.6291 76.1983C25.0509 78.1209 18.6755 81.1527 16.113 81.7147C13.5504 82.2767 11.1313 81.1738 10.7096 79.2511C10.288 77.3285 12.0234 75.3143 14.586 74.7523C17.1485 74.1903 24.2075 74.2758 24.6291 76.1983Z" stroke="black" stroke-width="2.93" stroke-linecap="round" stroke-linejoin="round"/>
<path d="M44.1465 10.0144C48.4216 1.46424 60.2969 2.41421 60.2969 2.41421C60.2969 2.41421 61.722 14.2895 56.9719 19.0397" stroke="black" stroke-width="2.93" stroke-linecap="round" stroke-linejoin="round"/>
<path d="M23.4475 10.0144C19.1724 1.46424 7.29709 2.41421 7.29709 2.41421C7.29709 2.41421 5.87202 14.2895 10.6221 19.0397" stroke="black" stroke-width="2.93" stroke-linecap="round" stroke-linejoin="round"/>
<path d="M24.1963 15.7158C24.1963 19.3886 27.1737 22.366 30.8464 22.366H52.697" stroke="black" stroke-width="2.93" stroke-linecap="round" stroke-linejoin="round"/>
<path d="M47.947 4.31497C47.947 4.31497 42.7957 1.4316 33.6967 1.46513C24.5976 1.49867 19.4463 4.31497 19.4463 4.31497" stroke="black" stroke-width="2.93" stroke-linecap="round" stroke-linejoin="round"/>
<path d="M57.2051 31.7178H90.9414L81.019 60.493H67.1276L57.2051 31.7178Z" stroke="black" stroke-width="2.93" stroke-linecap="round" stroke-linejoin="round"/>
<path d="M64.1508 31.1315L60.1543 13.6562" stroke="black" stroke-width="2.93" stroke-linecap="round" stroke-linejoin="round"/>
<path d="M68.1191 60.4932H80.0261V63.4699C80.0261 66.7579 77.3606 69.4234 74.0726 69.4234C70.7846 69.4234 68.1191 66.7579 68.1191 63.4699V60.4932Z" stroke="black" stroke-width="2.93" stroke-linecap="round" stroke-linejoin="round"/>
<path d="M74.5342 70.877V100.714" stroke="black" stroke-width="2.93" stroke-linecap="round" stroke-linejoin="round"/>
<path d="M74.5342 33.1709V45.1473" stroke="black" stroke-width="2.93" stroke-linecap="round" stroke-linejoin="round"/>
<path d="M67.127 32.71L70.1037 53.5472" stroke="black" stroke-width="2.93" stroke-linecap="round" stroke-linejoin="round"/>
<path d="M82.0108 32.71L79.0342 53.5472" stroke="black" stroke-width="2.93" stroke-linecap="round" stroke-linejoin="round"/>
<path d="M51.747 95.5179C51.747 95.5179 34.0306 97.296 36.5969 79.9648" stroke="black" stroke-width="2.93" stroke-linecap="round" stroke-linejoin="round"/>
<path d="M56.8278 72.9378L56.3992 74.3268C56.8037 74.4516 57.2426 74.394 57.601 74.1688C57.9595 73.9436 58.202 73.5734 58.2652 73.1549L56.8278 72.9378ZM63.5798 74.4757L62.1905 74.0477C62.0948 74.3588 62.1061 74.6931 62.2229 74.9969L63.5798 74.4757ZM63.6302 74.9233L62.1806 74.8149C62.125 75.5575 62.6396 76.2219 63.3725 76.3539L63.6302 74.9233ZM63.1583 81.8118L63.1 80.3594C62.6678 80.3767 62.2657 80.5856 62.0032 80.9293C61.7405 81.2732 61.6447 81.716 61.7416 82.1375L63.1583 81.8118ZM56.5207 83.8041L57.8817 83.2935C57.673 82.7372 57.1468 82.3639 56.5529 82.3508L56.5207 83.8041ZM23.6728 66.7498L25.1027 67.0118L25.1031 67.0097L23.6728 66.7498ZM31.2436 56.0386V57.4922C33.6699 57.4922 35.7926 58.8133 36.9309 60.7878L38.1902 60.0619L39.4496 59.3358C37.8152 56.5008 34.7546 54.585 31.2436 54.585V56.0386ZM38.1902 60.0619L36.9309 60.7878C37.1719 61.2058 37.5779 62.0479 38.1404 62.6876L39.2319 61.7276L40.3234 60.7676C40.0156 60.4175 39.8668 60.0597 39.4496 59.3358L38.1902 60.0619ZM39.2319 61.7276L38.1404 62.6876C39.3992 64.1186 41.9481 66.3958 45.1485 68.6137C48.3553 70.836 52.3113 73.0653 56.3992 74.3268L56.8278 72.9378L57.2565 71.5488C53.5506 70.4052 49.8675 68.3468 46.8044 66.224C43.7348 64.0968 41.3826 61.9714 40.3234 60.7676L39.2319 61.7276ZM56.8278 72.9378L58.2652 73.1549C58.2773 73.0744 58.2948 72.9924 58.3181 72.9091L56.918 72.5183L55.5178 72.1273C55.4631 72.3234 55.4206 72.5215 55.3905 72.7208L56.8278 72.9378ZM56.918 72.5183L58.3181 72.9091C58.6179 71.8351 59.7318 71.2075 60.8061 71.5074L61.1971 70.1074L61.588 68.7073C58.9676 67.9756 56.2496 69.5066 55.5178 72.1273L56.918 72.5183ZM61.1971 70.1074L60.8061 71.5074C61.8801 71.8074 62.5077 72.9214 62.2078 73.9955L63.6078 74.3865L65.0079 74.7776C65.7396 72.1572 64.2086 69.4391 61.588 68.7073L61.1971 70.1074ZM63.6078 74.3865L62.2078 73.9955C62.2103 73.9865 62.2123 73.9799 62.213 73.9777C62.2136 73.9757 62.2136 73.9757 62.2121 73.9805C62.2113 73.9829 62.2105 73.9854 62.2092 73.9896C62.2079 73.9932 62.2063 73.9984 62.2045 74.0037C62.201 74.0146 62.196 74.0299 62.1905 74.0477L63.5798 74.4757L64.969 74.9036C64.9677 74.9077 64.9681 74.9064 64.969 74.9036C64.9697 74.9016 64.9706 74.8988 64.9718 74.895C64.9729 74.8918 64.9745 74.8869 64.9762 74.8819C64.9822 74.8633 64.9949 74.824 65.0079 74.7776L63.6078 74.3865ZM63.5798 74.4757L62.2229 74.9969C62.1699 74.8591 62.1836 74.7747 62.1806 74.8149L63.6302 74.9233L65.0797 75.0316C65.1023 74.7311 65.0885 74.3493 64.9368 73.9543L63.5798 74.4757ZM63.6302 74.9233L63.3725 76.3539C63.4381 76.3657 63.5014 76.3801 63.5619 76.3971L63.9528 74.9969L64.3439 73.5969C64.1899 73.554 64.0372 73.5195 63.8879 73.4926L63.6302 74.9233ZM63.9528 74.9969L63.5619 76.3971C64.6357 76.697 65.2634 77.8111 64.9635 78.8852L66.3637 79.276L67.7638 79.6669C68.4952 77.0467 66.9642 74.3288 64.3439 73.5969L63.9528 74.9969ZM66.3637 79.276L64.9635 78.8852C64.7227 79.7475 63.9544 80.3252 63.1 80.3594L63.1583 81.8118L63.2165 83.2643C65.2924 83.1812 67.1734 81.7814 67.7638 79.6669L66.3637 79.276ZM63.1583 81.8118L61.7416 82.1375C61.8143 82.4539 61.8119 82.7922 61.7175 83.1302L63.1176 83.5212L64.5176 83.9121C64.746 83.0941 64.7535 82.2627 64.575 81.4862L63.1583 81.8118ZM63.1176 83.5212L61.7175 83.1302C61.4175 84.2043 60.3035 84.8319 59.2294 84.5319L58.8385 85.9321L58.4475 87.332C61.068 88.0633 63.7857 86.5326 64.5176 83.9121L63.1176 83.5212ZM58.8385 85.9321L59.2294 84.5319C58.5859 84.3521 58.1021 83.8809 57.8817 83.2935L56.5207 83.8041L55.1596 84.3147C55.6913 85.7317 56.8713 86.8919 58.4475 87.332L58.8385 85.9321ZM56.5207 83.8041L56.5529 82.3508C52.4446 82.2597 45.8704 81.6948 39.6482 79.3827C33.4343 77.0739 27.7305 73.0886 25.0268 66.2412L23.6747 66.775L22.3227 67.3089C25.4367 75.1956 31.9727 79.6323 38.6356 82.108C45.2902 84.5806 52.23 85.1631 56.4885 85.2574L56.5207 83.8041ZM23.6747 66.775L25.0268 66.2412C25.1447 66.5402 25.1385 66.8162 25.1027 67.0118L23.6728 66.7498L22.2429 66.488C22.2041 66.7 22.1984 66.9943 22.3227 67.3089L23.6747 66.775ZM23.6728 66.7498L25.1031 67.0097C25.1523 66.7387 25.1229 66.4769 25.0441 66.2498L23.6708 66.7266L22.2977 67.2034C22.2239 66.991 22.1962 66.7456 22.2426 66.4899L23.6728 66.7498ZM23.6708 66.7266L25.0441 66.2498C24.8084 65.5706 24.6788 64.8417 24.6788 64.0813H23.2251L21.7715 64.0812C21.7715 65.1744 21.9581 66.2253 22.2977 67.2034L23.6708 66.7266ZM23.2251 64.0813H24.6788C24.6789 60.4382 27.622 57.4924 31.2436 57.4922V56.0386V54.585C26.0082 54.5852 21.7717 58.8408 21.7715 64.0812L23.2251 64.0813Z" fill="black"/>
<path d="M21.4268 34.146L25.1468 31.0459" stroke="black" stroke-width="2.93" stroke-linecap="round" stroke-linejoin="round"/>
<path d="M29.1787 34.1367L25.6779 30.6359" stroke="black" stroke-width="2.93" stroke-linecap="round" stroke-linejoin="round"/>
<path d="M39.2871 34.146L43.0071 31.0459" stroke="black" stroke-width="2.93" stroke-linecap="round" stroke-linejoin="round"/>
<path d="M47.0391 34.1367L43.5382 30.6359" stroke="black" stroke-width="2.93" stroke-linecap="round" stroke-linejoin="round"/>
<path d="M41.4447 40.1621C41.4447 43.8349 38.2546 46.8123 34.3196 46.8123C30.3844 46.8123 27.1943 43.8349 27.1943 40.1621H41.4447Z" stroke="black" stroke-width="2.93" stroke-linecap="round" stroke-linejoin="round"/>
</svg>