<?xml version="1.0" encoding="UTF-8"?><svg id="Layer_1" xmlns="http://www.w3.org/2000/svg" viewBox="0 0 128.83 128.83"><defs><style>.cls-1{fill:none;stroke:#000;stroke-linecap:round;stroke-linejoin:round;stroke-width:2.93px;}</style></defs><path class="cls-1" d="M42.92,45.21h45.84c8.1,0,14.68,6.58,14.68,14.68v25.21H28.25v-25.21c0-8.1,6.58-14.68,14.68-14.68Z"/><path class="cls-1" d="M81.79,45.21h6.97c8.1,0,14.68,6.58,14.68,14.68v25.21h-36.33v-25.21c0-8.1,6.58-14.68,14.68-14.68Z"/><g><rect class="cls-1" x="75.74" y="58.56" width="19.07" height="11.44"/><polygon class="cls-1" points="94.81 58.56 75.74 58.56 85.28 65.82 94.81 58.56"/></g><rect class="cls-1" x="31.92" y="24.5" width="17.71" height="10.49"/><rect class="cls-1" x="62.81" y="85.09" width="6.07" height="26.91"/><line class="cls-1" x1="49.63" y1="34.99" x2="49.63" y2="57.2"/><circle class="cls-1" cx="49.63" cy="62.44" r="5.24"/></svg>