<?xml version="1.0" encoding="UTF-8"?><svg id="Layer_1" xmlns="http://www.w3.org/2000/svg" viewBox="0 0 128.83 128.83"><defs><style>.cls-1{fill:none;stroke:#000;stroke-linecap:round;stroke-linejoin:round;stroke-width:2.93px;}</style></defs><path class="cls-1" d="M42.22,84.61s1.41-47.68,16.06-48.82c3.56-.28,5.65,2.89,6.64,6.11,1.55,5.06,1.44,10.47,1.7,15.73,.23,4.77-.13,19.73,.8,26.99"/><path class="cls-1" d="M67.42,84.61s1.41-47.68,16.06-48.82c3.56-.28,5.65,2.89,6.64,6.11,1.55,5.06-.07,14.52-.43,21.58-.25,4.77-2.65,25.17,16.98,26.03"/><path class="cls-1" d="M43.71,67.87c0-7-.56-30.05-9.43-30.91-4.05-.39-8.54,2.14-12.12,7.94"/><path class="cls-1" d="M72.34,92.79c19.89,3.82,38.62-33.99,28.34-40.4-2.9-1.81-8.74,0-10.65,6.57"/></svg>