<?xml version="1.0" encoding="UTF-8"?><svg id="Layer_1" xmlns="http://www.w3.org/2000/svg" viewBox="0 0 128.83 128.83"><defs><style>.cls-1{fill:none;stroke:#000;stroke-linecap:round;stroke-linejoin:round;stroke-width:2.93px;}</style></defs><line class="cls-1" x1="41.19" y1="69.49" x2="61.68" y2="49.77"/><line class="cls-1" x1="64.61" y1="52.7" x2="80.03" y2="37.67"/><line class="cls-1" x1="74.76" y1="55.43" x2="86.28" y2="44.5"/><line class="cls-1" x1="66.17" y1="63.83" x2="70.85" y2="59.14"/><line class="cls-1" x1="40.6" y1="78.27" x2="45.28" y2="73.78"/><line class="cls-1" x1="54.46" y1="74.95" x2="60.31" y2="69.49"/><line class="cls-1" x1="81.6" y1="39.24" x2="93.31" y2="27.92"/><line class="cls-1" x1="97.02" y1="24.41" x2="100.93" y2="20.51"/><line class="cls-1" x1="84.91" y1="43.14" x2="104.62" y2="24.2"/><line class="cls-1" x1="61.68" y1="49.77" x2="64.61" y2="52.7"/><line class="cls-1" x1="70.85" y1="59.14" x2="73.78" y2="62.27"/><line class="cls-1" x1="80.03" y1="37.67" x2="81.6" y2="39.24"/><line class="cls-1" x1="41.19" y1="69.49" x2="45.28" y2="73.78"/><line class="cls-1" x1="84.91" y1="43.14" x2="86.28" y2="44.5"/><line class="cls-1" x1="100.93" y1="20.51" x2="104.62" y2="24.2"/><line class="cls-1" x1="94.29" y1="21.29" x2="93.31" y2="27.92"/><line class="cls-1" x1="97.02" y1="24.41" x2="94.29" y2="21.29"/><line class="cls-1" x1="74.76" y1="55.43" x2="73.78" y2="62.27"/><line class="cls-1" x1="54.46" y1="74.95" x2="59.73" y2="88.81"/><line class="cls-1" x1="49.58" y1="81" x2="53.29" y2="91.15"/><line class="cls-1" x1="53.29" y1="91.15" x2="59.73" y2="88.81"/><path class="cls-1" d="M66.17,63.83c6.05,6.44,17.57,4.68,17.57,4.68"/><line class="cls-1" x1="85.69" y1="76.91" x2="83.74" y2="68.51"/><path class="cls-1" d="M60.31,69.49c12.49,10.35,25.38,7.61,25.38,7.61"/><line class="cls-1" x1="34.16" y1="107.36" x2="49.58" y2="81"/><line class="cls-1" x1="24.4" y1="101.31" x2="34.16" y2="107.36"/><line class="cls-1" x1="24.4" y1="101.31" x2="40.6" y2="78.27"/></svg>