<?xml version="1.0" encoding="UTF-8"?><svg id="Layer_1" xmlns="http://www.w3.org/2000/svg" viewBox="0 0 128.83 128.83"><defs><style>.cls-1{fill:none;stroke:#000;stroke-linecap:round;stroke-linejoin:round;stroke-width:2.93px;}</style></defs><line class="cls-1" x1="48.99" y1="26.94" x2="48.99" y2="37.87"/><line class="cls-1" x1="89.4" y1="26.94" x2="89.4" y2="101.89"/><line class="cls-1" x1="26.16" y1="101.89" x2="103.45" y2="101.89"/><line class="cls-1" x1="89.4" y1="26.94" x2="48.99" y2="26.94"/><circle class="cls-1" cx="57.78" cy="47.63" r="5.66"/><path class="cls-1" d="M61.1,66.17c1.95,1.37,4.68,.59,6.05-1.37l.78-1.37,6.64-10.54c.78-1.37,.39-3.32-.98-4.1-1.37-.78-3.32-.39-4.1,.98l-6.64,10.54-6.25-3.9-5.66-3.51-7.03-4.49c-1.95-1.37-4.68-.59-6.05,1.37l-4.88,7.81c-.78,1.37-.39,3.32,.98,4.1,1.37,.78,3.32,.39,4.1-.98l4.1-6.44,5.66,3.71-6.25,9.95c-1.17,1.95-.78,4.68,1.17,5.86l-4.29,6.64-8.39-5.27c-1.37-.78-3.32-.39-4.1,.98s-.39,3.32,.98,4.1l9.76,6.25c1.95,1.37,4.68,.59,6.05-1.37l4.68-7.42,8.59,6.83,6.44,9.56c.98,1.37,2.93,1.56,4.1,.59,1.37-.98,1.56-2.93,.59-4.1l-7.03-10.15-9.76-7.81,5.66-9.17,5.07,2.73Z"/><line class="cls-1" x1="42.75" y1="73.78" x2="47.43" y2="77.49"/></svg>