<?xml version="1.0" encoding="UTF-8"?><svg id="Layer_1" xmlns="http://www.w3.org/2000/svg" viewBox="0 0 128.83 128.83"><defs><style>.cls-1{fill:none;stroke:#000;stroke-linecap:round;stroke-linejoin:round;stroke-width:2.93px;}</style></defs><line class="cls-1" x1="53.97" y1="50.35" x2="23.43" y2="63.72"/><line class="cls-1" x1="23.43" y1="63.72" x2="18.44" y2="84.08"/><line class="cls-1" x1="51.2" y1="64.28" x2="53.97" y2="50.35"/><line class="cls-1" x1="67.15" y1="108.23" x2="51.2" y2="64.28"/><line class="cls-1" x1="58.96" y1="58.13" x2="63.75" y2="70.31"/><line class="cls-1" x1="59.36" y1="86.28" x2="63.75" y2="70.31"/><line class="cls-1" x1="80.32" y1="50.35" x2="110.86" y2="63.72"/><line class="cls-1" x1="110.86" y1="63.72" x2="115.85" y2="84.08"/><line class="cls-1" x1="83.1" y1="64.28" x2="80.32" y2="50.35"/><line class="cls-1" x1="67.15" y1="108.23" x2="83.1" y2="64.28"/><line class="cls-1" x1="75.33" y1="58.13" x2="70.54" y2="70.31"/><line class="cls-1" x1="74.93" y1="86.28" x2="70.54" y2="70.31"/><path class="cls-1" d="M76.53,28.62c0-5.47-4.51-9.98-9.98-9.98s-9.98,4.51-9.98,9.98c0,1.1,.18,2.19,.54,3.23"/><line class="cls-1" x1="67.15" y1="48" x2="67.15" y2="42.58"/><path class="cls-1" d="M76.53,28.62c0,10.74-9.38,13.96-9.38,13.96"/><line class="cls-1" x1="63.75" y1="70.31" x2="70.54" y2="70.31"/><circle class="cls-1" cx="67.15" cy="56.18" r="2.76"/></svg>