<?xml version="1.0" encoding="UTF-8"?><svg id="Layer_1" xmlns="http://www.w3.org/2000/svg" viewBox="0 0 128.83 128.83"><defs><style>.cls-1{fill:none;stroke:#000;stroke-linecap:round;stroke-linejoin:round;stroke-width:2.93px;}</style></defs><polygon class="cls-1" points="89.92 33.33 73.52 23.38 67.13 33.91 99.99 53.85 103.97 47.3 89.92 33.33"/><rect class="cls-1" x="65.83" y="37.77" width="12.5" height="10.14" transform="translate(32.68 -31.18) rotate(31.25)"/><path class="cls-1" d="M61.87,42.57l-4.2,6.93-2.19,3.6-4.98,8.2c-.76,1.25-.36,2.88,.89,3.64,1.25,.76,2.88,.36,3.64-.89l4.98-8.2,6.12,3.71-4.98,8.2c-.76,1.25-.36,2.88,.89,3.64,1.25,.76,2.88,.36,3.64-.89l4.98-8.2,1.21,.74,18.87,6.01,3.98-6.55-32.86-19.94Z"/><rect class="cls-1" x="48.86" y="45.25" width="8.65" height="6.61" transform="translate(32.91 -20.54) rotate(31.25)"/><rect class="cls-1" x="62.16" y="23.33" width="8.65" height="6.61" transform="translate(23.46 -30.63) rotate(31.25)"/><polyline class="cls-1" points="62.87 71.73 43.15 104.24 31.75 97.32 51.4 64.95"/><line class="cls-1" x1="52.54" y1="72.16" x2="48.51" y2="69.71"/><line class="cls-1" x1="49.1" y1="77.84" x2="45.06" y2="75.39"/><line class="cls-1" x1="45.65" y1="83.52" x2="41.61" y2="81.07"/><line class="cls-1" x1="42.21" y1="89.2" x2="38.17" y2="86.75"/><line class="cls-1" x1="38.76" y1="94.88" x2="34.72" y2="92.42"/></svg>