<?xml version="1.0" encoding="UTF-8"?><svg id="Layer_1" xmlns="http://www.w3.org/2000/svg" viewBox="0 0 128.83 128.83"><defs><style>.cls-1{fill:none;stroke:#000;stroke-linecap:round;stroke-linejoin:round;stroke-width:2.93px;}</style></defs><path class="cls-1" d="M79.08,54.65c0,9.76-6.52,17.8-14.44,17.8s-14.38-7.95-14.44-17.66"/><path class="cls-1" d="M49.23,73.81c3.88,3.42,9.39,5.56,15.42,5.56s11.52-2.15,15.42-5.58"/><path class="cls-1" d="M43.21,33.97c1.91-10.09,10.79-17.72,21.43-17.72s19.52,7.63,21.43,17.72"/><line class="cls-1" x1="40.3" y1="29.28" x2="88.89" y2="29.28"/><line class="cls-1" x1="38.73" y1="33.98" x2="90.46" y2="33.98"/><line class="cls-1" x1="43.21" y1="33.97" x2="41.99" y2="47.27"/><path class="cls-1" d="M19.9,96.72c0-19.33,20.87-13.74,22.1-49.45"/><line class="cls-1" x1="86.08" y1="33.97" x2="87.29" y2="47.27"/><path class="cls-1" d="M109.39,96.72c0-19.33-20.87-13.74-22.1-49.45"/><path class="cls-1" d="M57.42,42.36c1.99-1.41,4.5-2.24,7.22-2.24s5.25,.84,7.22,2.24"/><path class="cls-1" d="M63.73,62.49c-1.71,3.99-5.81,5.07-8.99,5.07"/><path class="cls-1" d="M74.36,67.56c-3.18,0-7.28-1.08-8.99-5.07"/><line class="cls-1" x1="50.21" y1="40.12" x2="50.21" y2="66.95"/><path class="cls-1" d="M32.86,96.72c11.22-5.49,17.35-21.35,17.35-29.77"/><path class="cls-1" d="M79.08,40.12c-2.62-.32-5.27-.46-7.22,2.24"/><path class="cls-1" d="M57.42,42.36c-1.94-2.7-4.6-2.57-7.22-2.24"/><line class="cls-1" x1="79.08" y1="40.12" x2="79.08" y2="66.95"/><path class="cls-1" d="M96.43,96.72c-11.22-5.49-17.35-21.35-17.35-29.77"/><line class="cls-1" x1="63.73" y1="62.49" x2="65.37" y2="62.49"/></svg>