<?xml version="1.0" encoding="UTF-8"?><svg id="Layer_1" xmlns="http://www.w3.org/2000/svg" viewBox="0 0 128.83 128.83"><defs><style>.cls-1{fill:none;stroke:#000;stroke-linecap:round;stroke-linejoin:round;stroke-width:2.93px;}</style></defs><g><g><circle class="cls-1" cx="58.68" cy="34.6" r="2.65"/><path class="cls-1" d="M64.63,15.08c-8.31,0-15.05,6.74-15.05,15.05,0,2.88,.82,5.56,2.23,7.85-.36,.54-.57,1.15-.57,1.79,0,2.32,2.64,4.2,5.9,4.2,.46,0,.91-.04,1.34-.11,.07,.03,.14,.05,.2,.08v2.67c0,1.72,1.4,3.12,3.12,3.12h2.84"/><path class="cls-1" d="M53.2,42.76v6.96c0,5.66,11.43,5.66,11.43,5.66"/><line class="cls-1" x1="63.31" y1="42.19" x2="64.68" y2="41.1"/><circle class="cls-1" cx="70.59" cy="34.6" r="2.65"/><path class="cls-1" d="M64.63,15.08c8.31,0,15.05,6.74,15.05,15.05,0,2.88-.82,5.56-2.23,7.85,.36,.54,.57,1.15,.57,1.79,0,2.32-2.64,4.2-5.9,4.2-.46,0-.91-.04-1.34-.11-.07,.03-.14,.05-.2,.08v2.67c0,1.72-1.4,3.12-3.12,3.12h-2.84"/><path class="cls-1" d="M64.64,55.38s11.43,0,11.43-5.66v-6.96"/><line class="cls-1" x1="65.95" y1="42.19" x2="64.59" y2="41.1"/></g><g><circle class="cls-1" cx="32.29" cy="69.68" r="5.18"/><path class="cls-1" d="M34.87,74.16v21.26c1.66,.16,2.95,1.54,2.95,3.24,0,1.8-1.46,3.27-3.27,3.27-1.06,0-1.99-.51-2.58-1.3-.6,.79-1.53,1.3-2.59,1.3-1.81,0-3.27-1.47-3.27-3.27,0-1.7,1.3-3.08,2.95-3.24v-21.69"/><rect class="cls-1" x="58.47" y="61.24" width="12.54" height="6.95" rx="3.23" ry="3.23"/><rect class="cls-1" x="58.47" y="94.99" width="12.54" height="6.95" rx="3.23" ry="3.23"/><rect class="cls-1" x="62.02" y="68.19" width="5.44" height="26.8"/><path class="cls-1" d="M58.27,63.55c-2.94,0-6.36-.61-8.76,1.5-1.24,1.09-2.11,2.57-2.84,4.07-1.84,3.78-3.53,7.7-4.32,11.87-1,5.29-.61,10.82-.75,16.19-.1,3.89,4.47,5.91,7.14,3.16,0,0,2.52-3.04,3.62-3.72,2.38-2.18,8.87-1.62,8.87-1.62"/><line class="cls-1" x1="36.87" y1="67.19" x2="47.77" y2="67.19"/><line class="cls-1" x1="35.96" y1="73.54" x2="43.23" y2="77.54"/><path class="cls-1" d="M61.81,73.54s-8.8,.19-14.04-6.36"/><path class="cls-1" d="M61.81,78.74s-12.7,.95-17.6-3.88"/><path class="cls-1" d="M61.81,83.81s-15.97,3.17-19.44-2.82"/><path class="cls-1" d="M61.81,88.73s-14.95,4.59-20.15,.16"/><circle class="cls-1" cx="96.98" cy="69.68" r="5.18"/><path class="cls-1" d="M100.2,73.73v21.69c1.65,.16,2.95,1.54,2.95,3.24s-1.46,3.27-3.27,3.27c-1.06,0-1.99-.51-2.59-1.3-.59,.79-1.52,1.3-2.58,1.3-1.81,0-3.27-1.47-3.27-3.27s1.29-3.08,2.95-3.24v-21.26"/><path class="cls-1" d="M71.06,63.55c2.93,0,6.33-.61,8.73,1.5,1.24,1.09,2.1,2.57,2.83,4.07,1.83,3.78,3.52,7.7,4.3,11.87,.99,5.29,.61,10.82,.74,16.19,.1,3.89-4.45,5.91-7.11,3.16,0,0-2.51-3.04-3.6-3.72-2.37-2.18-8.84-1.62-8.84-1.62"/><line class="cls-1" x1="92.39" y1="67.19" x2="81.5" y2="67.19"/><line class="cls-1" x1="93.3" y1="73.54" x2="86.04" y2="77.54"/><path class="cls-1" d="M67.46,73.54s8.8,.19,14.04-6.36"/><path class="cls-1" d="M67.46,78.74s12.7,.95,17.6-3.88"/><path class="cls-1" d="M67.46,83.81s15.97,3.17,19.44-2.82"/><path class="cls-1" d="M67.46,88.73s14.95,4.59,20.15,.16"/></g></g><line class="cls-1" x1="62.14" y1="61.24" x2="62.14" y2="55.19"/><line class="cls-1" x1="68.21" y1="61.24" x2="68.21" y2="55.19"/></svg>