<?xml version="1.0" encoding="UTF-8"?><svg id="Layer_1" xmlns="http://www.w3.org/2000/svg" viewBox="0 0 128.83 128.83"><defs><style>.cls-1{fill:none;stroke:#000;stroke-linecap:round;stroke-linejoin:round;stroke-width:2.93px;}</style></defs><circle class="cls-1" cx="64.3" cy="26" r="3.63"/><circle class="cls-1" cx="64.3" cy="44.86" r="3.63"/><circle class="cls-1" cx="41.89" cy="44.86" r="3.63"/><path class="cls-1" d="M84.68,41.85c-.97,.65-1.6,1.76-1.6,3.01,0,2.01,1.63,3.63,3.63,3.63s3.63-1.63,3.63-3.63-1.63-3.63-3.63-3.63c-.75,0-1.45,.23-2.03,.62"/><circle class="cls-1" cx="37.62" cy="70.06" r="3.63"/><circle class="cls-1" cx="29.31" cy="94.03" r="3.63"/><circle class="cls-1" cx="22.45" cy="70.06" r="3.63"/><circle class="cls-1" cx="69.57" cy="70.06" r="3.63"/><circle class="cls-1" cx="54.39" cy="70.06" r="3.63"/><circle class="cls-1" cx="106.51" cy="70.06" r="3.63"/><circle class="cls-1" cx="91.33" cy="70.06" r="3.63"/><circle class="cls-1" cx="106.51" cy="94.11" r="3.63"/><circle class="cls-1" cx="91.33" cy="94.11" r="3.63"/><line class="cls-1" x1="64.3" y1="29.63" x2="64.3" y2="41.23"/><line class="cls-1" x1="66.77" y1="28.39" x2="84" y2="42.28"/><line class="cls-1" x1="43.48" y1="41.73" x2="61.05" y2="27.98"/><line class="cls-1" x1="38.23" y1="66.41" x2="41.05" y2="48.7"/><line class="cls-1" x1="23.8" y1="66.78" x2="39.23" y2="47.61"/><line class="cls-1" x1="55.4" y1="66.69" x2="62.75" y2="48.25"/><line class="cls-1" x1="69.57" y1="66.42" x2="65.75" y2="48.34"/><line class="cls-1" x1="91.33" y1="66.42" x2="87.46" y2="48.34"/><line class="cls-1" x1="105.62" y1="66.78" x2="89" y2="47.61"/><line class="cls-1" x1="106.51" y1="73.69" x2="106.51" y2="90.48"/><line class="cls-1" x1="93.18" y1="91.2" x2="104.89" y2="73.5"/><line class="cls-1" x1="31.06" y1="90.84" x2="36.69" y2="73.77"/></svg>