<?xml version="1.0" encoding="UTF-8"?><svg id="Layer_1" xmlns="http://www.w3.org/2000/svg" viewBox="0 0 128.83 128.83"><defs><style>.cls-1{fill:none;stroke:#000;stroke-linecap:round;stroke-linejoin:round;stroke-width:2.93px;}</style></defs><g><path class="cls-1" d="M45.06,43.89c-5.41-3.39-2.67-8.62-5.21-12.06-.45-.61-1.41-.41-1.61,.32-1.92,6.87-11.41,15.64,.71,20.62,3.73-.28,7.69-4.75,6.11-8.88Z"/><line class="cls-1" x1="33.96" y1="76.97" x2="52.97" y2="93.21"/><path class="cls-1" d="M34.24,77.49c-12.21,10.27-9.51,23.59-9.51,23.59"/><line class="cls-1" x1="45.76" y1="76.9" x2="33.96" y2="67.25"/><line class="cls-1" x1="50.53" y1="76.3" x2="55.48" y2="76.3"/><path class="cls-1" d="M45.13,43.94l1.04-.43c1.93-.79,3.99-1.2,6.07-1.2h.73"/><path class="cls-1" d="M60.02,76.9v-2.96c0-1.18-.96-2.14-2.14-2.14h-9.98c-1.18,0-2.14,.96-2.14,2.14v2.96"/><path class="cls-1" d="M36.11,51.5l-.35,.63c-1.18,2.09-1.8,4.45-1.8,6.86v17.99"/><path class="cls-1" d="M60.8,43.89c5.41-3.39,2.67-8.62,5.21-12.06,.45-.61,1.41-.41,1.61,.32,1.92,6.87,11.41,15.64-.71,20.62-3.73-.28-7.69-4.75-6.11-8.88Z"/><line class="cls-1" x1="71.9" y1="76.97" x2="52.89" y2="93.21"/><polyline class="cls-1" points="71.9 63.24 84.68 74.46 78.17 85.34"/><polyline class="cls-1" points="33.8 63.24 21.02 74.46 27.53 85.34"/><path class="cls-1" d="M71.62,77.49c12.21,10.27,9.51,23.59,9.51,23.59"/><line class="cls-1" x1="60.1" y1="76.9" x2="71.9" y2="67.25"/><path class="cls-1" d="M60.73,43.94l-1.04-.43c-1.93-.79-3.99-1.2-6.07-1.2h-.73"/><path class="cls-1" d="M69.75,51.5l.35,.63c1.18,2.09,1.8,4.45,1.8,6.86v17.99"/><line class="cls-1" x1="42.09" y1="59.77" x2="46.66" y2="59.77"/><line class="cls-1" x1="58.44" y1="59.77" x2="63.01" y2="59.77"/></g><line class="cls-1" x1="94.43" y1="27" x2="94.43" y2="104.66"/><path class="cls-1" d="M107.11,35.31v10.78c0,2.99-2.07,5.41-4.62,5.41h-16.01c-2.55,0-4.62-2.42-4.62-5.41v-10.78"/><g><line class="cls-1" x1="78.05" y1="40.94" x2="81.86" y2="35.31"/><line class="cls-1" x1="85.68" y1="40.94" x2="81.86" y2="35.31"/></g><g><line class="cls-1" x1="90.62" y1="32.63" x2="94.43" y2="27"/><line class="cls-1" x1="98.25" y1="32.63" x2="94.43" y2="27"/></g><g><line class="cls-1" x1="103.3" y1="39.24" x2="107.11" y2="33.61"/><line class="cls-1" x1="110.92" y1="39.24" x2="107.11" y2="33.61"/></g></svg>