<?xml version="1.0" encoding="UTF-8"?><svg id="Layer_1" xmlns="http://www.w3.org/2000/svg" viewBox="0 0 128.83 128.83"><defs><style>.cls-1{fill:none;stroke:#000;stroke-linecap:round;stroke-linejoin:round;stroke-width:2.93px;}</style></defs><rect class="cls-1" x="76.64" y="85.87" width="27.71" height="11.8"/><rect class="cls-1" x="48.93" y="85.87" width="27.71" height="11.8"/><rect class="cls-1" x="90.49" y="97.67" width="13.85" height="11.8"/><rect class="cls-1" x="62.78" y="97.67" width="27.71" height="11.8"/><rect class="cls-1" x="90.49" y="74.07" width="13.85" height="11.8"/><rect class="cls-1" x="71.77" y="68.22" width="16.87" height="11.8" transform="translate(56.42 -32.47) rotate(34.68)"/><rect class="cls-1" x="74.32" y="17.8" width="16.87" height="11.8" transform="translate(28.19 -42.87) rotate(34.68)"/><rect class="cls-1" x="29.82" y="23.75" width="27.71" height="11.8" transform="translate(8.84 -10.02) rotate(14.54)"/><rect class="cls-1" x="81.79" y="44.1" width="27.71" height="11.8" transform="translate(-11.42 36.43) rotate(-20.38)"/><rect class="cls-1" x="35.08" y="97.67" width="27.71" height="11.8"/><g><path class="cls-1" d="M50.23,62.27l3.06-2.49-4.54-5.58-3.06,2.49c-4.95-3.57-11.86-3.55-16.82,.48-5.93,4.82-6.82,13.54-2,19.47s13.54,6.82,19.47,2c4.96-4.04,6.38-10.8,3.89-16.37Z"/><line class="cls-1" x1="50.98" y1="56.94" x2="53.68" y2="54.74"/><polygon class="cls-1" points="53.68 54.74 56.35 45.85 58.31 51.55 66.58 43.21 63.57 49.97 75.32 45.11 64.86 52.7 70.93 55.06 60.22 55 60.77 59.69 53.68 54.74"/></g></svg>