<?xml version="1.0" encoding="UTF-8"?><svg id="Layer_1" xmlns="http://www.w3.org/2000/svg" viewBox="0 0 128.83 128.83"><defs><style>.cls-1{fill:none;stroke:#000;stroke-linecap:round;stroke-linejoin:round;stroke-width:2.93px;}</style></defs><path class="cls-1" d="M55.92,84.43l-19.83,11.28c-2.5,1.42-5.67,.55-7.09-1.95L9.16,58.89c-1.42-2.5-.55-5.67,1.95-7.09l21.65-12.32c2.5-1.42,5.67-.55,7.09,1.95l7.19,12.64"/><g><g><line class="cls-1" x1="26.88" y1="64.37" x2="36.9" y2="58.68"/><line class="cls-1" x1="41.42" y1="80.79" x2="36.9" y2="58.68"/></g><line class="cls-1" x1="34.75" y1="70.4" x2="42.89" y2="65.77"/></g><g><path class="cls-1" d="M72.62,84.41l-20.33,.02c-2.87,0-5.2-2.32-5.2-5.19l-.05-40.13c0-2.87,2.32-5.2,5.19-5.2l24.91-.03c2.87,0,5.2,2.32,5.2,5.19l.02,14.18"/><path class="cls-1" d="M54.77,39.48c-.29-1.13-1.7-1.71-2.72-.91-.98,.76-.91,2.3,.03,3.55,.87,1.15,2.64,3.06,2.64,3.06,0,0,1.81-1.89,2.7-3.02,.96-1.23,1.05-2.76,.09-3.54-1.01-.81-2.43-.26-2.74,.86Z"/></g><rect class="cls-1" x="77.06" y="42.34" width="35.3" height="50.52" rx="5.2" ry="5.2" transform="translate(42.99 -36.64) rotate(28.09)"/><path class="cls-1" d="M95.58,44.52l-.11,.05c-.88,.83-3.99,2.35-4.94,2.52l-.06,.03v.07c.38,.89,.84,4.32,.64,5.51l.02,.13,.12-.05c.88-.83,3.99-2.34,4.94-2.52l.06-.03v-.07c-.38-.88-.84-4.32-.64-5.51l-.02-.12Z"/><path class="cls-1" d="M97.77,82.06l-.11,.05c-.88,.83-3.99,2.35-4.94,2.52l-.06,.03v.07c.38,.89,.84,4.32,.64,5.51l.02,.13,.12-.05c.88-.83,3.99-2.34,4.94-2.52l.06-.03v-.07c-.38-.88-.84-4.32-.64-5.51l-.02-.12Z"/><g><g><line class="cls-1" x1="59.67" y1="50.02" x2="71.71" y2="50.01"/><line class="cls-1" x1="64.42" y1="72.43" x2="71.71" y2="50.01"/></g><line class="cls-1" x1="63.71" y1="59.55" x2="73.5" y2="59.54"/></g><g><g><line class="cls-1" x1="94.12" y1="57.85" x2="104.74" y2="63.52"/><line class="cls-1" x1="87.73" y1="79.85" x2="104.74" y2="63.52"/></g><line class="cls-1" x1="93.19" y1="68.16" x2="101.82" y2="72.77"/></g><path class="cls-1" d="M19.59,55.97c-1.36-.56-3.25-.92-4.02-1.46l-.09-.03-.02,.09c.1,.93-.51,2.75-.69,4.21-.17,1.34,.32,2.79,1.65,3.03,.89,.16,1.87-.47,2.12-1.34,.47,.91,.45,2.06,.61,2.92l2.32-1.34c-.68-.56-1.69-1.12-2.27-1.97,.89,.2,1.92-.34,2.21-1.2,.44-1.28-.59-2.41-1.84-2.92Z"/></svg>