<svg xmlns="http://www.w3.org/2000/svg" viewBox="0 0 512 512"><path fill-rule="evenodd" d="M401 324v129c0 26-20 48-45 48H148c-25 0-45-22-45-48v-43c-37-2-65-14-77-36-11-19-8-42 7-67 14-24 38-49 70-73v-58c0-26 20-48 45-48h3V42a31 31 0 0 1 30-31h142a31 31 0 0 1 30 31v86h3a42 42 0 0 1 17 4c28-2 52 1 71 6 40 13 59 42 43 82-7 17-20 36-38 54 3 5 5 9 3 15a14 14 0 0 1-6 8l-45 27zm-298 74V249c-27 22-48 44-60 64-12 21-15 40-6 55 9 18 33 28 66 30zm286-254a49 49 0 0 1 12 32v90c9-6 27-5 38 0 18-17 30-34 37-50 13-34-2-56-36-66-14-4-31-7-51-6zm48 135a6 6 0 0 1-1-1c-3-2-7-3-12-3-7-1-14-1-18 1l-42 26-42 25a6 6 0 0 1 0 1l-41 24a13 13 0 0 1-14-1l-31-23-18 11 41 46a8 8 0 0 0 10 2l65-38-2-8a6 6 0 0 1 3-6l51-29a6 6 0 0 1 9 6v1l45-26a2 2 0 0 0 0-3l-2-4a6 6 0 0 0-1-1zM115 399c20 0 41-1 64-5V189a6 6 0 1 1 12 0v202l47-12-32-35a9 9 0 0 1 2-14l24-13a9 9 0 0 1 10 0l4 3V189a6 6 0 1 1 12 0v140l16 13h1l34-20-40-34a6 6 0 0 1 1-10l25-15a6 6 0 0 1 6 0l12 5v-79a6 6 0 1 1 12 0v85l36 16 27-17v-97c0-19-14-36-32-36H148c-18 0-33 17-33 36v223zm131-9a515 515 0 0 1-55 14v36a6 6 0 0 1-12 0v-34c-23 4-44 5-64 5v42c0 19 15 36 33 36h208c18 0 32-17 32-36v-88l-4 41a6 6 0 0 1-4 5l-25 14a6 6 0 0 1-9-4l-10-59-11 6v72a6 6 0 0 1-12 0v-65l-38 22a20 20 0 0 1-17 2v41a6 6 0 0 1-12 0zm37-106 36 31 29-17-49-23zm63 67 10 60 16-9 9-79-36 20 1 8zM163 128h14V48a12 12 0 0 1 12-12h126a12 12 0 0 1 12 12v80h14V42a19 19 0 0 0-18-19H181a19 19 0 0 0-18 19v86zm26 0h126V48H189v80zm-21 331a15 15 0 0 1-15-15 6 6 0 1 0-12 0 27 27 0 0 0 27 27 6 6 0 1 0 0-12z"/></svg>