<?xml version="1.0" encoding="UTF-8"?><svg id="Layer_1" xmlns="http://www.w3.org/2000/svg" viewBox="0 0 128.83 128.83"><defs><style>.cls-1{fill:none;stroke:#000;stroke-linecap:round;stroke-linejoin:round;stroke-width:2.93px;}</style></defs><g><path class="cls-1" d="M55.43,72.22H19.91c0-16.2,16.01-29.67,35.53-29.67s35.53,13.47,35.53,29.67H55.43Z"/><polyline class="cls-1" points="36.31 47.63 45.87 58.17 65 58.17 74.76 47.63"/><line class="cls-1" x1="45.87" y1="58.17" x2="38.84" y2="72.22"/><line class="cls-1" x1="65" y1="58.17" x2="72.22" y2="72.22"/><path class="cls-1" d="M27.33,72.22l-3.9,5.27c-1.76,2.34,0,5.47,2.73,5.47h7.61v5.08c0,2.73,2.34,5.08,5.08,5.08s5.08-2.34,5.08-5.08v-5.08h36.89v5.08c0,2.73,2.34,5.08,5.08,5.08s5.08-2.34,5.08-5.08v-5.47c7.03-1.76,12.49-8,12.49-15.62v-12.88c3.51-1.76,6.05-5.47,6.05-9.76,0-6.05-4.88-11.13-11.13-11.13s-11.13,4.88-11.13,11.13v14.83"/></g><line class="cls-1" x1="100.13" y1="42.55" x2="100.13" y2="42.94"/></svg>