<?xml version="1.0" encoding="UTF-8"?><svg id="Layer_1" xmlns="http://www.w3.org/2000/svg" viewBox="0 0 128.83 128.83"><defs><style>.cls-1{fill:none;stroke:#000;stroke-linecap:round;stroke-linejoin:round;stroke-width:2.93px;}</style></defs><circle class="cls-1" cx="64.41" cy="64.41" r="44"/><path class="cls-1" d="M36.93,62.7c-1.51-4.93,.37-10.77,4.27-14.1,2.91-2.48,7.05-3.79,10.78-2.83,1.17,.3,2.29,.79,3.3,1.46,4.13,2.73,5.83,7.87,3.89,12.44-2.16,5.11-9.05,8.03-13.65,4.13-2.09-1.77-3.11-4.68-2.53-7.36,.75-3.44,4.23-6.57,7.89-5.66,2.44,.61,4.54,3.03,4.16,5.61-.35,2.38-2.52,4.31-4.94,4.3-.85,0-1.73-.24-2.35-.82-1.71-1.58-.15-4.54,2.08-4.26"/><path class="cls-1" d="M92.65,48.88c1.51,4.93-.37,10.77-4.27,14.1-2.91,2.48-7.05,3.79-10.78,2.83-1.17-.3-2.29-.79-3.3-1.46-4.13-2.73-5.83-7.87-3.89-12.44,2.16-5.11,9.05-8.03,13.65-4.13,2.09,1.77,3.11,4.68,2.53,7.36-.75,3.44-4.23,6.57-7.89,5.66-2.44-.61-4.54-3.03-4.16-5.61,.35-2.38,2.52-4.31,4.94-4.3,.85,0,1.73,.24,2.35,.82,1.71,1.58,.15,4.54-2.08,4.26"/><polyline class="cls-1" points="42.2 79.85 50.25 85.82 59.67 79.55 69.59 85.62 77.91 79.24 86.63 84.81"/></svg>