<?xml version="1.0" encoding="UTF-8"?><svg id="Layer_1" xmlns="http://www.w3.org/2000/svg" viewBox="0 0 128.83 128.83"><defs><style>.cls-1{fill:none;stroke:#000;stroke-linecap:round;stroke-linejoin:round;stroke-width:2.66px;}</style></defs><path class="cls-1" d="M73.26,72.07l13.69-15.03-16.8,11.44c-3.24-2.14-7.62-1.98-10.7,.69-3.7,3.21-4.09,8.81-.88,12.51s8.81,4.09,12.51,.88c3.08-2.67,3.86-6.99,2.19-10.5Z"/><path class="cls-1" d="M112.37,76.85c0-26.49-21.47-47.96-47.96-47.96S16.46,50.36,16.46,76.85"/><line class="cls-1" x1="64.42" y1="28.89" x2="64.42" y2="39.05"/><line class="cls-1" x1="102.22" y1="76.85" x2="112.37" y2="76.85"/><line class="cls-1" x1="26.61" y1="76.85" x2="16.46" y2="76.85"/><line class="cls-1" x1="98.33" y1="42.94" x2="91.14" y2="50.12"/><line class="cls-1" x1="37.69" y1="50.12" x2="30.5" y2="42.94"/><line class="cls-1" x1="82.6" y1="32.47" x2="78.75" y2="41.87"/><line class="cls-1" x1="29.44" y1="62.52" x2="20.04" y2="58.66"/><line class="cls-1" x1="108.66" y1="58.33" x2="99.28" y2="62.26"/><line class="cls-1" x1="49.82" y1="41.98" x2="45.9" y2="32.61"/><line class="cls-1" x1="90.66" y1="36.71" x2="85.1" y2="45.21"/><line class="cls-1" x1="32.78" y1="56.17" x2="24.27" y2="50.61"/><line class="cls-1" x1="111.36" y1="67.02" x2="101.41" y2="69.11"/><line class="cls-1" x1="56.67" y1="39.85" x2="54.59" y2="29.91"/><line class="cls-1" x1="74.08" y1="29.87" x2="72.03" y2="39.83"/><line class="cls-1" x1="27.39" y1="69.24" x2="17.44" y2="67.19"/><line class="cls-1" x1="104.46" y1="50.46" x2="95.98" y2="56.05"/><line class="cls-1" x1="43.62" y1="45.29" x2="38.03" y2="36.8"/><rect class="cls-1" x="45.88" y="91.98" width="37.07" height="7.95"/></svg>