<?xml version="1.0" encoding="UTF-8"?><svg id="Layer_1" xmlns="http://www.w3.org/2000/svg" viewBox="0 0 128.83 128.83"><defs><style>.cls-1{stroke-width:2.93px;}.cls-1,.cls-2{fill:none;stroke:#000;stroke-linecap:round;stroke-linejoin:round;}.cls-2{stroke-width:2.92px;}</style></defs><path class="cls-1" d="M68.55,49.67c8.54,.77,15.69,4.58,19.13,9.79,1.4,2.13,2.19,4.5,2.19,6.99,0,.64-.06,1.28-.16,1.9,4.21,.11,7.59,2.82,7.59,6.15,0,1.7-.88,3.24-2.3,4.36-1.42,1.11-3.39,1.8-5.56,1.8H39.52c-4.34,0-7.86-2.76-7.86-6.16s3.52-6.17,7.86-6.17h1.4c-.1-.62-.15-1.25-.15-1.89,0-2.37,.7-4.62,1.98-6.67,3.12-5.02,9.65-8.78,17.58-9.91"/><g><polygon class="cls-1" points="82.52 110.81 46.43 110.81 38.74 80.67 90.21 80.67 82.52 110.81"/><polyline class="cls-1" points="64.53 80.67 64.84 110.76 64.84 110.82"/><line class="cls-1" x1="77.42" y1="80.83" x2="73.89" y2="110.82"/><line class="cls-1" x1="55.38" y1="110.82" x2="51.63" y2="80.96"/></g><g><path class="cls-1" d="M68.55,38.45v15.52c-1.06-.1-2.14-.15-3.24-.15-1.71,0-3.37,.12-4.98,.34v-15.72h8.22Z"/><path class="cls-1" d="M69.36,28.53c0-2.7-2.52-9.33-7.18-10.51,2.44,5.85-2.74,6.66-2.59,10.51,0,2.7,2.19,4.89,4.89,4.89s4.89-2.19,4.89-4.89Z"/><line class="cls-1" x1="64.63" y1="33.79" x2="64.63" y2="38.38"/></g><line class="cls-2" x1="52.24" y1="59.22" x2="56.23" y2="61.94"/><line class="cls-2" x1="67.49" y1="71.2" x2="69.49" y2="67.39"/><line class="cls-2" x1="77.12" y1="60.31" x2="81.12" y2="64.12"/><line class="cls-2" x1="64.41" y1="61.94" x2="65.86" y2="60.67"/><line class="cls-2" x1="55.37" y1="68.66" x2="60.41" y2="70.3"/><line class="cls-2" x1="47.61" y1="73.97" x2="47.88" y2="69.07"/><line class="cls-2" x1="76.08" y1="69.07" x2="79.48" y2="72.88"/></svg>