<?xml version="1.0" encoding="UTF-8"?><svg id="Layer_1" xmlns="http://www.w3.org/2000/svg" viewBox="0 0 128.83 128.83"><defs><style>.cls-1{fill:none;stroke:#000;stroke-linecap:round;stroke-linejoin:round;stroke-width:2.93px;}</style></defs><path class="cls-1" d="M88.6,42.08c-5.56,0-10.88,2.05-14.99,5.76l-.02,.02-.03,.03h-.02v.02c-2.31,2.05-5.39,5.18-8.68,8.53-3.66-3.7-7.11-7.01-9.72-8.91-4.09-3.59-9.32-5.57-14.78-5.57-12.35,0-22.39,10.04-22.39,22.39s10.04,22.39,22.39,22.39c6,0,10.71-2.86,14.66-5.54,2.74-1.86,6.13-4.93,9.75-8.45,3.73,3.82,6.91,6.96,9.07,8.5,3.9,2.78,8.71,5.61,14.77,5.61,12.35,0,22.39-10.04,22.39-22.39s-10.04-22.39-22.39-22.39Zm-40.01,29.65c-3.33,2.26-5.74,3.57-8.24,3.57-6.04,0-10.95-4.91-10.95-10.95s4.91-10.95,10.95-10.95c2.69,0,5.38,1.04,7.36,2.84,.01,.01,.03,.02,.04,.04,.07,.07,.15,.13,.23,.19,.08,.06,.15,.12,.23,.18,.02,.01,.03,.02,.05,.04,1.97,1.39,5.14,4.45,8.51,7.86-3.15,3.07-6.13,5.79-8.19,7.19Zm40.01,3.69c-2.29,0-4.64-1.01-8.14-3.5-1.43-1.02-4.47-4.05-7.63-7.29,3.24-3.3,6.29-6.4,8.35-8.24l.02-.02,.03-.02c1.98-1.81,4.67-2.84,7.36-2.84,6.04,0,10.95,4.91,10.95,10.95s-4.91,10.95-10.95,10.95Z"/><polyline class="cls-1" points="42.92 53.72 40.56 47.13 47.05 42.99"/><polyline class="cls-1" points="42.28 75.05 47.93 79.22 45.75 85.96"/><polyline class="cls-1" points="18.01 62.94 23.94 68.21 29.41 64.51"/><polyline class="cls-1" points="82.25 42.99 88.75 47.13 86.39 53.72"/><polyline class="cls-1" points="82.73 85.96 80.55 79.22 86.2 75.05"/><polyline class="cls-1" points="99.53 65.81 105.01 69.51 110.93 64.24"/><line class="cls-1" x1="64.76" y1="72.75" x2="56.5" y2="64.24"/><line class="cls-1" x1="64.84" y1="56.37" x2="72.84" y2="64.64"/></svg>