<?xml version="1.0" encoding="UTF-8"?><svg id="Layer_1" xmlns="http://www.w3.org/2000/svg" viewBox="0 0 128.83 128.83"><defs><style>.cls-1{fill:none;stroke:#000;stroke-linecap:round;stroke-linejoin:round;stroke-width:2.93px;}</style></defs><rect class="cls-1" x="41.56" y="45.64" width="12.64" height="25.56"/><path class="cls-1" d="M74.71,48.16l2.81-13.2c0-2.25-1.69-4.21-4.21-4.21h0c-2.25,0-9.83,17.41-14.04,17.41h-5.06v19.94h28.93c2.25,0,3.93-1.69,3.93-3.93v-11.8c0-2.25-1.69-3.93-3.93-3.93h-8.43v-.28Z"/><circle class="cls-1" cx="64.32" cy="54.65" r="37.67"/><polyline class="cls-1" points="54.36 90.96 44.6 111.85 40.31 100.33 28.79 104.62 39.14 82.76"/><polyline class="cls-1" points="75.05 90.76 84.81 111.85 88.91 100.33 100.43 104.62 90.08 82.18"/></svg>