<?xml version="1.0" encoding="UTF-8"?><svg id="Layer_1" xmlns="http://www.w3.org/2000/svg" viewBox="0 0 128.83 128.83"><defs><style>.cls-1{fill:none;stroke:#000;stroke-linecap:round;stroke-linejoin:round;stroke-width:2.93px;}</style></defs><rect class="cls-1" x="48.41" y="49.58" width="8.78" height="17.76"/><path class="cls-1" d="M71.44,51.34l1.95-9.17c0-1.56-1.17-2.93-2.93-2.93h0c-1.56,0-6.83,12.1-9.76,12.1h-3.51v13.86h20.1c1.56,0,2.73-1.17,2.73-2.73v-8.2c0-1.56-1.17-2.73-2.73-2.73h-5.86v-.2Z"/><circle class="cls-1" cx="64.41" cy="54.65" r="28.3" transform="translate(.15 109.48) rotate(-80.78)"/><circle class="cls-1" cx="64.41" cy="54.65" r="37.67"/><polyline class="cls-1" points="54.46 90.96 44.7 111.85 40.4 100.33 28.89 104.62 39.23 82.76"/><polyline class="cls-1" points="75.15 90.76 84.91 111.85 89.01 100.33 100.52 104.62 90.18 82.18"/></svg>