<?xml version="1.0" encoding="UTF-8"?><svg id="Layer_1" xmlns="http://www.w3.org/2000/svg" viewBox="0 0 128.83 128.83"><defs><style>.cls-1{fill:none;stroke:#000;stroke-linecap:round;stroke-linejoin:round;stroke-width:2.93px;}</style></defs><g><path class="cls-1" d="M44.61,85.41l-.21-40.76s1.14-16.93-7.26-17.07h49.96c4.7,0,8.51,3.81,8.51,8.51v49.32H57.1"/><path class="cls-1" d="M57.1,85.41h39.01c4.37,0,7.92,3.55,7.92,7.92h0c0,4.37-3.55,7.92-7.92,7.92H54.32c-5.36,0-9.71-4.35-9.71-9.71v-6.13"/><path class="cls-1" d="M37.14,27.58c-9.25,0-12.21,3.82-12.21,8.54h0c0,4.71,3.82,8.54,8.54,8.54h10.93"/><path class="cls-1" d="M28.71,43.13c6.22,1.62,7.69-4.56,6.19-7.45h8.78"/><path class="cls-1" d="M52.37,93.17c.85-20.91,21.01,7.03,.03,7.85"/><line class="cls-1" x1="52.37" y1="93.17" x2="61.19" y2="93.17"/><line class="cls-1" x1="56.14" y1="40.67" x2="83.45" y2="40.67"/><line class="cls-1" x1="56.14" y1="51.55" x2="83.45" y2="51.55"/><line class="cls-1" x1="56.14" y1="62.44" x2="83.45" y2="62.44"/><line class="cls-1" x1="56.14" y1="73.32" x2="83.45" y2="73.32"/></g><line class="cls-1" x1="90.4" y1="57.76" x2="95.62" y2="57.76"/><line class="cls-1" x1="49.26" y1="67.75" x2="44.72" y2="67.75"/><line class="cls-1" x1="90.8" y1="47.77" x2="95.56" y2="47.77"/></svg>