<?xml version="1.0" encoding="UTF-8"?><svg id="Layer_1" xmlns="http://www.w3.org/2000/svg" viewBox="0 0 128.83 128.83"><defs><style>.cls-1{fill:none;stroke:#000;stroke-linecap:round;stroke-linejoin:round;stroke-width:2.93px;}</style></defs><line class="cls-1" x1="50.16" y1="77.43" x2="34.16" y2="77.43"/><polyline class="cls-1" points="82.96 62.98 98.96 62.98 98.96 53.81 34.16 53.81 34.16 77.43"/><polygon class="cls-1" points="98.96 102.61 52.7 102.61 44.7 102.61 34.16 102.61 34.16 92.85 98.96 92.85 98.96 102.61"/><path class="cls-1" d="M40.4,77.43c7.03,9.37,0,15.42,0,15.42"/><path class="cls-1" d="M90.76,62.98c-16.2,17.96,0,29.86,0,29.86"/><path class="cls-1" d="M34.16,73.52l-18.74-10.54c-2.73-1.56-1.37-5.27,1.95-5.27h16.79v15.81Z"/><polygon class="cls-1" points="73 15.55 60.31 19.65 60.31 40.92 73 40.92 73 15.55"/><line class="cls-1" x1="56.22" y1="28.24" x2="60.31" y2="28.24"/><line class="cls-1" x1="73" y1="28.24" x2="102.87" y2="28.24"/><line class="cls-1" x1="38.84" y1="49.9" x2="30.84" y2="41.12"/><line class="cls-1" x1="40.8" y1="44.05" x2="30.84" y2="41.12"/><line class="cls-1" x1="38.65" y1="35.65" x2="40.8" y2="44.05"/><line class="cls-1" x1="45.09" y1="41.31" x2="38.65" y2="35.65"/><line class="cls-1" x1="78.86" y1="46.19" x2="85.3" y2="38.58"/><line class="cls-1" x1="86.86" y1="45.02" x2="85.3" y2="38.58"/><line class="cls-1" x1="95.45" y1="39.36" x2="86.86" y2="45.02"/><line class="cls-1" x1="92.52" y1="49.71" x2="95.45" y2="39.36"/><line class="cls-1" x1="46.46" y1="32.92" x2="45.09" y2="41.31"/><line class="cls-1" x1="53.29" y1="45.61" x2="46.46" y2="32.92"/></svg>