<?xml version="1.0" encoding="UTF-8"?><svg id="Layer_1" xmlns="http://www.w3.org/2000/svg" viewBox="0 0 128.83 128.83"><defs><style>.cls-1{fill:none;stroke:#000;stroke-linecap:round;stroke-linejoin:round;stroke-width:2.93px;}</style></defs><path class="cls-1" d="M53.48,82.2c4.55-.83,9.56-2.3,10.81-3.6"/><path class="cls-1" d="M53.48,82.2c-1.62,7.46,8.51,7.81,10.81,4.67"/><path class="cls-1" d="M64.29,78.59c1.25,1.3,6.26,2.77,10.81,3.6"/><path class="cls-1" d="M64.29,86.87c2.3,3.14,12.43,2.79,10.81-4.67"/><g><g><path class="cls-1" d="M64.41,109.89c-26.76,0-28.81-18.57-28.93-41.24"/><path class="cls-1" d="M64.41,18.94c-26.76,0-28.81,11.58-28.93,25.72"/><path class="cls-1" d="M64.41,69.19c-7.99,0-13.18,.64-17.42,5.67"/><path class="cls-1" d="M35.48,44.66c-3.74,0-6.77,5.37-6.77,11.99s3.03,11.99,6.77,11.99"/><path class="cls-1" d="M39.76,26.74c.16-.1,2.27,4.62,4.51,6.67"/><path class="cls-1" d="M40.68,44.66s0-6.99,3.58-11.25"/><path class="cls-1" d="M40.68,63.52c0,6.82,6.31,11.34,6.31,11.34"/><line class="cls-1" x1="40.68" y1="44.66" x2="40.68" y2="63.52"/></g><g><path class="cls-1" d="M64.29,109.89c26.76,0,28.81-18.57,28.93-41.24"/><path class="cls-1" d="M93.35,44.66c3.74,0,6.77,5.37,6.77,11.99,0,6.62-3.03,11.99-6.77,11.99"/><path class="cls-1" d="M64.41,18.94c26.76,0,28.81,11.58,28.93,25.72"/><path class="cls-1" d="M64.41,69.19c7.99,0,13.18,.64,17.42,5.67"/><path class="cls-1" d="M89.07,26.74c-.16-.1-2.27,4.62-4.51,6.67"/><path class="cls-1" d="M88.14,44.66s0-6.99-3.58-11.25"/><path class="cls-1" d="M88.14,63.52c0,6.82-6.31,11.34-6.31,11.34"/><line class="cls-1" x1="88.14" y1="44.66" x2="88.14" y2="63.52"/></g></g><g><path class="cls-1" d="M45.18,50.66c6.64-2.47,14.92,.94,14.92,.94"/><path class="cls-1" d="M83.65,50.66c-6.64-2.47-14.92,.94-14.92,.94"/></g></svg>