<?xml version="1.0" encoding="UTF-8"?><svg id="Layer_1" xmlns="http://www.w3.org/2000/svg" viewBox="0 0 128.83 128.83"><defs><style>.cls-1{stroke-width:2.93px;}.cls-1,.cls-2{fill:none;stroke:#000;stroke-linecap:round;stroke-linejoin:round;}.cls-2{stroke-width:2.66px;}</style></defs><path class="cls-2" d="M45.79,39.71c10.72,8.04,26.54,8.04,37.26,0m0,3.75v-9.65l6.83-9.99c1.06-1.55-.05-3.64-1.92-3.64H40.88c-1.87,0-2.98,2.1-1.92,3.64l6.83,9.99v9.65m37.26,3.02c0,11.19-8.34,20.27-18.63,20.27s-18.63-9.07-18.63-20.27v-12.67h37.26v12.67Zm-26.57,18.34v11.71m15.88-11.71v11.71m-15.88,0h-18.3c-8.71,0-15.77,7.06-15.77,15.77v12.75H106.43v-12.75c0-8.71-7.06-15.77-15.77-15.77h-18.3m-15.88,0l7.94,14.26m0,0l7.94-14.26m-26.57,.55l18.63,27.97m0,0l18.63-27.97m-16.12-49.72c0-1.38-1.12-2.5-2.5-2.5s-2.5,1.12-2.5,2.5,1.12,2.5,2.5,2.5,2.5-1.12,2.5-2.5Z"/><line class="cls-1" x1="47.62" y1="70.67" x2="26.78" y2="70.67"/><line class="cls-1" x1="102.02" y1="70.67" x2="81.18" y2="70.67"/></svg>