<?xml version="1.0" encoding="UTF-8"?><svg id="Layer_1" xmlns="http://www.w3.org/2000/svg" viewBox="0 0 128.83 128.83"><defs><style>.cls-1{fill:none;stroke:#000;stroke-linecap:round;stroke-linejoin:round;stroke-width:2.93px;}</style></defs><g><path class="cls-1" d="M39.02,21.82v28.15c0,3.24,1.68,6.08,4.22,7.71,1.67,1.07,2.73,2.86,2.65,4.84l-1.61,41.85c0,2.21,1.79,4,4,4h0c2.21,0,4-1.79,4-4l-1.61-41.96c-.07-1.95,.96-3.72,2.58-4.8,2.48-1.64,4.12-4.45,4.12-7.64V21.82"/><line class="cls-1" x1="45.21" y1="21.82" x2="45.21" y2="43.21"/><line class="cls-1" x1="51.18" y1="21.82" x2="51.18" y2="43.21"/></g><path class="cls-1" d="M89.81,37.71c0-9.53-5.02-17.25-11.21-17.25s-11.21,7.73-11.21,17.25c0,7.01,2.72,13.04,6.63,15.73,1.85,1.27,2.65,3.37,2.54,5.61l-1.86,45.32c0,2.21,1.79,4,4,4s4-1.79,4-4l-1.98-45.44c-.1-2.2,.77-4.28,2.57-5.55,3.86-2.72,6.54-8.71,6.54-15.66Z"/></svg>