<?xml version="1.0" encoding="UTF-8"?><svg id="Layer_1" xmlns="http://www.w3.org/2000/svg" viewBox="0 0 128.83 128.83"><defs><style>.cls-1{fill:none;stroke:#000;stroke-linecap:round;stroke-linejoin:round;stroke-width:2.93px;}</style></defs><path class="cls-1" d="M78.83,86.22h-3.92l-10.35,8.16-10.35-8.16h-4.2c-11.6,0-21,7.72-21,17.25v3.45H99.83v-3.45c0-9.52-9.4-17.25-21-17.25Z"/><line class="cls-1" x1="64.55" y1="94.38" x2="64.55" y2="106.91"/><line class="cls-1" x1="54.2" y1="86.22" x2="54.2" y2="78.18"/><line class="cls-1" x1="74.9" y1="86.22" x2="74.9" y2="78.18"/><line class="cls-1" x1="45.07" y1="66.74" x2="45.07" y2="54.89"/><line class="cls-1" x1="64.55" y1="48.49" x2="45.07" y2="54.89"/><line class="cls-1" x1="64.55" y1="72.05" x2="45.07" y2="66.74"/><line class="cls-1" x1="51.75" y1="58.02" x2="51.75" y2="62.65"/><line class="cls-1" x1="58.01" y1="56.66" x2="58.01" y2="64.15"/><line class="cls-1" x1="84.03" y1="66.74" x2="84.03" y2="54.89"/><line class="cls-1" x1="64.55" y1="48.49" x2="84.03" y2="54.89"/><line class="cls-1" x1="64.55" y1="72.05" x2="84.03" y2="66.74"/><line class="cls-1" x1="77.36" y1="58.02" x2="77.36" y2="62.65"/><line class="cls-1" x1="71.09" y1="56.66" x2="71.09" y2="64.15"/><line class="cls-1" x1="64.55" y1="54.16" x2="64.55" y2="66.51"/><path class="cls-1" d="M48.41,53.8c1.56-6.47,5.39-11.64,10.27-13.95,1.79-.85,3.73-1.31,5.74-1.31,4.42,0,8.45,2.22,11.44,5.86,2.08,2.51,3.66,5.7,4.55,9.3"/><path class="cls-1" d="M48.63,67.71c2.32,8.41,8.51,14.42,15.79,14.42s13.43-5.98,15.77-14.34"/><path class="cls-1" d="M58.68,39.85c-.9-2.01-1.27-4.22-.8-6.34,.95-4.24,5-7.16,9.17-8.38s8.59-1.15,12.9-1.75c4.3-.59,8.8-2.04,11.47-5.46-.21,7.17-4.64,14.05-11.07,17.21,4.72-.51,8.59-.81,13.36-2.72-1.49,12.03-11.03,11.64-17.85,11.99"/><line class="cls-1" x1="45.07" y1="106.91" x2="37.96" y2="89.34"/><line class="cls-1" x1="83.24" y1="106.91" x2="90.36" y2="89.34"/></svg>