<?xml version="1.0" encoding="UTF-8"?><svg id="Layer_1" xmlns="http://www.w3.org/2000/svg" viewBox="0 0 128.83 128.83"><defs><style>.cls-1{fill:none;stroke:#000;stroke-linecap:round;stroke-linejoin:round;stroke-width:2.93px;}</style></defs><g><path class="cls-1" d="M19.61,97.82c3.29-13.96,18.21-14.98,18.21-14.98"/><path class="cls-1" d="M109.22,97.82c-3.29-13.96-18.21-14.98-18.21-14.98"/></g><g><path class="cls-1" d="M40.1,38.72v-6.17c0-5.16,4.19-9.35,9.35-9.35h29.9c5.18,0,9.37,4.19,9.37,9.35v6.17"/><g><line class="cls-1" x1="40.1" y1="38.72" x2="46.17" y2="32.4"/><line class="cls-1" x1="52.25" y1="38.72" x2="46.17" y2="32.4"/><line class="cls-1" x1="52.25" y1="38.72" x2="58.33" y2="32.4"/><line class="cls-1" x1="64.41" y1="38.72" x2="58.33" y2="32.4"/><line class="cls-1" x1="64.41" y1="38.72" x2="70.49" y2="32.4"/><line class="cls-1" x1="76.56" y1="38.72" x2="70.49" y2="32.4"/><line class="cls-1" x1="76.56" y1="38.72" x2="82.64" y2="32.4"/><line class="cls-1" x1="88.72" y1="38.72" x2="82.64" y2="32.4"/></g><path class="cls-1" d="M73.88,86.76v4.29c0,1.35-1.3,2.45-2.91,2.45h-13.12c-1.61,0-2.91-1.1-2.91-2.45v-4.29"/><line class="cls-1" x1="46.05" y1="55.97" x2="82.77" y2="55.97"/><g><path class="cls-1" d="M49.42,55.97c0,2.91,2.73,5.29,6.11,5.29s6.11-2.38,6.11-5.29"/><path class="cls-1" d="M67.17,55.97c0,2.91,2.73,5.29,6.11,5.29s6.11-2.38,6.11-5.29"/></g><path class="cls-1" d="M53.52,78.04c2.57-1.69,6.53-2.77,10.98-2.77s8.4,1.08,10.97,2.77"/><line class="cls-1" x1="49.42" y1="46.69" x2="79.4" y2="46.69"/><line class="cls-1" x1="64.41" y1="43.46" x2="64.41" y2="49.93"/><line class="cls-1" x1="56.49" y1="43.46" x2="56.49" y2="49.93"/><line class="cls-1" x1="72.33" y1="43.46" x2="72.33" y2="49.93"/><line class="cls-1" x1="40.1" y1="45.17" x2="40.1" y2="73.27"/><path class="cls-1" d="M50.82,86.76c-10.72,0-10.72-13.49-10.72-13.49"/><line class="cls-1" x1="88.73" y1="45.17" x2="88.73" y2="73.27"/><path class="cls-1" d="M78.01,86.76c10.72,0,10.72-13.49,10.72-13.49"/><line class="cls-1" x1="40.1" y1="45.17" x2="32" y2="45.17"/><line class="cls-1" x1="32" y1="39.14" x2="32" y2="51.19"/><line class="cls-1" x1="88.73" y1="45.17" x2="96.83" y2="45.17"/><line class="cls-1" x1="96.83" y1="39.14" x2="96.83" y2="51.19"/><path class="cls-1" d="M40.1,65.83c-3.28,0-5.94-2.66-5.94-5.95s2.66-5.94,5.94-5.94"/><path class="cls-1" d="M88.73,53.94c3.28,0,5.94,2.66,5.94,5.94,0,3.29-2.66,5.95-5.94,5.95"/><line class="cls-1" x1="50.82" y1="86.76" x2="54.93" y2="86.76"/><line class="cls-1" x1="73.88" y1="86.76" x2="78" y2="86.76"/></g></svg>