<?xml version="1.0" encoding="UTF-8"?><svg id="Layer_1" xmlns="http://www.w3.org/2000/svg" viewBox="0 0 128.83 128.83"><defs><style>.cls-1{fill:none;stroke:#000;stroke-linecap:round;stroke-linejoin:round;stroke-width:2.93px;}</style></defs><circle class="cls-1" cx="63.43" cy="66.41" r="19.33"/><g><line class="cls-1" x1="81.58" y1="90.8" x2="93.49" y2="106.81"/><line class="cls-1" x1="83.54" y1="104.08" x2="86.46" y2="97.64"/><line class="cls-1" x1="90.17" y1="112.67" x2="83.54" y2="104.08"/><line class="cls-1" x1="93.49" y1="106.81" x2="90.17" y2="112.67"/><line class="cls-1" x1="93.69" y1="96.27" x2="86.46" y2="97.64"/><line class="cls-1" x1="100.13" y1="104.86" x2="93.69" y2="96.27"/><line class="cls-1" x1="93.69" y1="106.62" x2="100.13" y2="104.86"/></g><g><line class="cls-1" x1="76.9" y1="52.55" x2="99.35" y2="30.88"/><line class="cls-1" x1="97.79" y1="41.03" x2="90.95" y2="38.88"/><line class="cls-1" x1="105.4" y1="33.42" x2="97.79" y2="41.03"/><line class="cls-1" x1="99.35" y1="30.88" x2="105.4" y2="33.42"/><line class="cls-1" x1="88.81" y1="32.05" x2="90.95" y2="38.88"/><line class="cls-1" x1="96.61" y1="24.44" x2="88.81" y2="32.05"/><line class="cls-1" x1="99.15" y1="30.69" x2="96.61" y2="24.44"/></g><g><line class="cls-1" x1="45.6" y1="58.92" x2="16.59" y2="46.89"/><line class="cls-1" x1="26.74" y1="44.15" x2="27.32" y2="51.38"/><line class="cls-1" x1="16.78" y1="40.25" x2="26.74" y2="44.15"/><line class="cls-1" x1="16.59" y1="46.89" x2="16.78" y2="40.25"/><line class="cls-1" x1="21.86" y1="56.06" x2="27.32" y2="51.38"/><line class="cls-1" x1="11.9" y1="51.77" x2="21.86" y2="56.06"/><line class="cls-1" x1="16.59" y1="47.08" x2="11.9" y2="51.77"/></g><circle class="cls-1" cx="63.43" cy="66.41" r="7.42"/><path class="cls-1" d="M33.29,60.98c-.34,1.81-.5,3.62-.5,5.43,0,16.79,13.86,30.45,30.45,30.45s30.45-13.86,30.45-30.45c0-5.82-1.63-11.64-4.88-16.6"/><path class="cls-1" d="M79.63,40.64c-4.88-3.12-10.54-4.68-16.2-4.68-9.94,0-19.7,5.06-25.23,13.34"/></svg>