<?xml version="1.0" encoding="UTF-8"?><svg id="Layer_1" xmlns="http://www.w3.org/2000/svg" viewBox="0 0 128.83 128.83"><defs><style>.cls-1{fill:none;stroke:#000;stroke-linecap:round;stroke-linejoin:round;stroke-width:2.93px;}</style></defs><path class="cls-1" d="M65.9,32.74c5.31,0,9.61-4.3,9.61-9.61s-4.3-9.61-9.61-9.61-9.61,4.3-9.61,9.61,4.3,9.61,9.61,9.61Z"/><path class="cls-1" d="M57.65,73.18h-20.24c.17-7.24,2.05-21.06,12.97-29.25l6.2,12.6c.51,1.03,1.39,1.76,2.39,2.12v.25h25.03c2.34,0,4.24-1.9,4.24-4.24s-1.9-4.24-4.24-4.24h-19.5l-7.98-16.2c-.03-.06-.07-.11-.1-.16-.14-.44-.33-.87-.57-1.29-1.85-3.24-5.97-4.36-9.2-2.51-26.12,14.92-22.68,47.81-22.52,49.2,.11,.97,.43,1.87,.9,2.66,.69,2.19,2.71,3.78,5.13,3.78h21.18v22.76c0,3.67,2.97,6.65,6.65,6.65s6.65-2.98,6.65-6.65v-28.51c0-3.85-3.12-6.98-6.98-6.98Z"/><path class="cls-1" d="M104.68,50.51c.68-1.58-.06-3.41-1.64-4.09-1.58-.67-3.41,.06-4.09,1.64l-6.69,15.64h-16.75c-1.72,0-3.11,1.39-3.11,3.11s1.39,3.11,3.11,3.11h18.8c.19,0,.38-.02,.56-.06,.05,0,.11-.02,.16-.03,.13-.03,.26-.07,.39-.12,.05-.02,.1-.03,.14-.05,.16-.07,.32-.16,.47-.25,.03-.02,.06-.04,.09-.07,.12-.08,.23-.18,.34-.28,.04-.04,.08-.08,.11-.12,.09-.1,.18-.2,.26-.31,.03-.04,.06-.08,.09-.13,.1-.15,.19-.31,.26-.47h0v-.02l7.49-17.51Z"/></svg>