<svg viewBox="0 0 400 215" fill="none" xmlns="http://www.w3.org/2000/svg">
<foreignObject x="185.642" y="10.3148" width="187.441" height="27.4489"><div xmlns="http://www.w3.org/1999/xhtml" style="backdrop-filter:blur(1.65px);clip-path:url(#bgblur_0_147_7048_clip_path);height:100%;width:100%"></div></foreignObject><g filter="url(#filter0_d_147_7048)" data-figma-bg-blur-radius="3.29579">
<path d="M188.938 18.4702C188.938 15.7863 191.114 13.6106 193.799 13.6106H364.924C367.609 13.6106 369.786 15.7863 369.786 18.4702V34.4679H188.938V18.4702Z" fill="url(#paint0_linear_147_7048)"/>
</g>
<foreignObject x="184.214" y="29.5426" width="192.495" height="116.74"><div xmlns="http://www.w3.org/1999/xhtml" style="backdrop-filter:blur(1.65px);clip-path:url(#bgblur_1_147_7048_clip_path);height:100%;width:100%"></div></foreignObject><g filter="url(#filter1_d_147_7048)" data-figma-bg-blur-radius="3.29579">
<path d="M188.938 33.4976H369.786V131.116C369.786 135.245 366.437 138.592 362.306 138.592H196.417C192.286 138.592 188.938 135.245 188.938 131.116V33.4976Z" fill="white" fill-opacity="0.25" shape-rendering="crispEdges"/>
</g>
<foreignObject x="184.214" y="29.5426" width="192.495" height="116.74"><div xmlns="http://www.w3.org/1999/xhtml" style="backdrop-filter:blur(1.65px);clip-path:url(#bgblur_2_147_7048_clip_path);height:100%;width:100%"></div></foreignObject><g filter="url(#filter2_d_147_7048)" data-figma-bg-blur-radius="3.29579">
<path fill-rule="evenodd" clip-rule="evenodd" d="M369.599 33.6845H189.124V131.116C189.124 135.142 192.39 138.406 196.417 138.406H362.306C366.334 138.406 369.599 135.142 369.599 131.116V33.6845ZM188.938 33.4976V131.116C188.938 135.245 192.286 138.592 196.417 138.592H362.306C366.437 138.592 369.786 135.245 369.786 131.116V33.4976H188.938Z" fill="url(#paint1_linear_147_7048)" shape-rendering="crispEdges"/>
</g>
<path d="M360.615 24.0396C360.615 26.3958 358.704 28.3059 356.346 28.3059C353.989 28.3059 352.078 26.3958 352.078 24.0396C352.078 21.6834 353.989 19.7734 356.346 19.7734C358.704 19.7734 360.615 21.6834 360.615 24.0396Z" fill="white"/>
<path d="M346.861 24.0396C346.861 26.3958 344.95 28.3059 342.593 28.3059C340.235 28.3059 338.324 26.3958 338.324 24.0396C338.324 21.6834 340.235 19.7734 342.593 19.7734C344.95 19.7734 346.861 21.6834 346.861 24.0396Z" fill="white"/>
<path d="M333.109 24.0396C333.109 26.3958 331.198 28.3059 328.841 28.3059C326.483 28.3059 324.572 26.3958 324.572 24.0396C324.572 21.6834 326.483 19.7734 328.841 19.7734C331.198 19.7734 333.109 21.6834 333.109 24.0396Z" fill="white"/>
<path d="M234.473 94.4375V90.7736L223.933 85.8395V85.6441L234.473 80.6612V76.8996L220.238 83.9343V87.5005L234.473 94.4375Z" fill="#9FBAFD"/>
<path d="M241.209 101.961L247.613 69.5229H244.066L237.663 101.961H241.209Z" fill="#9FBAFD"/>
<path d="M261.02 94.3886C261.02 96.9778 259.887 98.1991 257.671 98.1991C255.355 98.1991 254.37 96.8801 254.37 94.3886V77.2415C254.37 74.7012 255.503 73.3333 257.671 73.3333C259.887 73.3333 261.02 74.7501 261.02 77.2904V81.1497H265.207V77.2904C265.207 71.9166 262.498 69.2298 257.523 69.2298C252.597 69.2298 249.987 71.9166 249.987 77.3392V94.0467C249.987 99.3227 252.597 102.254 257.671 102.254C262.596 102.254 265.207 99.5669 265.207 94.1444V88.7218H261.02V94.3886Z" fill="#9FBAFD"/>
<path d="M284.677 77.6812C284.677 72.4052 281.869 69.2298 276.944 69.2298C272.018 69.2298 269.161 72.3074 269.161 77.5835V94.0467C269.161 99.3227 271.92 102.254 276.993 102.254C281.919 102.254 284.677 99.5669 284.677 94.1444V77.6812ZM280.342 94.3886C280.342 96.9778 279.111 98.1991 276.944 98.1991C274.727 98.1991 273.545 96.8801 273.545 94.3398V77.2415C273.545 74.7012 274.776 73.3333 276.894 73.3333C279.111 73.3333 280.342 74.7501 280.342 77.2904V94.3886Z" fill="#9FBAFD"/>
<path d="M296.76 101.961C301.636 101.961 304.198 99.4204 304.198 94.0467V76.9973C304.198 72.0632 301.636 69.5229 296.76 69.5229H288.682V101.961H296.76ZM293.016 98.0037V73.4799H296.218C299.124 73.4799 299.814 75.434 299.814 78.5605V92.8254C299.814 96.0496 299.124 98.0037 296.464 98.0037H293.016Z" fill="#9FBAFD"/>
<path d="M320.606 101.961V98.0037H312.725V86.9631H319.571V82.9572H312.725V73.4799H320.212V69.5229H308.39V101.961H320.606Z" fill="#9FBAFD"/>
<path d="M338.486 87.5005V83.9343L324.25 76.8996V80.6612L334.841 85.6441V85.8395L324.25 90.7736V94.4375L338.486 87.5005Z" fill="#9FBAFD"/>
<foreignObject x="26.4362" y="77.0059" width="201.742" height="137.893"><div xmlns="http://www.w3.org/1999/xhtml" style="backdrop-filter:blur(1.65px);clip-path:url(#bgblur_3_147_7048_clip_path);height:100%;width:100%"></div></foreignObject><g filter="url(#filter3_d_147_7048)" data-figma-bg-blur-radius="3.3">
<path d="M31.4125 132.288C30.3444 128.304 32.71 124.209 36.6963 123.141L193.25 81.2122C197.237 80.1446 201.334 82.5091 202.402 86.4935L221.002 155.876C222.07 159.86 219.704 163.956 215.718 165.023L59.164 206.952C55.1777 208.02 51.0804 205.655 50.0123 201.671L31.4125 132.288Z" fill="white"/>
</g>
<path d="M73.7344 99.695H175.862V186.463H73.7344V99.695Z" fill="url(#paint2_linear_147_7048)"/>
<path d="M36.2871 107.164C36.2871 103.039 39.6326 99.6951 43.7595 99.6951H206.138C210.264 99.6951 213.61 103.039 213.61 107.164V178.994C213.61 183.119 210.264 186.463 206.138 186.463H43.7595C39.6326 186.463 36.2871 183.119 36.2871 178.994V107.164Z" fill="url(#paint3_linear_147_7048)"/>
<path fill-rule="evenodd" clip-rule="evenodd" d="M119.456 151.584C118.801 149.81 118.473 147.352 118.473 144.21C118.473 141.09 118.801 138.643 119.456 136.869C120.121 135.095 121.023 134.209 122.161 134.209C123.32 134.209 124.222 135.084 124.866 136.836C125.521 138.588 125.849 141.046 125.849 144.21C125.849 147.352 125.521 149.81 124.866 151.584C124.211 153.346 123.31 154.228 122.161 154.228C121.012 154.228 120.111 153.346 119.456 151.584ZM116.811 134.422C115.511 136.798 114.861 140.06 114.861 144.21C114.861 148.381 115.511 151.649 116.811 154.014C118.121 156.379 119.914 157.561 122.191 157.561C124.458 157.561 126.237 156.384 127.526 154.031C128.816 151.666 129.461 148.392 129.461 144.21C129.461 140.006 128.816 136.732 127.526 134.389C126.237 132.035 124.448 130.858 122.161 130.858C119.904 130.858 118.121 132.046 116.811 134.422ZM106.84 134.521V157.019H110.392V131.384H102.473V134.521H106.84ZM137.372 151.742C136.717 149.969 136.39 147.511 136.39 144.368C136.39 141.248 136.717 138.801 137.372 137.028C138.037 135.254 138.939 134.367 140.078 134.367C141.236 134.367 142.138 135.243 142.783 136.995C143.438 138.746 143.765 141.204 143.765 144.368C143.765 147.511 143.438 149.969 142.783 151.742C142.128 153.505 141.226 154.386 140.078 154.386C138.929 154.386 138.027 153.505 137.372 151.742ZM134.727 134.581C133.428 136.956 132.778 140.219 132.778 144.368C132.778 148.54 133.428 151.808 134.727 154.173C136.037 156.538 137.831 157.72 140.108 157.72C142.375 157.72 144.153 156.543 145.443 154.189C146.732 151.824 147.377 148.551 147.377 144.368C147.377 140.164 146.732 136.891 145.443 134.548C144.153 132.194 142.365 131.017 140.078 131.017C137.821 131.017 136.037 132.205 134.727 134.581Z" fill="white"/>
<path fill-rule="evenodd" clip-rule="evenodd" d="M119.28 151.648C118.614 149.845 118.286 147.362 118.286 144.21C118.286 141.08 118.614 138.608 119.28 136.804C119.952 135.012 120.899 134.022 122.161 134.022C123.441 134.022 124.389 134.997 125.042 136.771C125.708 138.553 126.036 141.037 126.036 144.21C126.036 147.362 125.708 149.845 125.042 151.648C124.379 153.431 123.432 154.415 122.161 154.415C120.89 154.415 119.943 153.431 119.28 151.648ZM124.866 136.836C124.222 135.084 123.32 134.209 122.161 134.209C121.023 134.209 120.121 135.095 119.456 136.869C118.801 138.643 118.473 141.09 118.473 144.21C118.473 147.352 118.801 149.81 119.456 151.584C120.111 153.346 121.012 154.228 122.161 154.228C123.31 154.228 124.211 153.346 124.866 151.584C125.521 149.81 125.849 147.352 125.849 144.21C125.849 141.046 125.521 138.588 124.866 136.836ZM127.362 134.479C126.099 132.172 124.367 131.045 122.161 131.045C119.987 131.045 118.26 132.182 116.975 134.512C115.696 136.85 115.048 140.077 115.048 144.21C115.048 148.365 115.696 151.598 116.975 153.924C118.259 156.242 119.996 157.375 122.191 157.375C124.376 157.375 126.098 156.248 127.362 153.941C128.631 151.615 129.274 148.377 129.274 144.21C129.274 140.021 128.631 136.783 127.362 134.479ZM127.526 154.031C126.237 156.384 124.458 157.561 122.191 157.561C119.914 157.561 118.121 156.379 116.811 154.014C115.511 151.649 114.861 148.381 114.861 144.21C114.861 140.06 115.511 136.798 116.811 134.422C118.121 132.046 119.904 130.858 122.161 130.858C124.448 130.858 126.237 132.035 127.526 134.389C128.816 136.732 129.461 140.006 129.461 144.21C129.461 148.392 128.816 151.666 127.526 154.031ZM106.84 134.521V157.019H110.392V131.384H102.473V134.521H106.84ZM102.66 134.334H107.027V156.833H110.205V131.571H102.66V134.334ZM137.197 151.807C136.531 150.003 136.203 147.52 136.203 144.368C136.203 141.239 136.531 138.766 137.197 136.963C137.869 135.171 138.816 134.18 140.078 134.18C141.358 134.18 142.305 135.156 142.958 136.93C143.624 138.712 143.952 141.196 143.952 144.368C143.952 147.52 143.624 150.003 142.958 151.807C142.296 153.59 141.349 154.573 140.078 154.573C138.806 154.573 137.859 153.59 137.197 151.807ZM142.783 136.995C142.138 135.243 141.236 134.367 140.078 134.367C138.939 134.367 138.037 135.254 137.372 137.028C136.717 138.801 136.39 141.248 136.39 144.368C136.39 147.511 136.717 149.969 137.372 151.742C138.027 153.505 138.929 154.386 140.078 154.386C141.226 154.386 142.128 153.505 142.783 151.742C143.438 149.969 143.765 147.511 143.765 144.368C143.765 141.204 143.438 138.746 142.783 136.995ZM145.279 134.638C144.015 132.331 142.283 131.204 140.078 131.204C137.904 131.204 136.176 132.34 134.891 134.671C133.613 137.008 132.965 140.235 132.965 144.368C132.965 148.524 133.613 151.756 134.891 154.083C136.176 156.401 137.913 157.533 140.108 157.533C142.292 157.533 144.015 156.407 145.279 154.1C146.547 151.773 147.19 148.535 147.19 144.368C147.19 140.179 146.547 136.941 145.279 134.638ZM145.443 154.189C144.153 156.543 142.375 157.72 140.108 157.72C137.831 157.72 136.037 156.538 134.727 154.173C133.428 151.808 132.778 148.54 132.778 144.368C132.778 140.219 133.428 136.956 134.727 134.581C136.037 132.205 137.821 131.017 140.078 131.017C142.365 131.017 144.153 132.194 145.443 134.548C146.732 136.891 147.377 140.164 147.377 144.368C147.377 148.551 146.732 151.824 145.443 154.189Z" fill="#ECECEC"/>
<path fill-rule="evenodd" clip-rule="evenodd" d="M124.95 113.411C108.364 113.411 94.8925 126.978 94.8925 143.747C94.8925 160.515 108.364 174.082 124.95 174.082C141.535 174.082 155.007 160.515 155.007 143.747C155.007 126.978 141.535 113.411 124.95 113.411ZM91.4883 143.747C91.4883 125.128 106.455 110.008 124.95 110.008C143.445 110.008 158.411 125.128 158.411 143.747C158.411 162.365 143.445 177.485 124.95 177.485C106.455 177.485 91.4883 162.365 91.4883 143.747Z" fill="white"/>
<path fill-rule="evenodd" clip-rule="evenodd" d="M175.234 140.108C173.265 140.108 171.643 141.722 171.643 143.746C171.643 145.77 173.265 147.384 175.234 147.384C177.202 147.384 178.825 145.77 178.825 143.746C178.825 141.722 177.202 140.108 175.234 140.108ZM168.238 143.746C168.238 139.872 171.355 136.705 175.234 136.705C179.112 136.705 182.229 139.872 182.229 143.746C182.229 147.62 179.112 150.787 175.234 150.787C171.355 150.787 168.238 147.62 168.238 143.746Z" fill="white"/>
<path fill-rule="evenodd" clip-rule="evenodd" d="M74.6633 140.108C72.6947 140.108 71.0722 141.722 71.0722 143.746C71.0722 145.77 72.6947 147.384 74.6633 147.384C76.6319 147.384 78.2544 145.77 78.2544 143.746C78.2544 141.722 76.6319 140.108 74.6633 140.108ZM67.668 143.746C67.668 139.872 70.7852 136.705 74.6633 136.705C78.5415 136.705 81.6587 139.872 81.6587 143.746C81.6587 147.62 78.5415 150.787 74.6633 150.787C70.7852 150.787 67.668 147.62 67.668 143.746Z" fill="white"/>
<path fill-rule="evenodd" clip-rule="evenodd" d="M58.782 103.333C59.7221 103.333 60.4842 104.095 60.4842 105.035C60.4842 107.535 59.996 110.011 59.0472 112.322C58.0984 114.632 56.7073 116.733 54.9525 118.503C53.1977 120.273 51.1137 121.678 48.8189 122.637C46.524 123.596 44.0639 124.09 41.5791 124.09C40.639 124.09 39.877 123.328 39.877 122.388C39.877 121.449 40.639 120.687 41.5791 120.687C43.6125 120.687 45.6264 120.283 47.5059 119.498C49.3854 118.712 51.0942 117.561 52.5343 116.108C53.9744 114.655 55.1176 112.93 55.8979 111.03C56.6781 109.129 57.0799 107.092 57.0799 105.035C57.0799 104.095 57.842 103.333 58.782 103.333Z" fill="white"/>
<path fill-rule="evenodd" clip-rule="evenodd" d="M58.782 182.824C59.7221 182.824 60.4842 182.062 60.4842 181.123C60.4842 178.623 59.996 176.147 59.0472 173.836C58.0984 171.525 56.7073 169.425 54.9525 167.655C53.1977 165.884 51.1137 164.479 48.8189 163.521C46.524 162.562 44.0639 162.068 41.5791 162.068C40.639 162.068 39.877 162.83 39.877 163.769C39.877 164.709 40.639 165.471 41.5791 165.471C43.6125 165.471 45.6264 165.875 47.5059 166.66C49.3854 167.445 51.0942 168.597 52.5343 170.049C53.9744 171.502 55.1176 173.228 55.8979 175.128C56.6781 177.028 57.0799 179.065 57.0799 181.123C57.0799 182.062 57.842 182.824 58.782 182.824Z" fill="white"/>
<path fill-rule="evenodd" clip-rule="evenodd" d="M191.114 103.333C190.174 103.333 189.412 104.095 189.412 105.035C189.412 107.535 189.9 110.011 190.849 112.322C191.798 114.632 193.189 116.733 194.944 118.503C196.699 120.273 198.783 121.678 201.078 122.637C203.372 123.596 205.833 124.09 208.317 124.09C209.257 124.09 210.02 123.328 210.02 122.388C210.02 121.449 209.257 120.687 208.317 120.687C206.284 120.687 204.27 120.283 202.391 119.498C200.511 118.712 198.802 117.561 197.362 116.108C195.922 114.655 194.779 112.93 193.999 111.03C193.218 109.129 192.817 107.092 192.817 105.035C192.817 104.095 192.055 103.333 191.114 103.333Z" fill="white"/>
<path fill-rule="evenodd" clip-rule="evenodd" d="M191.114 182.824C190.174 182.824 189.412 182.062 189.412 181.123C189.412 178.623 189.9 176.147 190.849 173.836C191.798 171.525 193.189 169.425 194.944 167.655C196.699 165.884 198.783 164.479 201.078 163.521C203.372 162.562 205.833 162.068 208.317 162.068C209.257 162.068 210.02 162.83 210.02 163.769C210.02 164.709 209.257 165.471 208.317 165.471C206.284 165.471 204.27 165.875 202.391 166.66C200.511 167.445 198.802 168.597 197.362 170.049C195.922 171.502 194.779 173.228 193.999 175.128C193.218 177.028 192.817 179.065 192.817 181.123C192.817 182.062 192.055 182.824 191.114 182.824Z" fill="white"/>
<path fill-rule="evenodd" clip-rule="evenodd" d="M146.028 64.6974V77.645L136.153 69.0307H72.1616C69.0634 69.0307 66.5518 66.5203 66.5518 63.4236V31.2948C66.5518 28.1981 69.0634 25.6876 72.1616 25.6876H140.418C143.517 25.6876 146.028 28.1981 146.028 31.2948L146.028 64.6974ZM147.898 81.7568V62.8283L147.898 31.2948C147.898 27.1658 144.549 23.8186 140.418 23.8186H72.1616C68.0306 23.8186 64.6818 27.1658 64.6818 31.2948V63.4236C64.6818 67.5526 68.0306 70.8998 72.1616 70.8998H135.452L147.898 81.7568Z" fill="#B6BFD7"/>
<path fill-rule="evenodd" clip-rule="evenodd" d="M136.907 36.3744H75.6719V34.5044H136.907V36.3744Z" fill="#B6BFD7"/>
<path fill-rule="evenodd" clip-rule="evenodd" d="M136.907 44.2214H75.6719V42.3514H136.907V44.2214Z" fill="#B6BFD7"/>
<path fill-rule="evenodd" clip-rule="evenodd" d="M136.907 52.068H75.6719V50.1981H136.907V52.068Z" fill="#B6BFD7"/>
<path fill-rule="evenodd" clip-rule="evenodd" d="M107.074 60.8495H75.6719V58.9796H107.074V60.8495Z" fill="#B6BFD7"/>
<path d="M36.0566 68.0391L5.43922 85.7077L5.43922 50.3704L36.0566 68.0391Z" fill="#DEE3EF"/>
<path d="M296.171 188.847C296.171 202.002 285.502 212.666 272.342 212.666C259.181 212.666 248.512 202.002 248.512 188.847C248.512 175.693 259.181 165.029 272.342 165.029C285.502 165.029 296.171 175.693 296.171 188.847Z" fill="#DEE3EF"/>
<path fill-rule="evenodd" clip-rule="evenodd" d="M272.342 207.562C282.682 207.562 291.065 199.183 291.065 188.847C291.065 178.511 282.682 170.133 272.342 170.133C262.001 170.133 253.618 178.511 253.618 188.847C253.618 199.183 262.001 207.562 272.342 207.562ZM272.342 209.263C283.622 209.263 292.767 200.123 292.767 188.847C292.767 177.572 283.622 168.431 272.342 168.431C261.061 168.431 251.916 177.572 251.916 188.847C251.916 200.123 261.061 209.263 272.342 209.263Z" fill="white"/>
<path d="M271.386 201.087V181.386H267.234V178.639H274.762V201.087H271.386Z" fill="white"/>
<path d="M348.937 148.015C348.937 161.17 338.268 171.834 325.107 171.834C311.946 171.834 301.277 161.17 301.277 148.015C301.277 134.861 311.946 124.197 325.107 124.197C338.268 124.197 348.937 134.861 348.937 148.015Z" fill="#DEE3EF"/>
<path fill-rule="evenodd" clip-rule="evenodd" d="M325.107 166.73C335.448 166.73 343.831 158.351 343.831 148.015C343.831 137.68 335.448 129.301 325.107 129.301C314.767 129.301 306.384 137.68 306.384 148.015C306.384 158.351 314.767 166.73 325.107 166.73ZM325.107 168.431C336.388 168.431 345.533 159.291 345.533 148.015C345.533 136.74 336.388 127.599 325.107 127.599C313.826 127.599 304.682 136.74 304.682 148.015C304.682 159.291 313.826 168.431 325.107 168.431Z" fill="white"/>
<path d="M324.152 160.255V140.554H320V137.807H327.528V160.255H324.152Z" fill="white"/>
<path d="M393.9 3.04929C393.9 4.73337 395.266 6.09859 396.95 6.09859C398.635 6.09859 400 4.73337 400 3.04929C400 1.36522 398.635 0 396.95 0C395.266 0 393.9 1.36522 393.9 3.04929Z" fill="#B6BFD7"/>
<path d="M380.939 3.04951C380.939 4.73359 382.305 6.0988 383.989 6.0988C385.674 6.0988 387.039 4.73359 387.039 3.04951C387.039 1.36543 385.674 0.000213623 383.989 0.000213623C382.305 0.000213623 380.939 1.36543 380.939 3.04951Z" fill="#B6BFD7"/>
<path d="M367.978 3.04951C367.978 4.73359 369.344 6.0988 371.028 6.0988C372.713 6.0988 374.078 4.73359 374.078 3.04951C374.078 1.36543 372.713 0.000213623 371.028 0.000213623C369.344 0.000213623 367.978 1.36543 367.978 3.04951Z" fill="#B6BFD7"/>
<path d="M25.9237 211.95C25.9237 213.635 27.2892 215 28.9736 215C30.658 215 32.0234 213.635 32.0234 211.95C32.0234 210.266 30.658 208.901 28.9736 208.901C27.2892 208.901 25.9237 210.266 25.9237 211.95Z" fill="#B6BFD7"/>
<path d="M12.9627 211.951C12.9627 213.635 14.3282 215 16.0126 215C17.697 215 19.0625 213.635 19.0625 211.951C19.0625 210.267 17.697 208.901 16.0126 208.901C14.3282 208.901 12.9627 210.267 12.9627 211.951Z" fill="#B6BFD7"/>
<path d="M0.00179768 211.951C0.00179768 213.635 1.36728 215 3.05168 215C4.73608 215 6.10156 213.635 6.10156 211.951C6.10156 210.267 4.73608 208.901 3.05168 208.901C1.36728 208.901 0.00179768 210.267 0.00179768 211.951Z" fill="#B6BFD7"/>
<defs>
<filter id="filter0_d_147_7048" x="185.642" y="10.3148" width="187.441" height="27.4489" filterUnits="userSpaceOnUse" color-interpolation-filters="sRGB">
<feFlood flood-opacity="0" result="BackgroundImageFix"/>
<feColorMatrix in="SourceAlpha" type="matrix" values="0 0 0 0 0 0 0 0 0 0 0 0 0 0 0 0 0 0 127 0" result="hardAlpha"/>
<feOffset dy="0.439439"/>
<feGaussianBlur stdDeviation="1.0986"/>
<feComposite in2="hardAlpha" operator="out"/>
<feColorMatrix type="matrix" values="0 0 0 0 0.554167 0 0 0 0 0.554167 0 0 0 0 0.554167 0 0 0 0.51 0"/>
<feBlend mode="normal" in2="BackgroundImageFix" result="effect1_dropShadow_147_7048"/>
<feBlend mode="normal" in="SourceGraphic" in2="effect1_dropShadow_147_7048" result="shape"/>
</filter>
<clipPath id="bgblur_0_147_7048_clip_path" transform="translate(-185.642 -10.3148)"><path d="M188.938 18.4702C188.938 15.7863 191.114 13.6106 193.799 13.6106H364.924C367.609 13.6106 369.786 15.7863 369.786 18.4702V34.4679H188.938V18.4702Z"/>
</clipPath><filter id="filter1_d_147_7048" x="184.214" y="29.5426" width="192.495" height="116.74" filterUnits="userSpaceOnUse" color-interpolation-filters="sRGB">
<feFlood flood-opacity="0" result="BackgroundImageFix"/>
<feColorMatrix in="SourceAlpha" type="matrix" values="0 0 0 0 0 0 0 0 0 0 0 0 0 0 0 0 0 0 127 0" result="hardAlpha"/>
<feOffset dx="1.0986" dy="1.86761"/>
<feGaussianBlur stdDeviation="2.91128"/>
<feComposite in2="hardAlpha" operator="out"/>
<feColorMatrix type="matrix" values="0 0 0 0 0.623229 0 0 0 0 0.676446 0 0 0 0 0.804167 0 0 0 1 0"/>
<feBlend mode="normal" in2="BackgroundImageFix" result="effect1_dropShadow_147_7048"/>
<feBlend mode="normal" in="SourceGraphic" in2="effect1_dropShadow_147_7048" result="shape"/>
</filter>
<clipPath id="bgblur_1_147_7048_clip_path" transform="translate(-184.214 -29.5426)"><path d="M188.938 33.4976H369.786V131.116C369.786 135.245 366.437 138.592 362.306 138.592H196.417C192.286 138.592 188.938 135.245 188.938 131.116V33.4976Z"/>
</clipPath><filter id="filter2_d_147_7048" x="184.214" y="29.5426" width="192.495" height="116.74" filterUnits="userSpaceOnUse" color-interpolation-filters="sRGB">
<feFlood flood-opacity="0" result="BackgroundImageFix"/>
<feColorMatrix in="SourceAlpha" type="matrix" values="0 0 0 0 0 0 0 0 0 0 0 0 0 0 0 0 0 0 127 0" result="hardAlpha"/>
<feOffset dx="1.0986" dy="1.86761"/>
<feGaussianBlur stdDeviation="2.91128"/>
<feComposite in2="hardAlpha" operator="out"/>
<feColorMatrix type="matrix" values="0 0 0 0 0.623229 0 0 0 0 0.676446 0 0 0 0 0.804167 0 0 0 1 0"/>
<feBlend mode="normal" in2="BackgroundImageFix" result="effect1_dropShadow_147_7048"/>
<feBlend mode="normal" in="SourceGraphic" in2="effect1_dropShadow_147_7048" result="shape"/>
</filter>
<clipPath id="bgblur_2_147_7048_clip_path" transform="translate(-184.214 -29.5426)"><path fill-rule="evenodd" clip-rule="evenodd" d="M369.599 33.6845H189.124V131.116C189.124 135.142 192.39 138.406 196.417 138.406H362.306C366.334 138.406 369.599 135.142 369.599 131.116V33.6845ZM188.938 33.4976V131.116C188.938 135.245 192.286 138.592 196.417 138.592H362.306C366.437 138.592 369.786 135.245 369.786 131.116V33.4976H188.938Z"/>
</clipPath><filter id="filter3_d_147_7048" x="26.4362" y="77.0059" width="201.742" height="137.893" filterUnits="userSpaceOnUse" color-interpolation-filters="sRGB">
<feFlood flood-opacity="0" result="BackgroundImageFix"/>
<feColorMatrix in="SourceAlpha" type="matrix" values="0 0 0 0 0 0 0 0 0 0 0 0 0 0 0 0 0 0 127 0" result="hardAlpha"/>
<feOffset dx="1.1" dy="1.87"/>
<feGaussianBlur stdDeviation="2.91"/>
<feComposite in2="hardAlpha" operator="out"/>
<feColorMatrix type="matrix" values="0 0 0 0 0.623229 0 0 0 0 0.676446 0 0 0 0 0.804167 0 0 0 1 0"/>
<feBlend mode="normal" in2="BackgroundImageFix" result="effect1_dropShadow_147_7048"/>
<feBlend mode="normal" in="SourceGraphic" in2="effect1_dropShadow_147_7048" result="shape"/>
</filter>
<clipPath id="bgblur_3_147_7048_clip_path" transform="translate(-26.4362 -77.0059)"><path d="M31.4125 132.288C30.3444 128.304 32.71 124.209 36.6963 123.141L193.25 81.2122C197.237 80.1446 201.334 82.5091 202.402 86.4935L221.002 155.876C222.07 159.86 219.704 163.956 215.718 165.023L59.164 206.952C55.1777 208.02 51.0804 205.655 50.0123 201.671L31.4125 132.288Z"/>
</clipPath><linearGradient id="paint0_linear_147_7048" x1="238.88" y1="42.0524" x2="335.162" y2="10.9707" gradientUnits="userSpaceOnUse">
<stop stop-color="#4075FC"/>
<stop offset="1" stop-color="#9FA7FF"/>
</linearGradient>
<linearGradient id="paint1_linear_147_7048" x1="188.938" y1="55.8758" x2="214.797" y2="167.653" gradientUnits="userSpaceOnUse">
<stop stop-color="white"/>
<stop offset="1" stop-color="#5B5B5B" stop-opacity="0.51"/>
</linearGradient>
<linearGradient id="paint2_linear_147_7048" x1="112.151" y1="57.0635" x2="65.1283" y2="123.484" gradientUnits="userSpaceOnUse">
<stop stop-color="#4075FC"/>
<stop offset="1" stop-color="#9FA7FF"/>
</linearGradient>
<linearGradient id="paint3_linear_147_7048" x1="133.065" y1="232.516" x2="203.935" y2="181.023" gradientUnits="userSpaceOnUse">
<stop stop-color="#4075FC"/>
<stop offset="0.5" stop-color="#6B8CFD"/>
<stop offset="1" stop-color="#9FA7FF"/>
</linearGradient>
</defs>
</svg>
