<svg viewBox="0 0 400 215" fill="none" xmlns="http://www.w3.org/2000/svg">
<foreignObject x="114.761" y="118.22" width="174.249" height="67.9631"><div xmlns="http://www.w3.org/1999/xhtml" style="backdrop-filter:blur(2.82px);clip-path:url(#bgblur_0_2857_846_clip_path);height:100%;width:100%"></div></foreignObject><g filter="url(#filter0_d_2857_846)" data-figma-bg-blur-radius="5.64993">
<ellipse cx="200.002" cy="149" rx="77.1429" ry="24" fill="white" fill-opacity="0.25" shape-rendering="crispEdges"/>
</g>
<path d="M99.6191 172.669L69.0018 190.337L69.0018 155L99.6191 172.669Z" fill="#DEE3EF"/>
<path d="M393.902 3.04929C393.902 4.73337 395.268 6.09858 396.952 6.09858C398.636 6.09858 400.002 4.73337 400.002 3.04929C400.002 1.36521 398.636 0 396.952 0C395.268 0 393.902 1.36521 393.902 3.04929Z" fill="#B6BFD7"/>
<path d="M380.943 3.04929C380.943 4.73337 382.309 6.09858 383.993 6.09858C385.677 6.09858 387.043 4.73337 387.043 3.04929C387.043 1.36521 385.677 0 383.993 0C382.309 0 380.943 1.36521 380.943 3.04929Z" fill="#B6BFD7"/>
<path d="M367.978 3.04929C367.978 4.73337 369.344 6.09858 371.028 6.09858C372.713 6.09858 374.078 4.73337 374.078 3.04929C374.078 1.36521 372.713 0 371.028 0C369.344 0 367.978 1.36521 367.978 3.04929Z" fill="#B6BFD7"/>
<path d="M25.9237 211.951C25.9237 213.635 27.2892 215 28.9736 215C30.658 215 32.0234 213.635 32.0234 211.951C32.0234 210.267 30.658 208.901 28.9736 208.901C27.2892 208.901 25.9237 210.267 25.9237 211.951Z" fill="#B6BFD7"/>
<path d="M12.9647 211.951C12.9647 213.635 14.3302 215 16.0146 215C17.699 215 19.0645 213.635 19.0645 211.951C19.0645 210.267 17.699 208.901 16.0146 208.901C14.3302 208.901 12.9647 210.267 12.9647 211.951Z" fill="#B6BFD7"/>
<path d="M-0.000144482 211.951C-0.000144482 213.635 1.36533 215 3.04973 215C4.73413 215 6.09961 213.635 6.09961 211.951C6.09961 210.267 4.73413 208.901 3.04973 208.901C1.36533 208.901 -0.000144482 210.267 -0.000144482 211.951Z" fill="#B6BFD7"/>
<path fill-rule="evenodd" clip-rule="evenodd" d="M313.011 32H303.523V46.5132H289.002V55.9971H303.523V70.5103H313.011V55.9971H327.53V46.5132H313.011V32Z" fill="#DEE3EF"/>
<path fill-rule="evenodd" clip-rule="evenodd" d="M105.478 0C109.609 0 112.957 3.3486 112.957 7.47929V39.025H112.958V57.9611L100.394 46.5995L100.358 46.5699H30.479C26.3483 46.5699 22.9997 43.2213 22.9997 39.0906V7.47928C22.9997 3.34859 26.3483 0 30.479 0H105.478Z" fill="#DEE3EF"/>
<path fill-rule="evenodd" clip-rule="evenodd" d="M295.869 174.06V161.112L305.745 169.726H369.736C372.835 169.726 375.346 172.237 375.346 175.333V207.462C375.346 210.559 372.835 213.069 369.736 213.069H301.48C298.381 213.069 295.87 210.559 295.87 207.462L295.869 174.06ZM294 157V175.929L294 207.462C294 211.591 297.349 214.938 301.48 214.938H369.736C373.867 214.938 377.216 211.591 377.216 207.462V175.333C377.216 171.204 373.867 167.857 369.736 167.857H306.446L294 157Z" fill="#B6BFD7"/>
<path fill-rule="evenodd" clip-rule="evenodd" d="M366.225 179.524H304.99V177.654H366.225V179.524Z" fill="#B6BFD7"/>
<path fill-rule="evenodd" clip-rule="evenodd" d="M366.225 188.03H304.99V186.16H366.225V188.03Z" fill="#B6BFD7"/>
<path fill-rule="evenodd" clip-rule="evenodd" d="M366.225 196.537H304.99V194.667H366.225V196.537Z" fill="#B6BFD7"/>
<path fill-rule="evenodd" clip-rule="evenodd" d="M336.392 205.298H304.99V203.428H336.392V205.298Z" fill="#B6BFD7"/>
<path fill-rule="evenodd" clip-rule="evenodd" d="M98.2368 10.8709H37.002V9.00098H98.2368V10.8709Z" fill="white"/>
<path fill-rule="evenodd" clip-rule="evenodd" d="M98.2368 19.3768H37.002V17.5068H98.2368V19.3768Z" fill="white"/>
<path fill-rule="evenodd" clip-rule="evenodd" d="M98.2368 27.8836H37.002V26.0137H98.2368V27.8836Z" fill="white"/>
<path fill-rule="evenodd" clip-rule="evenodd" d="M68.4044 36.6444H37.002V34.7744H68.4044V36.6444Z" fill="white"/>
<path fill-rule="evenodd" clip-rule="evenodd" d="M336.332 173.938C323.446 173.938 313 163.517 313 150.662V134.929V127.386V116L322.169 127.357V127.386H336.332C349.218 127.386 359.664 137.807 359.664 150.662C359.664 163.517 349.218 173.938 336.332 173.938Z" fill="#DEE3EF"/>
<path fill-rule="evenodd" clip-rule="evenodd" d="M82.4954 88.5803V88.5512H68.332C55.4459 88.5512 44.9996 78.1303 44.9996 65.2756C44.9996 52.4208 55.4459 42 68.3321 42C81.2182 42 91.6646 52.4208 91.6646 65.2756V99.9374L82.4954 88.5803ZM89.7909 94.6369L84.369 87.9212V86.6821H68.332C56.4807 86.6821 46.8732 77.0981 46.8732 65.2756C46.8732 53.4531 56.4807 43.8691 68.3321 43.8691C80.1834 43.8691 89.7909 53.4531 89.7909 65.2756V94.6369Z" fill="#B6BFD7"/>
<path fill-rule="evenodd" clip-rule="evenodd" d="M55.07 59.5838H81.5918V57.7139H55.07V59.5838Z" fill="#B6BFD7"/>
<path fill-rule="evenodd" clip-rule="evenodd" d="M55.07 66.951H81.5918V65.0811H55.07V66.951Z" fill="#B6BFD7"/>
<path fill-rule="evenodd" clip-rule="evenodd" d="M55.07 73.215H81.5918V75.085H55.07V73.215Z" fill="#B6BFD7"/>
<path d="M242.719 78.1055C248.951 78.1057 254.002 83.1571 254.002 89.3887V90.1953C254.002 90.6132 253.977 91.0255 253.933 91.4316C253.978 91.6843 254.002 91.9445 254.002 92.21V112.359C254.002 114.807 252.018 116.792 249.57 116.792C247.122 116.792 245.137 114.807 245.137 112.359V141.777C245.137 144.893 242.61 147.419 239.495 147.419H228.211C225.096 147.419 222.57 144.893 222.57 141.777V112.359C222.57 114.807 220.584 116.792 218.136 116.792C215.688 116.792 213.704 114.807 213.704 112.359V92.21C213.704 91.9445 213.727 91.6842 213.772 91.4316C213.728 91.0256 213.704 90.6132 213.704 90.1953V89.3887C213.704 83.157 218.756 78.1055 224.988 78.1055H242.719ZM233.853 53.9258C240.085 53.9258 245.137 58.9774 245.137 65.209C245.137 71.4408 240.085 76.4932 233.853 76.4932C227.621 76.4932 222.57 71.4408 222.57 65.209C222.57 58.9774 227.621 53.9258 233.853 53.9258Z" fill="url(#paint0_linear_2857_846)"/>
<path d="M175.016 78.1055C181.248 78.1055 186.3 83.157 186.3 89.3887V90.1953C186.3 90.6132 186.275 91.0255 186.231 91.4316C186.276 91.6843 186.3 91.9445 186.3 92.21V112.359C186.3 114.807 184.316 116.792 181.868 116.792C179.42 116.792 177.434 114.807 177.434 112.359V141.777C177.434 144.893 174.908 147.419 171.792 147.419H160.509C157.393 147.419 154.867 144.893 154.867 141.777V112.359C154.867 114.807 152.882 116.792 150.434 116.792C147.986 116.792 146.002 114.807 146.001 112.359V92.21C146.001 91.9445 146.025 91.6842 146.07 91.4316C146.026 91.0256 146.001 90.6132 146.001 90.1953V89.3887C146.002 83.1571 151.053 78.1057 157.285 78.1055H175.016ZM166.151 53.9258C172.382 53.9259 177.434 58.9774 177.434 65.209C177.434 71.4408 172.383 76.4931 166.151 76.4932C159.919 76.4932 154.867 71.4408 154.867 65.209C154.867 58.9774 159.919 53.9258 166.151 53.9258Z" fill="url(#paint1_linear_2857_846)"/>
<mask id="path-27-outside-1_2857_846" maskUnits="userSpaceOnUse" x="175.852" y="62.8213" width="48" height="102" fill="black">
<rect fill="white" x="175.852" y="62.8213" width="48" height="102"/>
<path d="M208.868 91.001C215.099 91.0011 220.151 96.0534 220.151 102.285V103.091C220.151 103.51 220.126 103.923 220.082 104.33C220.126 104.582 220.151 104.841 220.151 105.105V125.255C220.151 127.703 218.166 129.688 215.718 129.688C213.27 129.687 211.286 127.703 211.286 125.255V154.673C211.286 157.789 208.759 160.315 205.643 160.315H194.36C191.244 160.315 188.718 157.789 188.718 154.673V125.255C188.718 127.703 186.733 129.688 184.285 129.688C181.837 129.687 179.852 127.703 179.852 125.255V105.105C179.852 104.841 179.877 104.581 179.921 104.329C179.877 103.922 179.852 103.509 179.852 103.091V102.285C179.852 96.0533 184.904 91.001 191.136 91.001H208.868ZM200.001 66.8213C206.233 66.8213 211.285 71.8729 211.286 78.1045C211.286 84.3363 206.233 89.3887 200.001 89.3887C193.77 89.3886 188.718 84.3362 188.718 78.1045C188.719 71.873 193.77 66.8214 200.001 66.8213Z"/>
</mask>
<path d="M208.868 91.001C215.099 91.0011 220.151 96.0534 220.151 102.285V103.091C220.151 103.51 220.126 103.923 220.082 104.33C220.126 104.582 220.151 104.841 220.151 105.105V125.255C220.151 127.703 218.166 129.688 215.718 129.688C213.27 129.687 211.286 127.703 211.286 125.255V154.673C211.286 157.789 208.759 160.315 205.643 160.315H194.36C191.244 160.315 188.718 157.789 188.718 154.673V125.255C188.718 127.703 186.733 129.688 184.285 129.688C181.837 129.687 179.852 127.703 179.852 125.255V105.105C179.852 104.841 179.877 104.581 179.921 104.329C179.877 103.922 179.852 103.509 179.852 103.091V102.285C179.852 96.0533 184.904 91.001 191.136 91.001H208.868ZM200.001 66.8213C206.233 66.8213 211.285 71.8729 211.286 78.1045C211.286 84.3363 206.233 89.3887 200.001 89.3887C193.77 89.3886 188.718 84.3362 188.718 78.1045C188.719 71.873 193.77 66.8214 200.001 66.8213Z" fill="url(#paint2_linear_2857_846)"/>
<path d="M208.868 91.001L208.868 87.4547H208.868V91.001ZM220.151 103.091L223.697 103.091V103.091H220.151ZM220.082 104.33L216.556 103.945L216.501 104.448L216.589 104.947L220.082 104.33ZM220.151 105.105H223.697V105.105L220.151 105.105ZM215.718 129.688L215.718 133.234H215.718V129.688ZM184.285 129.688L184.284 133.234H184.285V129.688ZM179.852 105.105L176.306 105.105V105.105H179.852ZM179.921 104.329L183.414 104.946L183.502 104.448L183.447 103.944L179.921 104.329ZM179.852 103.091H176.306V103.091L179.852 103.091ZM200.001 66.8213V63.275H200.001L200.001 66.8213ZM211.286 78.1045H214.832V78.1044L211.286 78.1045ZM200.001 89.3887L200.001 92.935H200.001V89.3887ZM188.718 78.1045L185.172 78.1044V78.1045H188.718ZM208.868 91.001L208.868 94.5473C213.14 94.5474 216.605 98.0116 216.605 102.285H220.151H223.697C223.697 94.0952 217.058 87.4548 208.868 87.4547L208.868 91.001ZM220.151 102.285H216.605V103.091H220.151H223.697V102.285H220.151ZM220.151 103.091L216.605 103.091C216.605 103.369 216.588 103.654 216.556 103.945L220.082 104.33L223.607 104.715C223.664 104.192 223.697 103.65 223.697 103.091L220.151 103.091ZM220.082 104.33L216.589 104.947C216.601 105.011 216.605 105.064 216.605 105.105L220.151 105.105L223.697 105.105C223.697 104.618 223.651 104.152 223.574 103.714L220.082 104.33ZM220.151 105.105H216.605V125.255H220.151H223.697V105.105H220.151ZM220.151 125.255H216.605C216.605 125.745 216.208 126.141 215.718 126.141V129.688V133.234C220.125 133.234 223.697 129.662 223.697 125.255H220.151ZM215.718 129.688L215.718 126.141C215.229 126.141 214.832 125.744 214.832 125.255H211.286H207.739C207.739 129.662 211.312 133.234 215.718 133.234L215.718 129.688ZM211.286 125.255H207.739V154.673H211.286H214.832V125.255H211.286ZM211.286 154.673H207.739C207.739 155.83 206.8 156.769 205.643 156.769V160.315V163.862C210.718 163.862 214.832 159.747 214.832 154.673H211.286ZM205.643 160.315V156.769H194.36V160.315V163.862H205.643V160.315ZM194.36 160.315V156.769C193.203 156.769 192.265 155.831 192.265 154.673H188.718H185.172C185.172 159.747 189.285 163.862 194.36 163.862V160.315ZM188.718 154.673H192.265V125.255H188.718H185.172V154.673H188.718ZM188.718 125.255H185.172C185.172 125.744 184.775 126.141 184.285 126.141V129.688V133.234C188.69 133.234 192.265 129.663 192.265 125.255H188.718ZM184.285 129.688L184.285 126.141C183.795 126.141 183.398 125.744 183.398 125.255H179.852H176.306C176.306 129.662 179.878 133.233 184.284 133.234L184.285 129.688ZM179.852 125.255H183.398V105.105H179.852H176.306V125.255H179.852ZM179.852 105.105L183.398 105.105C183.398 105.062 183.402 105.01 183.414 104.946L179.921 104.329L176.429 103.712C176.351 104.153 176.306 104.619 176.306 105.105L179.852 105.105ZM179.921 104.329L183.447 103.944C183.415 103.653 183.398 103.369 183.398 103.091L179.852 103.091L176.306 103.091C176.306 103.65 176.339 104.192 176.396 104.714L179.921 104.329ZM179.852 103.091H183.398V102.285H179.852H176.306V103.091H179.852ZM179.852 102.285H183.398C183.398 98.0119 186.863 94.5473 191.136 94.5473V91.001V87.4547C182.946 87.4547 176.306 94.0948 176.306 102.285H179.852ZM191.136 91.001V94.5473H208.868V91.001V87.4547H191.136V91.001ZM200.001 66.8213V70.3676C204.275 70.3676 207.739 73.8317 207.739 78.1046L211.286 78.1045L214.832 78.1044C214.832 69.914 208.191 63.275 200.001 63.275V66.8213ZM211.286 78.1045H207.739C207.739 82.3777 204.275 85.8424 200.001 85.8424V89.3887V92.935C208.192 92.935 214.832 86.2949 214.832 78.1045H211.286ZM200.001 89.3887L200.002 85.8424C195.729 85.8423 192.265 82.378 192.265 78.1045H188.718H185.172C185.172 86.2945 191.811 92.9348 200.001 92.935L200.001 89.3887ZM188.718 78.1045L192.265 78.1046C192.265 73.8315 195.729 70.3677 200.002 70.3676L200.001 66.8213L200.001 63.275C191.811 63.2751 185.172 69.9144 185.172 78.1044L188.718 78.1045Z" fill="white" mask="url(#path-27-outside-1_2857_846)"/>
<defs>
<filter id="filter0_d_2857_846" x="114.761" y="118.22" width="174.249" height="67.9631" filterUnits="userSpaceOnUse" color-interpolation-filters="sRGB">
<feFlood flood-opacity="0" result="BackgroundImageFix"/>
<feColorMatrix in="SourceAlpha" type="matrix" values="0 0 0 0 0 0 0 0 0 0 0 0 0 0 0 0 0 0 127 0" result="hardAlpha"/>
<feOffset dx="1.88331" dy="3.20163"/>
<feGaussianBlur stdDeviation="4.99077"/>
<feComposite in2="hardAlpha" operator="out"/>
<feColorMatrix type="matrix" values="0 0 0 0 0.623229 0 0 0 0 0.676446 0 0 0 0 0.804167 0 0 0 1 0"/>
<feBlend mode="normal" in2="BackgroundImageFix" result="effect1_dropShadow_2857_846"/>
<feBlend mode="normal" in="SourceGraphic" in2="effect1_dropShadow_2857_846" result="shape"/>
</filter>
<clipPath id="bgblur_0_2857_846_clip_path" transform="translate(-114.761 -118.22)"><ellipse cx="200.002" cy="149" rx="77.1429" ry="24"/>
</clipPath><linearGradient id="paint0_linear_2857_846" x1="235.698" y1="197.042" x2="259.742" y2="193.358" gradientUnits="userSpaceOnUse">
<stop stop-color="#4075FC"/>
<stop offset="0.5" stop-color="#6B8CFD"/>
<stop offset="1" stop-color="#9FA7FF"/>
</linearGradient>
<linearGradient id="paint1_linear_2857_846" x1="167.996" y1="197.042" x2="192.04" y2="193.358" gradientUnits="userSpaceOnUse">
<stop stop-color="#4075FC"/>
<stop offset="0.5" stop-color="#6B8CFD"/>
<stop offset="1" stop-color="#9FA7FF"/>
</linearGradient>
<linearGradient id="paint2_linear_2857_846" x1="201.846" y1="209.939" x2="225.89" y2="206.255" gradientUnits="userSpaceOnUse">
<stop stop-color="#4075FC"/>
<stop offset="0.5" stop-color="#6B8CFD"/>
<stop offset="1" stop-color="#9FA7FF"/>
</linearGradient>
</defs>
</svg>
