<svg xmlns="http://www.w3.org/2000/svg" viewBox="0 0 427 427" fill="none"><rect width="427" height="427" fill="#352DD8"/><g clip-path="url(#clip0_0_1)"><path d="M90.2 246.04L64.86 182.47H62.69H52.52H50.65L25 246.04H38.35L57.54 195.9L76.31 246.04H90.2Z" fill="white"/><path d="M279.33 246.04L254 182.47H251.82H241.65H239.79L214.13 246.04H227.48L246.67 195.9L265.44 246.04H279.33Z" fill="white"/><path d="M317.83 182.47L295.89 225.65V246.04H309.65V225.65L331.58 182.47H317.83Z" fill="#F4F4F4"/><path d="M287.72 182.47H273.96L291.3 216.52L298.18 202.98L287.72 182.47Z" fill="#F4F4F4"/><path d="M366.45 181.83C347.44 181.83 332.03 196.34 332.03 214.25C332.03 232.16 347.44 246.67 366.45 246.67C385.46 246.67 400.87 232.15 400.87 214.25C400.87 196.35 385.46 181.83 366.45 181.83ZM366.45 234.32C354.68 234.32 345.14 225.33 345.14 214.25C345.14 203.17 354.68 194.18 366.45 194.18C378.22 194.18 387.76 203.17 387.76 214.25C387.76 225.33 378.22 234.32 366.45 234.32Z" fill="#F4F4F4"/><path d="M165.56 212.7C166.32 213.29 167.14 213.82 168.01 214.32L177.46 205.56C177.35 205.51 177.23 205.47 177.13 205.42C174.38 204.23 172.93 202.06 172.93 199.14C172.93 196.22 174.25 194.06 176.75 192.81C179.04 191.67 181.61 191.09 184.37 191.09C187.51 191.09 190.45 191.84 193.11 193.31C195.36 194.56 197.22 196.02 198.66 197.66L207.63 189.72C205.21 186.94 202.02 184.81 198.12 183.38C193.79 181.81 189.3 181.01 184.77 181.01C181.64 181.01 178.55 181.41 175.58 182.2C172.67 182.96 170 184.16 167.67 185.75C165.39 187.32 163.52 189.36 162.11 191.82C160.72 194.26 160.02 197.22 160.02 200.62C160.02 203.5 160.53 205.93 161.52 207.83C162.53 209.77 163.89 211.4 165.56 212.7Z" fill="white"/><path d="M206.14 219.42C204.96 217.35 203.4 215.59 201.5 214.21C199.58 212.8 197.4 211.65 195.01 210.78C192.57 209.89 190.14 209.18 187.77 208.65C187.5 208.59 187.25 208.52 186.99 208.46L177.09 217.63C177.53 217.74 177.95 217.87 178.39 217.97C183.49 219.18 187.2 220.36 189.73 221.56C192.55 222.89 194.03 225.22 194.03 228.3C194.03 229.94 193.66 231.36 192.92 232.51C192.19 233.65 191.23 234.56 190.06 235.22C188.94 235.85 187.71 236.32 186.39 236.61C185.11 236.89 183.83 237.03 182.59 237.03C178.92 237.03 175.53 236.22 172.51 234.62C169.88 233.21 167.65 231.47 165.88 229.41L156.79 237.93C159.71 240.87 163.33 243.18 167.57 244.81C172.2 246.6 177.03 247.51 181.91 247.51C185.31 247.51 188.66 247.13 191.87 246.39C195.03 245.65 197.82 244.45 200.15 242.83C202.48 241.22 204.37 239.09 205.77 236.51C207.16 233.93 207.87 230.71 207.87 226.94C207.87 223.99 207.28 221.47 206.12 219.42H206.14Z" fill="white"/><path d="M144.49 219.42C143.31 217.35 141.75 215.59 139.85 214.21C137.93 212.8 135.75 211.65 133.36 210.78C130.92 209.89 128.49 209.18 126.12 208.65C125.85 208.59 125.6 208.52 125.34 208.46L115.44 217.63C115.88 217.74 116.3 217.87 116.74 217.97C121.84 219.18 125.55 220.36 128.08 221.56C130.9 222.89 132.38 225.22 132.38 228.3C132.38 229.94 132.01 231.36 131.27 232.51C130.54 233.65 129.58 234.56 128.41 235.22C127.29 235.85 126.06 236.32 124.74 236.61C123.46 236.89 122.18 237.03 120.94 237.03C117.27 237.03 113.88 236.22 110.86 234.62C108.23 233.21 106 231.47 104.23 229.41L95.14 237.93C98.06 240.87 101.68 243.18 105.92 244.81C110.55 246.6 115.38 247.51 120.26 247.51C123.66 247.51 127.01 247.13 130.22 246.39C133.38 245.65 136.17 244.45 138.5 242.83C140.83 241.22 142.72 239.09 144.12 236.51C145.51 233.93 146.22 230.71 146.22 226.94C146.22 223.99 145.63 221.47 144.47 219.42H144.49Z" fill="white"/><path d="M103.91 212.7C104.67 213.29 105.49 213.82 106.36 214.32L115.81 205.56C115.7 205.51 115.58 205.47 115.48 205.42C112.73 204.23 111.28 202.06 111.28 199.14C111.28 196.22 112.6 194.06 115.1 192.81C117.39 191.67 119.96 191.09 122.72 191.09C125.86 191.09 128.8 191.84 131.46 193.31C133.71 194.56 135.57 196.02 137.01 197.66L145.98 189.72C143.56 186.94 140.37 184.81 136.47 183.38C132.14 181.81 127.65 181.01 123.12 181.01C119.99 181.01 116.9 181.41 113.93 182.2C111.02 182.96 108.35 184.16 106.02 185.75C103.74 187.32 101.87 189.36 100.46 191.82C99.07 194.26 98.37 197.22 98.37 200.62C98.37 203.5 98.88 205.93 99.87 207.83C100.88 209.77 102.24 211.4 103.91 212.7Z" fill="white"/></g><defs><clipPath id="clip0_0_1"><rect width="375.87" height="66.5" fill="white" transform="translate(25 181)"/></clipPath></defs></svg>