<svg xmlns="http://www.w3.org/2000/svg"  viewBox="0 0 512 512" fill="#ED675F"><path d="M47,109.6951a111.539,111.539,0,0,1,54.7653,14.315A145.3113,145.3113,0,0,0,40.96,173.848,17.1,17.1,0,0,0,68.978,193.46a111.435,111.435,0,0,1,35.6181-32.3663,145.66,145.66,0,0,0-4.4184,68.984,17.0981,17.0981,0,0,0,33.6768-5.9375,111.4816,111.4816,0,0,1,7.7964-64.7165,279.0741,279.0741,0,0,1,64.3639,143.7084A178.41,178.41,0,0,0,100.74,387.0738c12.3052,5.6661,21.644,12.3505,28.6426,17.4461,10.437,7.5981,12.6079,9.1845,22.0151,9.1845,9.4444,0,11.6153-1.5864,22.0523-9.1845,14.8345-10.79,39.6328-28.8155,82.4292-28.8155s67.5947,18.0073,82.42,28.7783c10.502,7.6353,12.6729,9.2217,22.145,9.2217,9.4536,0,11.6338-1.5864,22.1079-9.1938,7.06-5.13,16.4789-11.8727,28.9222-17.562a178.5214,178.5214,0,0,0-63.56-65.47,208.7472,208.7472,0,0,1,40.1-82.55,85.4981,85.4981,0,0,1,4.1307,44.188,17.0954,17.0954,0,0,0,13.87,19.8072,17.2845,17.2845,0,0,0,2.9874.269,17.1113,17.1113,0,0,0,16.82-14.1387,120.2668,120.2668,0,0,0-1.1829-47.8595,85.9878,85.9878,0,0,1,19.9788,19.9347,17.1,17.1,0,1,0,28.0176-19.6123,119.8851,119.8851,0,0,0-43.3913-37.9652A85.797,85.797,0,0,1,465,195.5755a17.0982,17.0982,0,0,0,0-34.1963,119.6328,119.6328,0,0,0-64.04,18.513A119.6763,119.6763,0,0,0,359.1084,127.99a17.1,17.1,0,1,0-19.6123,28.0175,86.1317,86.1317,0,0,1,19.9393,19.9881,120.6788,120.6788,0,0,0-47.8548-1.1922,17.0981,17.0981,0,1,0,5.9375,33.6768,85.6208,85.6208,0,0,1,47.0141,5.0585,242.7527,242.7527,0,0,0-48.1367,92.9056A178.2713,178.2713,0,0,0,256,295.9007c-5.5258,0-10.9948.2737-16.4081.77a312.9262,312.9262,0,0,0-74.25-161.9592,111.3187,111.3187,0,0,1,66.76-8.8181,17.0981,17.0981,0,0,0,5.9375-33.6768A145.656,145.656,0,0,0,169.06,96.635a111.4162,111.4162,0,0,1,32.371-35.6274A17.1,17.1,0,0,0,181.8184,32.99a145.2835,145.2835,0,0,0-52.78,67.66A145.3029,145.3029,0,0,0,47,75.4989a17.0981,17.0981,0,0,0,0,34.1962Z"/><path d="M465,409.9007c-31.7007,0-48.6875,12.3482-62.3345,22.2656-12.0884,8.7857-21.644,15.7344-42.2212,15.7344s-30.1328-6.9394-42.2212-15.7344c-13.6562-9.9174-30.643-22.2656-62.3437-22.2656-31.6821,0-48.66,12.3482-62.2974,22.2656-12.0791,8.795-21.6255,15.7344-42.1841,15.7344-20.54,0-30.0678-6.9394-42.1376-15.7251C95.6226,422.2489,78.6636,409.9007,47,409.9007a17.0982,17.0982,0,0,0,0,34.1963c20.5308,0,30.0586,6.94,42.1284,15.7251,13.6377,9.9268,30.606,22.2749,62.2695,22.2749,31.6822,0,48.66-12.3481,62.2974-22.2656,12.0791-8.7949,21.6255-15.7344,42.1841-15.7344,20.5864,0,30.1421,6.9487,42.23,15.7344,13.6562,9.9175,30.643,22.2656,62.3344,22.2656,31.7007,0,48.6875-12.3481,62.3345-22.2656C434.8672,451.0457,444.4229,444.097,465,444.097a17.0982,17.0982,0,0,0,0-34.1963Z"/></svg>
