<svg width="24" height="24" viewBox="0 0 24 24" fill="none" xmlns="http://www.w3.org/2000/svg">
<path d="M7.5 4L7.5 15" stroke="#84858D" stroke-width="1.4" stroke-linecap="round" stroke-linejoin="round"/>
<path d="M16.5 9C17.8807 9 19 7.88071 19 6.5C19 5.11929 17.8807 4 16.5 4C15.1193 4 14 5.11929 14 6.5C14 7.88071 15.1193 9 16.5 9Z" stroke="#84858D" stroke-width="1.4" stroke-linecap="round" stroke-linejoin="round"/>
<path d="M7.5 20C8.88071 20 10 18.8807 10 17.5C10 16.1193 8.88071 15 7.5 15C6.11929 15 5 16.1193 5 17.5C5 18.8807 6.11929 20 7.5 20Z" stroke="#84858D" stroke-width="1.4" stroke-linecap="round" stroke-linejoin="round"/>
<path d="M16.5 9.5C16.5 11.8869 16.1571 13.6761 14.6569 15.364C13.1566 17.0518 12.1217 18 10 18" stroke="#84858D" stroke-width="1.4" stroke-linecap="round" stroke-linejoin="round"/>
</svg>
