<svg width="24" height="24" viewBox="0 0 24 24" fill="none" xmlns="http://www.w3.org/2000/svg">
<path d="M16.9001 20C18.2809 20 19.4001 18.8807 19.4001 17.5C19.4001 16.1193 18.2809 15 16.9001 15C15.5194 15 14.4001 16.1193 14.4001 17.5C14.4001 18.8807 15.5194 20 16.9001 20Z" stroke="#84858D" stroke-width="1.4" stroke-linecap="round" stroke-linejoin="round"/>
<path d="M7.5 9C8.88071 9 10 7.88071 10 6.5C10 5.11929 8.88071 4 7.5 4C6.11929 4 5 5.11929 5 6.5C5 7.88071 6.11929 9 7.5 9Z" stroke="#84858D" stroke-width="1.4" stroke-linecap="round" stroke-linejoin="round"/>
<path d="M13.0001 7H15.4001C15.8245 7 16.2315 7.1873 16.5315 7.5207C16.8316 7.8541 17.0001 8.30628 17.0001 8.77778V15" stroke="#84858D" stroke-width="1.4" stroke-linecap="round" stroke-linejoin="round"/>
<path d="M7.5 9V20" stroke="#84858D" stroke-width="1.4" stroke-linecap="round" stroke-linejoin="round"/>
</svg>
