<svg width="301" height="112" viewBox="0 0 301 112" fill="none"
     xmlns="http://www.w3.org/2000/svg">
    <path d="M186.603 15.183s21.819-23.307 53.805-10.166c9.174 3.72 21.323 12.646 32.977 13.637 14.877 1.24 17.605 1.488 14.877 6.943-3.471 6.447-8.43 7.934-20.828 7.19-13.141-.991-23.307-5.95-23.307-5.95m-64.466-2.231s-2.976 11.901.495 21.572c3.224 9.422 10.414 10.661 18.845 17.356 14.629 11.902 19.588 15.373 27.026 22.068 4.959 4.215 14.877 23.555 19.34 24.547 7.439 1.735 6.199-5.951 6.199-5.951s4.959 9.67 11.902 5.951c1.735-.992.248-8.679.248-8.679s6.694 11.654 12.893 6.943c1.984-1.488.744-4.959-1.24-10.91-2.479-7.19-2.479-18.844-4.463-21.82-5.207-7.686-12.893-14.877-12.893-14.877s18.596 9.175 25.291 15.373c6.694 6.2 8.43 13.638 13.389 13.886 5.207.248 4.711-10.166-3.967-22.564-2.976-4.215-9.918-10.662-13.638-13.637-5.95-4.711-17.852-12.398-26.778-23.307m-56.286 3.223s19.836 12.15 41.408 1.736m-28.265 23.803s16.117-13.638 34.713-18.1"
          stroke="#000" stroke-miterlimit="10" stroke-linejoin="round"/>
    <path d="M251.318 103.949s-3.719-9.918-9.918-20.827c-2.975-5.455-8.926-7.687-14.877-11.406m36.944 29.506s-3.471-9.67-6.942-21.82c-.992-3.47-10.166-8.926-16.365-13.389m-125.959-50.83S92.381-8.124 60.396 5.017c-9.175 3.72-21.324 12.646-32.978 13.637-14.877 1.24-17.604 1.488-14.877 6.943 3.472 6.447 8.43 7.934 20.828 7.19 13.141-.991 23.307-5.95 23.307-5.95m64.716-2.231s2.975 11.901-.496 21.572c-3.224 9.422-10.414 10.661-18.845 17.356-14.629 11.902-23.555 16.117-30.993 22.563-4.96 4.216-12.398 21.076-16.86 22.068-7.44 1.736-6.944-2.727-6.944-2.727s-6.198 7.438-11.901 3.967c-.744-.496-.992-2.48-.744-4.215 0-2.232 6.943-26.531 6.943-26.531s-14.133 21.82-15.621 23.555c-2.48 2.976-6.447 6.199-10.414 3.224-1.984-1.488-1.736-5.455 1.24-10.91 4.463-7.935 6.694-13.638 10.662-19.836 5.207-7.687 15.62-14.133 15.62-14.133s-18.596 9.174-25.29 15.373c-6.695 6.198-8.43 13.637-13.39 13.885-5.207.248-4.71-10.166 3.967-22.564 2.976-4.215 9.918-10.662 13.638-13.637 5.95-4.711 17.852-12.398 26.778-23.307m56.285 3.471s-19.836 12.15-41.408 1.736m28.018 23.803S75.52 45.68 56.924 41.218"
          stroke="#000" stroke-miterlimit="10" stroke-linejoin="round"/>
    <path d="M47.503 105.189s2.727-11.405 9.918-23.307c3.223-5.207 6.447-6.447 12.397-10.166M41.8 78.41c.992-3.47 9.174-8.43 15.373-12.893"
          stroke="#000" stroke-miterlimit="10" stroke-linejoin="round"/>
</svg>