<?xml version="1.0" encoding="UTF-8"?><svg id="Layer_1" xmlns="http://www.w3.org/2000/svg" viewBox="0 0 375.87 66.5"><defs><style>.cls-1{fill:#9fa5b3;}.cls-2{fill:#4e5463;}</style></defs><polygon class="cls-2" points="65.2 65.04 39.86 1.47 37.69 1.47 27.52 1.47 25.65 1.47 0 65.04 13.35 65.04 32.54 14.9 51.31 65.04 65.2 65.04"/><polygon class="cls-2" points="254.33 65.04 229 1.47 226.82 1.47 216.65 1.47 214.79 1.47 189.13 65.04 202.48 65.04 221.67 14.9 240.44 65.04 254.33 65.04"/><g><polygon class="cls-2" points="292.83 1.47 270.89 44.65 270.89 65.04 284.65 65.04 284.65 44.65 306.58 1.47 292.83 1.47"/><polygon class="cls-2" points="262.72 1.47 248.96 1.47 266.3 35.52 273.18 21.98 262.72 1.47"/></g><path class="cls-2" d="M341.45,.83c-19.01,0-34.42,14.51-34.42,32.42s15.41,32.42,34.42,32.42,34.42-14.52,34.42-32.42S360.46,.83,341.45,.83Zm0,52.49c-11.77,0-21.31-8.99-21.31-20.07s9.54-20.07,21.31-20.07,21.31,8.99,21.31,20.07-9.54,20.07-21.31,20.07Z"/><g><path class="cls-1" d="M140.56,31.7c.76,.59,1.58,1.12,2.45,1.62l9.45-8.76c-.11-.05-.23-.09-.33-.14-2.75-1.19-4.2-3.36-4.2-6.28s1.32-5.08,3.82-6.33c2.29-1.14,4.86-1.72,7.62-1.72,3.14,0,6.08,.75,8.74,2.22,2.25,1.25,4.11,2.71,5.55,4.35l8.97-7.94c-2.42-2.78-5.61-4.91-9.51-6.34-4.33-1.57-8.82-2.37-13.35-2.37-3.13,0-6.22,.4-9.19,1.19-2.91,.76-5.58,1.96-7.91,3.55-2.28,1.57-4.15,3.61-5.56,6.07-1.39,2.44-2.09,5.4-2.09,8.8,0,2.88,.51,5.31,1.5,7.21,1.01,1.94,2.37,3.57,4.04,4.87Z"/><path class="cls-2" d="M181.14,38.42c-1.18-2.07-2.74-3.83-4.64-5.21-1.92-1.41-4.1-2.56-6.49-3.43-2.44-.89-4.87-1.6-7.24-2.13-.27-.06-.52-.13-.78-.19l-9.9,9.17c.44,.11,.86,.24,1.3,.34,5.1,1.21,8.81,2.39,11.34,3.59,2.82,1.33,4.3,3.66,4.3,6.74,0,1.64-.37,3.06-1.11,4.21-.73,1.14-1.69,2.05-2.86,2.71-1.12,.63-2.35,1.1-3.67,1.39-1.28,.28-2.56,.42-3.8,.42-3.67,0-7.06-.81-10.08-2.41-2.63-1.41-4.86-3.15-6.63-5.21l-9.09,8.52c2.92,2.94,6.54,5.25,10.78,6.88,4.63,1.79,9.46,2.7,14.34,2.7,3.4,0,6.75-.38,9.96-1.12,3.16-.74,5.95-1.94,8.28-3.56,2.33-1.61,4.22-3.74,5.62-6.32,1.39-2.58,2.1-5.8,2.1-9.57,0-2.95-.59-5.47-1.75-7.52Z"/></g><g><path class="cls-2" d="M119.49,38.42c-1.18-2.07-2.74-3.83-4.64-5.21-1.92-1.41-4.1-2.56-6.49-3.43-2.44-.89-4.87-1.6-7.24-2.13-.27-.06-.52-.13-.78-.19l-9.9,9.17c.44,.11,.86,.24,1.3,.34,5.1,1.21,8.81,2.39,11.34,3.59,2.82,1.33,4.3,3.66,4.3,6.74,0,1.64-.37,3.06-1.11,4.21-.73,1.14-1.69,2.05-2.86,2.71-1.12,.63-2.35,1.1-3.67,1.39-1.28,.28-2.56,.42-3.8,.42-3.67,0-7.06-.81-10.08-2.41-2.63-1.41-4.86-3.15-6.63-5.21l-9.09,8.52c2.92,2.94,6.54,5.25,10.78,6.88,4.63,1.79,9.46,2.7,14.34,2.7,3.4,0,6.75-.38,9.96-1.12,3.16-.74,5.95-1.94,8.28-3.56,2.33-1.61,4.22-3.74,5.62-6.32,1.39-2.58,2.1-5.8,2.1-9.57,0-2.95-.59-5.47-1.75-7.52Z"/><path class="cls-1" d="M78.91,31.7c.76,.59,1.58,1.12,2.45,1.62l9.45-8.76c-.11-.05-.23-.09-.33-.14-2.75-1.19-4.2-3.36-4.2-6.28s1.32-5.08,3.82-6.33c2.29-1.14,4.86-1.72,7.62-1.72,3.14,0,6.08,.75,8.74,2.22,2.25,1.25,4.11,2.71,5.55,4.35l8.97-7.94c-2.42-2.78-5.61-4.91-9.51-6.34-4.33-1.57-8.82-2.37-13.35-2.37-3.13,0-6.22,.4-9.19,1.19-2.91,.76-5.58,1.96-7.91,3.55-2.28,1.57-4.15,3.61-5.56,6.07-1.39,2.44-2.09,5.4-2.09,8.8,0,2.88,.51,5.31,1.5,7.21,1.01,1.94,2.37,3.57,4.04,4.87Z"/></g></svg>